<svg xmlns="http://www.w3.org/2000/svg" xmlns:xlink="http://www.w3.org/1999/xlink" width="1000" zoomAndPan="magnify" viewBox="0 0 750 1110.749945" height="1481" preserveAspectRatio="xMidYMid meet" version="1.0"><defs><clipPath id="ea55dad4a6"><path d="M 39 240.601562 L 709 240.601562 L 709 869.710938 L 39 869.710938 Z M 39 240.601562 " clip-rule="nonzero"/></clipPath></defs><g clip-path="url(#ea55dad4a6)"><path fill="#353970" d="M 705.753906 777.859375 C 702.878906 765.652344 698.546875 753.625 691.984375 742.71875 C 678.933594 720.761719 659.039062 704 638.136719 690.460938 C 617.023438 676.964844 594.445312 666.132812 571.339844 657.222656 C 527.09375 640.128906 529.238281 640.699219 499.375 630.050781 C 433.210938 606.472656 396.472656 571.421875 394.164062 533.40625 C 393.054688 515 411.035156 455.007812 485.171875 469.269531 C 502.777344 472.652344 519.4375 477.402344 535.84375 484.800781 C 550.964844 491.632812 595.089844 513.019531 610.550781 543.472656 C 611.71875 556.910156 616.453125 562.105469 635.363281 571.035156 C 649.582031 577.746094 663.9375 585.039062 665.226562 601.574219 C 665.300781 602.472656 665.988281 603.207031 667.1875 603.386719 C 667.96875 603.386719 668.6875 602.921875 669 602.175781 C 671.726562 595.597656 682.710938 587.359375 690.890625 589.609375 C 691.835938 589.847656 692.675781 589.472656 693.109375 588.695312 C 693.558594 587.914062 693.410156 586.957031 692.792969 586.328125 L 679.863281 573.535156 C 675.203125 568.890625 670.109375 562.734375 665.792969 554.828125 C 664.625 552.699219 663.621094 550.601562 662.738281 548.582031 C 662.167969 547.171875 661.597656 545.78125 661.03125 544.371094 C 650.183594 515.988281 629.96875 485.578125 609.113281 465.882812 C 597.785156 454.992188 585.320312 445.40625 572.03125 437.226562 C 558.679688 429.167969 544.773438 422.011719 529.582031 417.726562 L 528.472656 421.5625 C 542.664062 426.457031 555.9375 434.277344 568.359375 442.816406 C 580.765625 451.488281 592.226562 461.433594 602.414062 472.457031 C 616.964844 487.917969 628.425781 505.859375 636.605469 525.0625 L 606.746094 487.960938 L 607.570312 500.8125 L 583.101562 473.238281 L 584.617188 486.148438 L 560.851562 466.992188 L 562.890625 475.738281 C 557.539062 472.203125 510.074219 453.332031 486.386719 444.433594 C 462.695312 435.535156 415.890625 391.648438 429.390625 336.105469 C 429.390625 336.105469 407.257812 327.507812 391.40625 321.652344 C 375.777344 316.019531 360.089844 310.914062 344.359375 305.984375 C 312.894531 296.128906 281.25 287.140625 249.441406 278.753906 C 217.632812 270.410156 185.613281 262.84375 153.414062 256.164062 C 121.199219 249.558594 88.804688 243.671875 56.023438 240.390625 L 55.4375 245.378906 C 87.695312 250.339844 119.535156 257.859375 151.136719 266.082031 C 182.71875 274.394531 214.09375 283.546875 245.214844 293.476562 C 276.320312 303.4375 307.230469 313.996094 337.765625 325.351562 C 353.019531 331.027344 368.226562 336.871094 383.121094 343.148438 C 386.28125 344.464844 389.503906 345.84375 392.726562 347.222656 C 374.386719 343.609375 356.046875 340.75 337.691406 338.367188 C 304.5625 334.160156 271.40625 331.507812 238.21875 330.011719 C 205.046875 328.511719 171.84375 328.273438 138.699219 329.5 C 105.570312 330.789062 72.429688 333.378906 39.734375 338.984375 L 40.378906 343.535156 C 73.042969 340.179688 105.929688 339.851562 138.714844 340.796875 C 171.511719 341.796875 204.25 344.253906 236.808594 347.941406 C 269.351562 351.625 301.761719 356.433594 333.734375 362.710938 C 353.453125 366.617188 373.050781 371.15625 392.214844 376.503906 C 377.066406 374.992188 361.996094 374.601562 347.054688 374.78125 C 317.433594 375.230469 288.230469 378.480469 259.433594 383.378906 C 230.636719 388.324219 202.226562 394.957031 174.40625 403.542969 C 146.671875 412.214844 119.25 422.519531 94.078125 437.226562 L 95.816406 440.34375 C 121.589844 427.941406 149.277344 420.003906 177.117188 413.695312 C 205.015625 407.496094 233.320312 403.242188 261.683594 400.695312 C 290.015625 398.179688 318.5 397.339844 346.53125 399.183594 C 371.464844 400.828125 396.230469 404.621094 418.902344 411.898438 C 419.875 418.566406 424.386719 432.0625 426.558594 438.800781 C 362.804688 468.113281 354.726562 520.839844 359.941406 549.121094 C 366.070312 582.28125 390.074219 607.566406 418.4375 623.9375 C 441.914062 637.285156 465.902344 645.792969 489.246094 654.601562 C 512.546875 663.332031 535.621094 671.722656 556.175781 683.328125 C 576.433594 694.519531 593.277344 711.804688 606.984375 731.410156 C 634.507812 770.925781 645.523438 820.746094 648.820312 869.890625 L 654.289062 869.742188 C 654.40625 819.964844 647.246094 767.855469 620.546875 722.769531 C 611.734375 708 600.855469 693.996094 588.015625 681.832031 C 602.878906 687.582031 617.398438 694.085938 631.273438 701.796875 C 651.84375 713.464844 671.234375 727.996094 684.433594 747.5 C 691.085938 757.191406 695.746094 768.09375 699.164062 779.449219 C 702.1875 790.9375 703.582031 802.890625 704.09375 814.964844 L 708.765625 814.964844 C 708.929688 802.636719 708.242188 790.171875 705.753906 777.859375 Z M 705.753906 777.859375 " fill-opacity="1" fill-rule="nonzero"/></g></svg>