<svg xmlns="http://www.w3.org/2000/svg" xmlns:xlink="http://www.w3.org/1999/xlink" width="800" zoomAndPan="magnify" viewBox="0 0 600 729" height="972" preserveAspectRatio="xMidYMid meet" version="1.0"><defs><g/><clipPath id="e7a1b9db8a"><path d="M 56.128906 39.019531 L 543.628906 39.019531 L 543.628906 587.269531 L 56.128906 587.269531 Z M 56.128906 39.019531 " clip-rule="nonzero"/></clipPath><clipPath id="73ab37f25e"><path d="M 94 39.019531 L 543.628906 39.019531 L 543.628906 587.269531 L 94 587.269531 Z M 94 39.019531 " clip-rule="nonzero"/></clipPath><clipPath id="63ac4b920d"><path d="M 216.125 229.15625 L 384.125 229.15625 L 384.125 397.15625 L 216.125 397.15625 Z M 216.125 229.15625 " clip-rule="nonzero"/></clipPath></defs><g clip-path="url(#e7a1b9db8a)"><path fill="#38b6ff" d="M 299.878906 39.136719 C 219.796875 78.28125 129.746094 110.035156 56.125 110.558594 C 101.34375 390.453125 127.289062 498.617188 299.878906 587.15625 C 472.472656 498.617188 498.417969 390.453125 543.636719 110.558594 C 470.015625 110.035156 379.960938 78.28125 299.878906 39.136719 Z M 299.878906 39.136719 " fill-opacity="1" fill-rule="evenodd"/></g><g clip-path="url(#73ab37f25e)"><path fill="#000000" d="M 299.878906 39.136719 L 299.878906 313.144531 L 505.40625 313.144531 C 519.1875 257.40625 530.621094 191.121094 543.636719 110.558594 C 470.015625 110.035156 379.960938 78.28125 299.878906 39.136719 Z M 299.878906 313.144531 L 94.355469 313.144531 C 128.445312 451.042969 176.96875 524.105469 299.878906 587.15625 Z M 299.878906 313.144531 " fill-opacity="0.3137" fill-rule="evenodd"/></g><g clip-path="url(#63ac4b920d)"><path fill="#99b83c" d="M 384.125 313.15625 C 384.125 314.53125 384.09375 315.90625 384.023438 317.277344 C 383.957031 318.652344 383.855469 320.023438 383.722656 321.390625 C 383.585938 322.757812 383.417969 324.121094 383.214844 325.484375 C 383.015625 326.84375 382.78125 328.195312 382.511719 329.546875 C 382.242188 330.894531 381.941406 332.234375 381.609375 333.566406 C 381.273438 334.902344 380.90625 336.226562 380.507812 337.542969 C 380.109375 338.855469 379.679688 340.160156 379.214844 341.457031 C 378.753906 342.75 378.257812 344.03125 377.730469 345.304688 C 377.207031 346.574219 376.648438 347.828125 376.0625 349.070312 C 375.472656 350.316406 374.855469 351.542969 374.207031 352.753906 C 373.558594 353.96875 372.882812 355.164062 372.175781 356.34375 C 371.46875 357.519531 370.734375 358.683594 369.96875 359.824219 C 369.207031 360.96875 368.414062 362.09375 367.59375 363.195312 C 366.777344 364.300781 365.929688 365.382812 365.058594 366.445312 C 364.1875 367.507812 363.289062 368.550781 362.367188 369.570312 C 361.441406 370.585938 360.496094 371.582031 359.523438 372.554688 C 358.550781 373.527344 357.554688 374.472656 356.535156 375.398438 C 355.519531 376.320312 354.476562 377.21875 353.414062 378.089844 C 352.351562 378.960938 351.269531 379.808594 350.164062 380.625 C 349.058594 381.445312 347.9375 382.238281 346.792969 383 C 345.652344 383.765625 344.488281 384.5 343.308594 385.207031 C 342.132812 385.914062 340.933594 386.589844 339.722656 387.238281 C 338.511719 387.886719 337.28125 388.503906 336.039062 389.09375 C 334.796875 389.679688 333.542969 390.238281 332.269531 390.761719 C 331 391.289062 329.71875 391.785156 328.425781 392.246094 C 327.128906 392.710938 325.824219 393.140625 324.507812 393.539062 C 323.195312 393.941406 321.871094 394.304688 320.535156 394.640625 C 319.203125 394.972656 317.863281 395.273438 316.511719 395.542969 C 315.164062 395.8125 313.8125 396.046875 312.449219 396.25 C 311.089844 396.449219 309.726562 396.617188 308.359375 396.753906 C 306.992188 396.886719 305.621094 396.988281 304.246094 397.054688 C 302.875 397.125 301.5 397.15625 300.125 397.15625 C 298.75 397.15625 297.378906 397.125 296.003906 397.054688 C 294.632812 396.988281 293.261719 396.886719 291.890625 396.753906 C 290.523438 396.617188 289.160156 396.449219 287.800781 396.25 C 286.441406 396.046875 285.085938 395.8125 283.738281 395.542969 C 282.390625 395.273438 281.050781 394.972656 279.714844 394.640625 C 278.382812 394.304688 277.058594 393.941406 275.742188 393.539062 C 274.425781 393.140625 273.121094 392.710938 271.828125 392.246094 C 270.53125 391.785156 269.25 391.289062 267.980469 390.761719 C 266.710938 390.238281 265.453125 389.679688 264.210938 389.09375 C 262.96875 388.503906 261.742188 387.886719 260.527344 387.238281 C 259.316406 386.589844 258.121094 385.914062 256.941406 385.207031 C 255.761719 384.5 254.601562 383.765625 253.457031 383 C 252.316406 382.238281 251.191406 381.445312 250.085938 380.625 C 248.984375 379.808594 247.898438 378.960938 246.835938 378.089844 C 245.773438 377.21875 244.734375 376.320312 243.714844 375.398438 C 242.695312 374.472656 241.699219 373.527344 240.730469 372.554688 C 239.757812 371.582031 238.808594 370.585938 237.886719 369.570312 C 236.960938 368.550781 236.066406 367.507812 235.191406 366.445312 C 234.320312 365.382812 233.476562 364.300781 232.65625 363.195312 C 231.835938 362.09375 231.046875 360.96875 230.28125 359.824219 C 229.519531 358.683594 228.78125 357.519531 228.078125 356.34375 C 227.371094 355.164062 226.691406 353.96875 226.042969 352.753906 C 225.394531 351.542969 224.777344 350.316406 224.191406 349.070312 C 223.601562 347.828125 223.046875 346.574219 222.519531 345.304688 C 221.992188 344.03125 221.5 342.75 221.035156 341.457031 C 220.574219 340.160156 220.140625 338.855469 219.742188 337.542969 C 219.34375 336.226562 218.976562 334.902344 218.644531 333.566406 C 218.308594 332.234375 218.007812 330.894531 217.738281 329.546875 C 217.472656 328.195312 217.238281 326.84375 217.035156 325.484375 C 216.832031 324.121094 216.664062 322.757812 216.53125 321.390625 C 216.394531 320.023438 216.292969 318.652344 216.226562 317.277344 C 216.160156 315.90625 216.125 314.53125 216.125 313.15625 C 216.125 311.78125 216.160156 310.410156 216.226562 309.035156 C 216.292969 307.664062 216.394531 306.292969 216.53125 304.925781 C 216.664062 303.554688 216.832031 302.191406 217.035156 300.832031 C 217.238281 299.472656 217.472656 298.117188 217.738281 296.769531 C 218.007812 295.421875 218.308594 294.082031 218.644531 292.746094 C 218.976562 291.414062 219.34375 290.089844 219.742188 288.773438 C 220.140625 287.457031 220.574219 286.152344 221.035156 284.859375 C 221.5 283.5625 221.992188 282.28125 222.519531 281.011719 C 223.046875 279.742188 223.601562 278.484375 224.191406 277.242188 C 224.777344 276 225.394531 274.773438 226.042969 273.558594 C 226.691406 272.347656 227.371094 271.152344 228.078125 269.972656 C 228.78125 268.792969 229.519531 267.632812 230.28125 266.488281 C 231.046875 265.347656 231.835938 264.222656 232.65625 263.117188 C 233.476562 262.015625 234.320312 260.929688 235.191406 259.867188 C 236.066406 258.804688 236.960938 257.765625 237.886719 256.746094 C 238.808594 255.726562 239.757812 254.734375 240.730469 253.761719 C 241.699219 252.789062 242.695312 251.839844 243.714844 250.917969 C 244.734375 249.996094 245.773438 249.097656 246.835938 248.222656 C 247.898438 247.351562 248.984375 246.507812 250.085938 245.6875 C 251.191406 244.867188 252.316406 244.078125 253.457031 243.3125 C 254.601562 242.550781 255.761719 241.816406 256.941406 241.109375 C 258.121094 240.402344 259.316406 239.722656 260.527344 239.074219 C 261.742188 238.429688 262.96875 237.808594 264.210938 237.222656 C 265.453125 236.632812 266.710938 236.078125 267.980469 235.550781 C 269.25 235.027344 270.53125 234.53125 271.828125 234.066406 C 273.121094 233.605469 274.425781 233.171875 275.742188 232.773438 C 277.058594 232.375 278.382812 232.007812 279.714844 231.675781 C 281.046875 231.339844 282.390625 231.039062 283.738281 230.773438 C 285.085938 230.503906 286.441406 230.269531 287.800781 230.066406 C 289.160156 229.863281 290.523438 229.695312 291.890625 229.5625 C 293.261719 229.425781 294.632812 229.324219 296.003906 229.257812 C 297.378906 229.191406 298.75 229.15625 300.125 229.15625 C 301.5 229.15625 302.875 229.191406 304.246094 229.257812 C 305.621094 229.324219 306.992188 229.425781 308.359375 229.5625 C 309.726562 229.695312 311.089844 229.863281 312.449219 230.066406 C 313.8125 230.269531 315.164062 230.503906 316.511719 230.773438 C 317.863281 231.039062 319.203125 231.339844 320.535156 231.675781 C 321.871094 232.007812 323.195312 232.375 324.507812 232.773438 C 325.824219 233.171875 327.128906 233.605469 328.425781 234.066406 C 329.71875 234.53125 331 235.027344 332.269531 235.550781 C 333.542969 236.078125 334.796875 236.632812 336.039062 237.222656 C 337.28125 237.808594 338.511719 238.429688 339.722656 239.074219 C 340.933594 239.722656 342.132812 240.402344 343.308594 241.109375 C 344.488281 241.816406 345.652344 242.550781 346.792969 243.3125 C 347.9375 244.078125 349.058594 244.867188 350.164062 245.6875 C 351.269531 246.507812 352.351562 247.351562 353.414062 248.222656 C 354.476562 249.097656 355.519531 249.996094 356.535156 250.917969 C 357.554688 251.839844 358.550781 252.789062 359.523438 253.761719 C 360.496094 254.734375 361.441406 255.726562 362.367188 256.746094 C 363.289062 257.765625 364.1875 258.804688 365.058594 259.867188 C 365.929688 260.929688 366.777344 262.015625 367.59375 263.117188 C 368.414062 264.222656 369.207031 265.347656 369.96875 266.488281 C 370.734375 267.632812 371.46875 268.792969 372.175781 269.972656 C 372.882812 271.152344 373.558594 272.347656 374.207031 273.558594 C 374.855469 274.773438 375.472656 276 376.0625 277.242188 C 376.648438 278.484375 377.207031 279.742188 377.730469 281.011719 C 378.257812 282.28125 378.753906 283.5625 379.214844 284.859375 C 379.679688 286.152344 380.109375 287.457031 380.507812 288.773438 C 380.90625 290.089844 381.273438 291.414062 381.609375 292.746094 C 381.941406 294.082031 382.242188 295.421875 382.511719 296.769531 C 382.78125 298.117188 383.015625 299.472656 383.214844 300.832031 C 383.417969 302.191406 383.585938 303.554688 383.722656 304.925781 C 383.855469 306.292969 383.957031 307.664062 384.023438 309.035156 C 384.09375 310.410156 384.125 311.78125 384.125 313.15625 Z M 384.125 313.15625 " fill-opacity="1" fill-rule="nonzero"/></g><path fill="#ffffff" d="M 279.292969 371.082031 L 233.484375 325.277344 L 251.738281 307.027344 L 279.292969 334.578125 L 348.503906 265.363281 L 366.761719 283.609375 Z M 279.292969 371.082031 " fill-opacity="1" fill-rule="nonzero"/><g fill="#000000" fill-opacity="1"><g transform="translate(56.146865, 695.866095)"><g><path d="M 6.390625 -60.265625 L 21.734375 -60.265625 C 30.367188 -60.265625 36.109375 -58.816406 38.953125 -55.921875 C 41.796875 -53.023438 43.21875 -49.523438 43.21875 -45.421875 C 43.21875 -42.691406 42.613281 -40.109375 41.40625 -37.671875 C 40.207031 -35.242188 38.296875 -33.425781 35.671875 -32.21875 C 39.546875 -31.238281 42.398438 -29.519531 44.234375 -27.0625 C 46.066406 -24.601562 46.984375 -21.707031 46.984375 -18.375 C 46.984375 -14.875 46.4375 -11.8125 45.34375 -9.1875 C 44.25 -6.5625 41.976562 -4.375 38.53125 -2.625 C 35.09375 -0.875 30.117188 0 23.609375 0 L 6.390625 0 Z M 23.203125 -34.6875 C 27.085938 -34.6875 29.847656 -35.628906 31.484375 -37.515625 C 33.128906 -39.398438 33.953125 -41.789062 33.953125 -44.6875 C 33.953125 -49.882812 30.234375 -52.484375 22.796875 -52.484375 L 15.421875 -52.484375 L 15.421875 -34.6875 Z M 24.84375 -7.703125 C 29.820312 -7.703125 33.171875 -8.695312 34.890625 -10.6875 C 36.609375 -12.6875 37.46875 -15.21875 37.46875 -18.28125 C 37.46875 -21.175781 36.484375 -23.414062 34.515625 -25 C 32.546875 -26.59375 29.566406 -27.390625 25.578125 -27.390625 L 15.421875 -27.390625 L 15.421875 -7.703125 Z M 24.84375 -7.703125 "/></g></g></g><g fill="#000000" fill-opacity="1"><g transform="translate(107.476372, 695.866095)"><g><path d="M 6.5625 -60.265625 L 15.328125 -60.265625 L 15.328125 0 L 6.5625 0 Z M 6.5625 -60.265625 "/></g></g></g><g fill="#000000" fill-opacity="1"><g transform="translate(129.451305, 695.866095)"><g><path d="M 18.859375 0.8125 C 13.660156 0.8125 10.09375 -0.710938 8.15625 -3.765625 C 6.21875 -6.828125 5.25 -11.09375 5.25 -16.5625 L 5.25 -37.640625 L 14.109375 -37.640625 L 14.109375 -18.78125 C 14.109375 -15.664062 14.285156 -13.242188 14.640625 -11.515625 C 14.992188 -9.796875 15.703125 -8.523438 16.765625 -7.703125 C 17.835938 -6.890625 19.4375 -6.484375 21.5625 -6.484375 C 23.09375 -6.484375 24.566406 -6.921875 25.984375 -7.796875 C 27.410156 -8.671875 28.570312 -9.859375 29.46875 -11.359375 C 30.375 -12.859375 30.828125 -14.507812 30.828125 -16.3125 L 30.828125 -37.640625 L 39.609375 -37.640625 L 39.609375 0 L 32.390625 0 L 31.40625 -5.5 C 30.039062 -3.363281 28.332031 -1.773438 26.28125 -0.734375 C 24.226562 0.296875 21.753906 0.8125 18.859375 0.8125 Z M 18.859375 0.8125 "/></g></g></g><g fill="#000000" fill-opacity="1"><g transform="translate(175.041097, 695.866095)"><g><path d="M 23.609375 0.8125 C 19.128906 0.8125 15.382812 -0.0703125 12.375 -1.84375 C 9.375 -3.625 7.160156 -6.003906 5.734375 -8.984375 C 4.316406 -11.960938 3.609375 -15.226562 3.609375 -18.78125 C 3.609375 -22.769531 4.441406 -26.265625 6.109375 -29.265625 C 7.773438 -32.273438 10.082031 -34.585938 13.03125 -36.203125 C 15.988281 -37.816406 19.328125 -38.625 23.046875 -38.625 C 28.835938 -38.625 33.140625 -37.023438 35.953125 -33.828125 C 38.773438 -30.628906 40.1875 -26.132812 40.1875 -20.34375 C 40.1875 -18.863281 40.101562 -17.332031 39.9375 -15.75 L 12.875 -15.75 C 13.476562 -12.40625 14.664062 -9.992188 16.4375 -8.515625 C 18.21875 -7.046875 20.691406 -6.3125 23.859375 -6.3125 C 26.484375 -6.3125 28.640625 -6.53125 30.328125 -6.96875 C 32.023438 -7.40625 33.585938 -8.007812 35.015625 -8.78125 L 37.71875 -2.453125 C 36.351562 -1.578125 34.492188 -0.8125 32.140625 -0.15625 C 29.796875 0.488281 26.953125 0.8125 23.609375 0.8125 Z M 31.5625 -21.890625 C 31.625 -25.285156 30.890625 -27.675781 29.359375 -29.0625 C 27.828125 -30.457031 25.640625 -31.15625 22.796875 -31.15625 C 17.054688 -31.15625 13.75 -28.066406 12.875 -21.890625 Z M 31.5625 -21.890625 "/></g></g></g><g fill="#000000" fill-opacity="1"><g transform="translate(218.662974, 695.866095)"><g/></g></g><g fill="#000000" fill-opacity="1"><g transform="translate(238.752001, 695.866095)"><g><path d="M 17.875 -52.234375 L 2.453125 -52.234375 L 2.453125 -60.265625 L 42.5625 -60.265625 L 42.5625 -52.234375 L 26.984375 -52.234375 L 26.984375 0 L 17.875 0 Z M 17.875 -52.234375 "/></g></g></g><g fill="#000000" fill-opacity="1"><g transform="translate(283.767826, 695.866095)"><g><path d="M 23.609375 0.8125 C 19.128906 0.8125 15.382812 -0.0703125 12.375 -1.84375 C 9.375 -3.625 7.160156 -6.003906 5.734375 -8.984375 C 4.316406 -11.960938 3.609375 -15.226562 3.609375 -18.78125 C 3.609375 -22.769531 4.441406 -26.265625 6.109375 -29.265625 C 7.773438 -32.273438 10.082031 -34.585938 13.03125 -36.203125 C 15.988281 -37.816406 19.328125 -38.625 23.046875 -38.625 C 28.835938 -38.625 33.140625 -37.023438 35.953125 -33.828125 C 38.773438 -30.628906 40.1875 -26.132812 40.1875 -20.34375 C 40.1875 -18.863281 40.101562 -17.332031 39.9375 -15.75 L 12.875 -15.75 C 13.476562 -12.40625 14.664062 -9.992188 16.4375 -8.515625 C 18.21875 -7.046875 20.691406 -6.3125 23.859375 -6.3125 C 26.484375 -6.3125 28.640625 -6.53125 30.328125 -6.96875 C 32.023438 -7.40625 33.585938 -8.007812 35.015625 -8.78125 L 37.71875 -2.453125 C 36.351562 -1.578125 34.492188 -0.8125 32.140625 -0.15625 C 29.796875 0.488281 26.953125 0.8125 23.609375 0.8125 Z M 31.5625 -21.890625 C 31.625 -25.285156 30.890625 -27.675781 29.359375 -29.0625 C 27.828125 -30.457031 25.640625 -31.15625 22.796875 -31.15625 C 17.054688 -31.15625 13.75 -28.066406 12.875 -21.890625 Z M 31.5625 -21.890625 "/></g></g></g><g fill="#000000" fill-opacity="1"><g transform="translate(327.389704, 695.866095)"><g><path d="M 22.46875 0.8125 C 19.082031 0.8125 15.953125 0.0078125 13.078125 -1.59375 C 10.210938 -3.207031 7.914062 -5.503906 6.1875 -8.484375 C 4.46875 -11.460938 3.609375 -14.945312 3.609375 -18.9375 C 3.609375 -22.875 4.359375 -26.316406 5.859375 -29.265625 C 7.367188 -32.222656 9.515625 -34.519531 12.296875 -36.15625 C 15.085938 -37.800781 18.367188 -38.625 22.140625 -38.625 C 24.328125 -38.625 26.375 -38.238281 28.28125 -37.46875 C 30.195312 -36.707031 31.8125 -35.765625 33.125 -34.640625 C 34.4375 -33.523438 35.3125 -32.421875 35.75 -31.328125 L 35.921875 -37.640625 L 44.359375 -37.640625 L 44.359375 0 L 36 0 L 35.828125 -6.640625 C 34.898438 -4.671875 33.207031 -2.9375 30.75 -1.4375 C 28.289062 0.0625 25.53125 0.8125 22.46875 0.8125 Z M 23.9375 -6.5625 C 27.0625 -6.5625 29.6875 -7.640625 31.8125 -9.796875 C 33.945312 -11.953125 35.015625 -14.78125 35.015625 -18.28125 L 35.015625 -18.859375 C 35.015625 -21.210938 34.519531 -23.316406 33.53125 -25.171875 C 32.550781 -27.035156 31.210938 -28.484375 29.515625 -29.515625 C 27.828125 -30.554688 25.96875 -31.078125 23.9375 -31.078125 C 20.445312 -31.078125 17.742188 -29.941406 15.828125 -27.671875 C 13.910156 -25.398438 12.953125 -22.460938 12.953125 -18.859375 C 12.953125 -15.191406 13.894531 -12.222656 15.78125 -9.953125 C 17.664062 -7.691406 20.382812 -6.5625 23.9375 -6.5625 Z M 23.9375 -6.5625 "/></g></g></g><g fill="#000000" fill-opacity="1"><g transform="translate(377.817246, 695.866095)"><g><path d="M 5.828125 -37.640625 L 14.671875 -37.640625 L 14.671875 -30.828125 C 15.878906 -33.398438 17.644531 -35.34375 19.96875 -36.65625 C 22.289062 -37.96875 24.957031 -38.625 27.96875 -38.625 C 34.6875 -38.570312 38.8125 -36.25 40.34375 -31.65625 C 41.539062 -33.78125 43.34375 -35.472656 45.75 -36.734375 C 48.15625 -37.992188 50.695312 -38.625 53.375 -38.625 C 57.3125 -38.625 60.289062 -37.867188 62.3125 -36.359375 C 64.34375 -34.859375 65.695312 -32.726562 66.375 -29.96875 C 67.0625 -27.207031 67.40625 -23.503906 67.40625 -18.859375 L 67.40625 0 L 58.46875 0 L 58.46875 -18.9375 C 58.46875 -23.363281 58.015625 -26.535156 57.109375 -28.453125 C 56.210938 -30.367188 54.476562 -31.328125 51.90625 -31.328125 C 48.457031 -31.328125 45.84375 -30.164062 44.0625 -27.84375 C 42.289062 -25.519531 41.40625 -22.472656 41.40625 -18.703125 L 41.40625 0 L 32.546875 0 L 32.546875 -20.25 C 32.546875 -23.144531 32.4375 -25.300781 32.21875 -26.71875 C 32 -28.144531 31.398438 -29.269531 30.421875 -30.09375 C 29.441406 -30.914062 27.859375 -31.328125 25.671875 -31.328125 C 23.753906 -31.328125 21.960938 -30.75 20.296875 -29.59375 C 18.628906 -28.445312 17.289062 -26.90625 16.28125 -24.96875 C 15.269531 -23.03125 14.765625 -20.941406 14.765625 -18.703125 L 14.765625 0 L 5.828125 0 Z M 5.828125 -37.640625 "/></g></g></g><g fill="#000000" fill-opacity="1"><g transform="translate(450.711713, 695.866095)"><g><path d="M 23.609375 0.8125 C 19.128906 0.8125 15.382812 -0.0703125 12.375 -1.84375 C 9.375 -3.625 7.160156 -6.003906 5.734375 -8.984375 C 4.316406 -11.960938 3.609375 -15.226562 3.609375 -18.78125 C 3.609375 -22.769531 4.441406 -26.265625 6.109375 -29.265625 C 7.773438 -32.273438 10.082031 -34.585938 13.03125 -36.203125 C 15.988281 -37.816406 19.328125 -38.625 23.046875 -38.625 C 28.835938 -38.625 33.140625 -37.023438 35.953125 -33.828125 C 38.773438 -30.628906 40.1875 -26.132812 40.1875 -20.34375 C 40.1875 -18.863281 40.101562 -17.332031 39.9375 -15.75 L 12.875 -15.75 C 13.476562 -12.40625 14.664062 -9.992188 16.4375 -8.515625 C 18.21875 -7.046875 20.691406 -6.3125 23.859375 -6.3125 C 26.484375 -6.3125 28.640625 -6.53125 30.328125 -6.96875 C 32.023438 -7.40625 33.585938 -8.007812 35.015625 -8.78125 L 37.71875 -2.453125 C 36.351562 -1.578125 34.492188 -0.8125 32.140625 -0.15625 C 29.796875 0.488281 26.953125 0.8125 23.609375 0.8125 Z M 31.5625 -21.890625 C 31.625 -25.285156 30.890625 -27.675781 29.359375 -29.0625 C 27.828125 -30.457031 25.640625 -31.15625 22.796875 -31.15625 C 17.054688 -31.15625 13.75 -28.066406 12.875 -21.890625 Z M 31.5625 -21.890625 "/></g></g></g><g fill="#000000" fill-opacity="1"><g transform="translate(494.333614, 695.866095)"><g><path d="M 5.578125 -37.640625 L 14.4375 -37.640625 L 14.4375 -30.265625 C 15.3125 -32.773438 16.726562 -34.796875 18.6875 -36.328125 C 20.65625 -37.859375 22.898438 -38.625 25.421875 -38.625 C 27.171875 -38.625 28.375 -38.457031 29.03125 -38.125 L 27.796875 -29.1875 C 27.304688 -29.519531 26.238281 -29.6875 24.59375 -29.6875 C 22.03125 -29.6875 19.695312 -28.863281 17.59375 -27.21875 C 15.488281 -25.582031 14.4375 -22.960938 14.4375 -19.359375 L 14.4375 0 L 5.578125 0 Z M 5.578125 -37.640625 "/></g></g></g><g fill="#000000" fill-opacity="1"><g transform="translate(523.76013, 695.866095)"><g/></g></g></svg>