<svg xmlns="http://www.w3.org/2000/svg" xmlns:xlink="http://www.w3.org/1999/xlink" width="800" zoomAndPan="magnify" viewBox="0 0 600 729" height="972" preserveAspectRatio="xMidYMid meet" version="1.0"><defs><g/><clipPath id="de96531966"><path d="M 56.128906 42.527344 L 543.628906 42.527344 L 543.628906 590.777344 L 56.128906 590.777344 Z M 56.128906 42.527344 " clip-rule="nonzero"/></clipPath><clipPath id="e4ad059b25"><path d="M 94 42.527344 L 543.628906 42.527344 L 543.628906 590.777344 L 94 590.777344 Z M 94 42.527344 " clip-rule="nonzero"/></clipPath><clipPath id="ef1e3366b9"><path d="M 200 159.082031 L 399 159.082031 L 399 450.832031 L 200 450.832031 Z M 200 159.082031 " clip-rule="nonzero"/></clipPath></defs><g clip-path="url(#de96531966)"><path fill="#ff1616" d="M 299.878906 42.640625 C 219.796875 81.785156 129.746094 113.542969 56.125 114.0625 C 101.34375 393.957031 127.289062 502.121094 299.878906 590.660156 C 472.472656 502.121094 498.417969 393.957031 543.636719 114.0625 C 470.015625 113.539062 379.960938 81.785156 299.878906 42.640625 Z M 299.878906 42.640625 " fill-opacity="1" fill-rule="evenodd"/></g><g clip-path="url(#e4ad059b25)"><path fill="#000000" d="M 299.878906 42.640625 L 299.878906 316.652344 L 505.40625 316.652344 C 519.1875 260.914062 530.621094 194.628906 543.636719 114.0625 C 470.015625 113.539062 379.960938 81.789062 299.878906 42.640625 Z M 299.878906 316.652344 L 94.355469 316.652344 C 128.445312 454.546875 176.96875 527.609375 299.878906 590.660156 Z M 299.878906 316.652344 " fill-opacity="0.3137" fill-rule="evenodd"/></g><g clip-path="url(#ef1e3366b9)"><path fill="#890b0b" d="M 384.746094 302.164062 L 372.105469 280.289062 C 373.261719 286.964844 373.980469 293.605469 374.25 300.183594 C 375.296875 325.574219 369.769531 349.667969 357.828125 371.789062 C 343.527344 398.265625 320.265625 421.058594 290.566406 437.699219 C 290.503906 437.730469 290.441406 437.765625 290.382812 437.800781 C 284.382812 441.144531 286.398438 450.265625 293.257812 450.660156 C 294.085938 450.710938 294.914062 450.746094 295.742188 450.773438 C 296.28125 450.792969 296.816406 450.804688 297.355469 450.8125 C 298.34375 450.824219 299.320312 450.824219 300.316406 450.8125 C 300.851562 450.804688 301.386719 450.792969 301.921875 450.773438 C 335.054688 449.699219 366.890625 432.054688 384.6875 401.257812 L 386.339844 398.394531 C 401.90625 369.207031 402.5 332.914062 384.746094 302.164062 Z M 343.570312 247.585938 L 330.074219 218.507812 C 331.589844 230.660156 330.570312 242.71875 327.042969 254.878906 C 321.183594 275.074219 309.546875 292.351562 298.289062 309.058594 C 290.976562 319.917969 284.15625 330.050781 279.574219 339.996094 C 263.699219 374.472656 309.890625 402.890625 333.710938 373.335938 C 335.894531 370.628906 337.945312 367.835938 339.851562 364.957031 C 361.714844 331.914062 362.988281 291.367188 343.570312 247.585938 Z M 248.835938 437.289062 C 240.535156 431.816406 221.925781 416.738281 212.988281 401.257812 L 211.25 398.253906 C 199.722656 376.558594 197.746094 343.738281 203.84375 321.074219 C 205.9375 313.28125 209.363281 306.988281 212.933594 302.164062 C 298.835938 186.074219 295.605469 159.085938 295.605469 159.085938 C 327.742188 214.109375 304.308594 256.691406 281.640625 297.890625 C 269.242188 320.421875 257.523438 341.707031 256.320312 363.511719 C 255.65625 375.574219 258.234375 386.660156 264.207031 397.382812 C 265.394531 399.515625 266.546875 401.746094 268.15625 403.710938 C 288.523438 428.605469 254.902344 441.289062 248.835938 437.289062 " fill-opacity="1" fill-rule="nonzero"/></g><g fill="#000000" fill-opacity="1"><g transform="translate(65.414059, 695.866095)"><g><path d="M 36.484375 0 L 24.359375 -22.796875 C 21.835938 -22.679688 19.59375 -22.625 17.625 -22.625 L 15.328125 -22.625 L 15.328125 0 L 6.390625 0 L 6.390625 -60.265625 L 20.09375 -60.265625 C 27.03125 -60.265625 32.738281 -58.828125 37.21875 -55.953125 C 41.707031 -53.085938 43.953125 -48.429688 43.953125 -41.984375 C 43.953125 -37.941406 43.007812 -34.457031 41.125 -31.53125 C 39.238281 -28.601562 36.4375 -26.347656 32.71875 -24.765625 L 47.0625 0 Z M 21.15625 -30.09375 C 26.507812 -30.09375 30.179688 -31.253906 32.171875 -33.578125 C 34.171875 -35.898438 35.171875 -38.675781 35.171875 -41.90625 C 35.171875 -49.0625 30.390625 -52.640625 20.828125 -52.640625 L 15.328125 -52.640625 L 15.328125 -30.09375 Z M 21.15625 -30.09375 "/></g></g></g><g fill="#000000" fill-opacity="1"><g transform="translate(115.431627, 695.866095)"><g><path d="M 23.609375 0.8125 C 19.128906 0.8125 15.382812 -0.0703125 12.375 -1.84375 C 9.375 -3.625 7.160156 -6.003906 5.734375 -8.984375 C 4.316406 -11.960938 3.609375 -15.226562 3.609375 -18.78125 C 3.609375 -22.769531 4.441406 -26.265625 6.109375 -29.265625 C 7.773438 -32.273438 10.082031 -34.585938 13.03125 -36.203125 C 15.988281 -37.816406 19.328125 -38.625 23.046875 -38.625 C 28.835938 -38.625 33.140625 -37.023438 35.953125 -33.828125 C 38.773438 -30.628906 40.1875 -26.132812 40.1875 -20.34375 C 40.1875 -18.863281 40.101562 -17.332031 39.9375 -15.75 L 12.875 -15.75 C 13.476562 -12.40625 14.664062 -9.992188 16.4375 -8.515625 C 18.21875 -7.046875 20.691406 -6.3125 23.859375 -6.3125 C 26.484375 -6.3125 28.640625 -6.53125 30.328125 -6.96875 C 32.023438 -7.40625 33.585938 -8.007812 35.015625 -8.78125 L 37.71875 -2.453125 C 36.351562 -1.578125 34.492188 -0.8125 32.140625 -0.15625 C 29.796875 0.488281 26.953125 0.8125 23.609375 0.8125 Z M 31.5625 -21.890625 C 31.625 -25.285156 30.890625 -27.675781 29.359375 -29.0625 C 27.828125 -30.457031 25.640625 -31.15625 22.796875 -31.15625 C 17.054688 -31.15625 13.75 -28.066406 12.875 -21.890625 Z M 31.5625 -21.890625 "/></g></g></g><g fill="#000000" fill-opacity="1"><g transform="translate(159.053505, 695.866095)"><g><path d="M 22.46875 0.8125 C 19.082031 0.8125 15.953125 0.0078125 13.078125 -1.59375 C 10.210938 -3.207031 7.914062 -5.503906 6.1875 -8.484375 C 4.46875 -11.460938 3.609375 -14.945312 3.609375 -18.9375 C 3.609375 -24.894531 5.273438 -29.664062 8.609375 -33.25 C 11.941406 -36.832031 16.453125 -38.625 22.140625 -38.625 C 25.304688 -38.625 28.203125 -37.84375 30.828125 -36.28125 C 33.453125 -34.726562 35.226562 -32.859375 36.15625 -30.671875 L 35.75 -37.0625 L 35.75 -60.265625 L 44.4375 -60.265625 L 44.4375 0 L 36 0 L 35.828125 -6.640625 C 34.898438 -4.671875 33.207031 -2.9375 30.75 -1.4375 C 28.289062 0.0625 25.53125 0.8125 22.46875 0.8125 Z M 23.9375 -6.640625 C 27.0625 -6.640625 29.6875 -7.71875 31.8125 -9.875 C 33.945312 -12.039062 35.015625 -14.875 35.015625 -18.375 L 35.015625 -18.9375 C 35.015625 -21.289062 34.519531 -23.394531 33.53125 -25.25 C 32.550781 -27.113281 31.210938 -28.5625 29.515625 -29.59375 C 27.828125 -30.632812 25.96875 -31.15625 23.9375 -31.15625 C 20.445312 -31.15625 17.742188 -30.019531 15.828125 -27.75 C 13.910156 -25.488281 12.953125 -22.550781 12.953125 -18.9375 C 12.953125 -15.28125 13.894531 -12.316406 15.78125 -10.046875 C 17.664062 -7.773438 20.382812 -6.640625 23.9375 -6.640625 Z M 23.9375 -6.640625 "/></g></g></g><g fill="#000000" fill-opacity="1"><g transform="translate(209.399061, 695.866095)"><g/></g></g><g fill="#000000" fill-opacity="1"><g transform="translate(229.488088, 695.866095)"><g><path d="M 17.875 -52.234375 L 2.453125 -52.234375 L 2.453125 -60.265625 L 42.5625 -60.265625 L 42.5625 -52.234375 L 26.984375 -52.234375 L 26.984375 0 L 17.875 0 Z M 17.875 -52.234375 "/></g></g></g><g fill="#000000" fill-opacity="1"><g transform="translate(274.503902, 695.866095)"><g><path d="M 23.609375 0.8125 C 19.128906 0.8125 15.382812 -0.0703125 12.375 -1.84375 C 9.375 -3.625 7.160156 -6.003906 5.734375 -8.984375 C 4.316406 -11.960938 3.609375 -15.226562 3.609375 -18.78125 C 3.609375 -22.769531 4.441406 -26.265625 6.109375 -29.265625 C 7.773438 -32.273438 10.082031 -34.585938 13.03125 -36.203125 C 15.988281 -37.816406 19.328125 -38.625 23.046875 -38.625 C 28.835938 -38.625 33.140625 -37.023438 35.953125 -33.828125 C 38.773438 -30.628906 40.1875 -26.132812 40.1875 -20.34375 C 40.1875 -18.863281 40.101562 -17.332031 39.9375 -15.75 L 12.875 -15.75 C 13.476562 -12.40625 14.664062 -9.992188 16.4375 -8.515625 C 18.21875 -7.046875 20.691406 -6.3125 23.859375 -6.3125 C 26.484375 -6.3125 28.640625 -6.53125 30.328125 -6.96875 C 32.023438 -7.40625 33.585938 -8.007812 35.015625 -8.78125 L 37.71875 -2.453125 C 36.351562 -1.578125 34.492188 -0.8125 32.140625 -0.15625 C 29.796875 0.488281 26.953125 0.8125 23.609375 0.8125 Z M 31.5625 -21.890625 C 31.625 -25.285156 30.890625 -27.675781 29.359375 -29.0625 C 27.828125 -30.457031 25.640625 -31.15625 22.796875 -31.15625 C 17.054688 -31.15625 13.75 -28.066406 12.875 -21.890625 Z M 31.5625 -21.890625 "/></g></g></g><g fill="#000000" fill-opacity="1"><g transform="translate(318.12578, 695.866095)"><g><path d="M 22.46875 0.8125 C 19.082031 0.8125 15.953125 0.0078125 13.078125 -1.59375 C 10.210938 -3.207031 7.914062 -5.503906 6.1875 -8.484375 C 4.46875 -11.460938 3.609375 -14.945312 3.609375 -18.9375 C 3.609375 -22.875 4.359375 -26.316406 5.859375 -29.265625 C 7.367188 -32.222656 9.515625 -34.519531 12.296875 -36.15625 C 15.085938 -37.800781 18.367188 -38.625 22.140625 -38.625 C 24.328125 -38.625 26.375 -38.238281 28.28125 -37.46875 C 30.195312 -36.707031 31.8125 -35.765625 33.125 -34.640625 C 34.4375 -33.523438 35.3125 -32.421875 35.75 -31.328125 L 35.921875 -37.640625 L 44.359375 -37.640625 L 44.359375 0 L 36 0 L 35.828125 -6.640625 C 34.898438 -4.671875 33.207031 -2.9375 30.75 -1.4375 C 28.289062 0.0625 25.53125 0.8125 22.46875 0.8125 Z M 23.9375 -6.5625 C 27.0625 -6.5625 29.6875 -7.640625 31.8125 -9.796875 C 33.945312 -11.953125 35.015625 -14.78125 35.015625 -18.28125 L 35.015625 -18.859375 C 35.015625 -21.210938 34.519531 -23.316406 33.53125 -25.171875 C 32.550781 -27.035156 31.210938 -28.484375 29.515625 -29.515625 C 27.828125 -30.554688 25.96875 -31.078125 23.9375 -31.078125 C 20.445312 -31.078125 17.742188 -29.941406 15.828125 -27.671875 C 13.910156 -25.398438 12.953125 -22.460938 12.953125 -18.859375 C 12.953125 -15.191406 13.894531 -12.222656 15.78125 -9.953125 C 17.664062 -7.691406 20.382812 -6.5625 23.9375 -6.5625 Z M 23.9375 -6.5625 "/></g></g></g><g fill="#000000" fill-opacity="1"><g transform="translate(368.553344, 695.866095)"><g><path d="M 5.828125 -37.640625 L 14.671875 -37.640625 L 14.671875 -30.828125 C 15.878906 -33.398438 17.644531 -35.34375 19.96875 -36.65625 C 22.289062 -37.96875 24.957031 -38.625 27.96875 -38.625 C 34.6875 -38.570312 38.8125 -36.25 40.34375 -31.65625 C 41.539062 -33.78125 43.34375 -35.472656 45.75 -36.734375 C 48.15625 -37.992188 50.695312 -38.625 53.375 -38.625 C 57.3125 -38.625 60.289062 -37.867188 62.3125 -36.359375 C 64.34375 -34.859375 65.695312 -32.726562 66.375 -29.96875 C 67.0625 -27.207031 67.40625 -23.503906 67.40625 -18.859375 L 67.40625 0 L 58.46875 0 L 58.46875 -18.9375 C 58.46875 -23.363281 58.015625 -26.535156 57.109375 -28.453125 C 56.210938 -30.367188 54.476562 -31.328125 51.90625 -31.328125 C 48.457031 -31.328125 45.84375 -30.164062 44.0625 -27.84375 C 42.289062 -25.519531 41.40625 -22.472656 41.40625 -18.703125 L 41.40625 0 L 32.546875 0 L 32.546875 -20.25 C 32.546875 -23.144531 32.4375 -25.300781 32.21875 -26.71875 C 32 -28.144531 31.398438 -29.269531 30.421875 -30.09375 C 29.441406 -30.914062 27.859375 -31.328125 25.671875 -31.328125 C 23.753906 -31.328125 21.960938 -30.75 20.296875 -29.59375 C 18.628906 -28.445312 17.289062 -26.90625 16.28125 -24.96875 C 15.269531 -23.03125 14.765625 -20.941406 14.765625 -18.703125 L 14.765625 0 L 5.828125 0 Z M 5.828125 -37.640625 "/></g></g></g><g fill="#000000" fill-opacity="1"><g transform="translate(441.447811, 695.866095)"><g><path d="M 23.609375 0.8125 C 19.128906 0.8125 15.382812 -0.0703125 12.375 -1.84375 C 9.375 -3.625 7.160156 -6.003906 5.734375 -8.984375 C 4.316406 -11.960938 3.609375 -15.226562 3.609375 -18.78125 C 3.609375 -22.769531 4.441406 -26.265625 6.109375 -29.265625 C 7.773438 -32.273438 10.082031 -34.585938 13.03125 -36.203125 C 15.988281 -37.816406 19.328125 -38.625 23.046875 -38.625 C 28.835938 -38.625 33.140625 -37.023438 35.953125 -33.828125 C 38.773438 -30.628906 40.1875 -26.132812 40.1875 -20.34375 C 40.1875 -18.863281 40.101562 -17.332031 39.9375 -15.75 L 12.875 -15.75 C 13.476562 -12.40625 14.664062 -9.992188 16.4375 -8.515625 C 18.21875 -7.046875 20.691406 -6.3125 23.859375 -6.3125 C 26.484375 -6.3125 28.640625 -6.53125 30.328125 -6.96875 C 32.023438 -7.40625 33.585938 -8.007812 35.015625 -8.78125 L 37.71875 -2.453125 C 36.351562 -1.578125 34.492188 -0.8125 32.140625 -0.15625 C 29.796875 0.488281 26.953125 0.8125 23.609375 0.8125 Z M 31.5625 -21.890625 C 31.625 -25.285156 30.890625 -27.675781 29.359375 -29.0625 C 27.828125 -30.457031 25.640625 -31.15625 22.796875 -31.15625 C 17.054688 -31.15625 13.75 -28.066406 12.875 -21.890625 Z M 31.5625 -21.890625 "/></g></g></g><g fill="#000000" fill-opacity="1"><g transform="translate(485.069712, 695.866095)"><g><path d="M 5.578125 -37.640625 L 14.4375 -37.640625 L 14.4375 -30.265625 C 15.3125 -32.773438 16.726562 -34.796875 18.6875 -36.328125 C 20.65625 -37.859375 22.898438 -38.625 25.421875 -38.625 C 27.171875 -38.625 28.375 -38.457031 29.03125 -38.125 L 27.796875 -29.1875 C 27.304688 -29.519531 26.238281 -29.6875 24.59375 -29.6875 C 22.03125 -29.6875 19.695312 -28.863281 17.59375 -27.21875 C 15.488281 -25.582031 14.4375 -22.960938 14.4375 -19.359375 L 14.4375 0 L 5.578125 0 Z M 5.578125 -37.640625 "/></g></g></g><g fill="#000000" fill-opacity="1"><g transform="translate(514.499978, 695.866095)"><g/></g></g></svg>