<svg xmlns="http://www.w3.org/2000/svg" xmlns:xlink="http://www.w3.org/1999/xlink" width="1000" zoomAndPan="magnify" viewBox="0 0 750 1110.749945" height="1481" preserveAspectRatio="xMidYMid meet" version="1.0"><defs><g/><clipPath id="490222e8ad"><path d="M 76 101.679688 L 660 101.679688 L 660 649.054688 L 76 649.054688 Z M 76 101.679688 " clip-rule="nonzero"/></clipPath></defs><g clip-path="url(#490222e8ad)"><path fill="#353970" d="M 656.382812 569.136719 C 653.878906 558.515625 650.113281 548.050781 644.402344 538.5625 C 633.046875 519.457031 615.738281 504.875 597.554688 493.089844 C 579.1875 481.347656 559.542969 471.925781 539.441406 464.171875 C 500.949219 449.300781 502.8125 449.796875 476.832031 440.53125 C 419.269531 420.015625 387.304688 389.519531 385.296875 356.441406 C 384.335938 340.425781 399.976562 288.230469 464.476562 300.636719 C 479.792969 303.582031 494.289062 307.714844 508.5625 314.152344 C 521.714844 320.09375 560.101562 338.707031 573.554688 365.199219 C 574.570312 376.890625 578.691406 381.414062 595.140625 389.179688 C 607.511719 395.019531 620 401.367188 621.121094 415.753906 C 621.1875 416.539062 621.785156 417.175781 622.828125 417.332031 C 623.507812 417.332031 624.132812 416.929688 624.40625 416.277344 C 626.777344 410.554688 636.332031 403.386719 643.449219 405.34375 C 644.273438 405.550781 645.003906 405.226562 645.378906 404.546875 C 645.769531 403.871094 645.640625 403.035156 645.105469 402.488281 L 633.855469 391.359375 C 629.804688 387.316406 625.371094 381.960938 621.617188 375.078125 C 620.601562 373.230469 619.726562 371.40625 618.957031 369.644531 C 618.460938 368.421875 617.964844 367.207031 617.472656 365.984375 C 608.035156 341.285156 590.449219 314.828125 572.304688 297.691406 C 562.449219 288.214844 551.605469 279.875 540.042969 272.757812 C 528.425781 265.746094 516.332031 259.519531 503.113281 255.789062 L 502.148438 259.128906 C 514.492188 263.390625 526.042969 270.191406 536.847656 277.621094 C 547.640625 285.167969 557.613281 293.820312 566.476562 303.414062 C 579.132812 316.863281 589.105469 332.476562 596.222656 349.183594 L 570.246094 316.902344 L 570.960938 328.082031 L 549.675781 304.089844 L 550.992188 315.324219 L 530.316406 298.65625 L 532.089844 306.265625 C 527.4375 303.191406 486.140625 286.769531 465.53125 279.027344 C 444.921875 271.285156 404.199219 233.101562 415.945312 184.773438 C 415.945312 184.773438 396.691406 177.292969 382.898438 172.199219 C 369.304688 167.296875 355.65625 162.855469 341.96875 158.566406 C 314.59375 149.992188 287.0625 142.171875 259.390625 134.871094 C 231.714844 127.613281 203.859375 121.03125 175.847656 115.21875 C 147.820312 109.472656 119.636719 104.351562 91.117188 101.496094 L 90.609375 105.835938 C 118.671875 110.148438 146.375 116.691406 173.863281 123.847656 C 201.34375 131.082031 228.640625 139.042969 255.714844 147.683594 C 282.777344 156.351562 309.667969 165.539062 336.234375 175.417969 C 349.503906 180.355469 362.734375 185.441406 375.691406 190.902344 C 378.441406 192.046875 381.246094 193.246094 384.046875 194.445312 C 368.09375 191.304688 352.136719 188.816406 336.167969 186.742188 C 307.347656 183.082031 278.5 180.773438 249.625 179.472656 C 220.765625 178.167969 191.878906 177.960938 163.046875 179.027344 C 134.222656 180.148438 105.390625 182.402344 76.945312 187.277344 L 77.507812 191.238281 C 105.925781 188.320312 134.539062 188.035156 163.058594 188.855469 C 191.59375 189.726562 220.074219 191.863281 248.402344 195.070312 C 276.714844 198.277344 304.910156 202.460938 332.726562 207.921875 C 349.882812 211.324219 366.933594 215.273438 383.605469 219.925781 C 370.425781 218.609375 357.3125 218.269531 344.316406 218.425781 C 318.542969 218.816406 293.136719 221.644531 268.085938 225.90625 C 243.03125 230.207031 218.316406 235.980469 194.109375 243.449219 C 169.980469 250.996094 146.125 259.960938 124.226562 272.757812 L 125.738281 275.46875 C 148.160156 264.679688 172.25 257.773438 196.46875 252.285156 C 220.742188 246.890625 245.363281 243.1875 270.039062 240.972656 C 294.691406 238.78125 319.46875 238.054688 343.859375 239.65625 C 365.550781 241.089844 387.097656 244.386719 406.820312 250.722656 C 407.667969 256.519531 411.589844 268.261719 413.480469 274.128906 C 358.015625 299.632812 350.988281 345.507812 355.527344 370.113281 C 360.855469 398.96875 381.738281 420.96875 406.414062 435.214844 C 426.84375 446.824219 447.710938 454.226562 468.019531 461.890625 C 488.292969 469.488281 508.367188 476.789062 526.25 486.886719 C 543.875 496.625 558.527344 511.664062 570.453125 528.722656 C 594.398438 563.105469 603.980469 606.449219 606.847656 649.210938 L 611.605469 649.082031 C 611.710938 605.773438 605.480469 560.433594 582.25 521.203125 C 574.585938 508.351562 565.121094 496.167969 553.949219 485.585938 C 566.882812 490.589844 579.511719 496.246094 591.582031 502.957031 C 609.480469 513.109375 626.347656 525.75 637.832031 542.71875 C 643.621094 551.152344 647.675781 560.640625 650.648438 570.519531 C 653.28125 580.515625 654.492188 590.914062 654.933594 601.421875 L 659.003906 601.421875 C 659.144531 590.695312 658.546875 579.851562 656.382812 569.136719 Z M 656.382812 569.136719 " fill-opacity="1" fill-rule="nonzero"/></g><g fill="#000000" fill-opacity="1"><g transform="translate(101.264745, 810.156178)"><g><path d="M 15.65625 0.40625 C 13.1875 0.40625 10.988281 -0.125 9.0625 -1.1875 C 7.132812 -2.257812 5.613281 -3.890625 4.5 -6.078125 C 3.394531 -8.273438 2.84375 -11.003906 2.84375 -14.265625 C 2.84375 -17.535156 3.394531 -20.265625 4.5 -22.453125 C 5.613281 -24.648438 7.132812 -26.28125 9.0625 -27.34375 C 10.988281 -28.414062 13.1875 -28.953125 15.65625 -28.953125 C 18.132812 -28.953125 20.332031 -28.414062 22.25 -27.34375 C 24.175781 -26.28125 25.691406 -24.648438 26.796875 -22.453125 C 27.910156 -20.265625 28.46875 -17.535156 28.46875 -14.265625 C 28.46875 -11.003906 27.910156 -8.273438 26.796875 -6.078125 C 25.691406 -3.890625 24.175781 -2.257812 22.25 -1.1875 C 20.332031 -0.125 18.132812 0.40625 15.65625 0.40625 Z M 15.65625 -2.6875 C 18.625 -2.6875 20.898438 -3.613281 22.484375 -5.46875 C 24.078125 -7.332031 24.875 -10.265625 24.875 -14.265625 C 24.875 -18.273438 24.078125 -21.207031 22.484375 -23.0625 C 20.898438 -24.914062 18.625 -25.84375 15.65625 -25.84375 C 9.507812 -25.84375 6.4375 -21.984375 6.4375 -14.265625 C 6.4375 -6.546875 9.507812 -2.6875 15.65625 -2.6875 Z M 15.65625 -2.6875 "/></g></g></g><g fill="#000000" fill-opacity="1"><g transform="translate(132.573583, 810.156178)"><g><path d="M 3.75 0 L 3.75 -21.53125 L 6.78125 -21.53125 L 6.78125 -18.15625 L 7.1875 -18.0625 C 7.90625 -19.320312 8.816406 -20.28125 9.921875 -20.9375 C 11.035156 -21.601562 12.394531 -21.9375 14 -21.9375 C 16.59375 -21.9375 18.46875 -21.273438 19.625 -19.953125 C 20.789062 -18.640625 21.375 -16.609375 21.375 -13.859375 L 21.375 0 L 18.203125 0 L 18.203125 -13.78125 C 18.203125 -15.082031 18.035156 -16.125 17.703125 -16.90625 C 17.367188 -17.695312 16.851562 -18.269531 16.15625 -18.625 C 15.457031 -18.988281 14.539062 -19.171875 13.40625 -19.171875 C 11.46875 -19.171875 9.90625 -18.53125 8.71875 -17.25 C 7.53125 -15.96875 6.9375 -13.898438 6.9375 -11.046875 L 6.9375 0 Z M 3.75 0 "/></g></g></g><g fill="#000000" fill-opacity="1"><g transform="translate(157.363, 810.156178)"><g><path d="M 20.515625 -10.03125 L 5.71875 -10 C 5.820312 -7.394531 6.457031 -5.484375 7.625 -4.265625 C 8.789062 -3.046875 10.378906 -2.4375 12.390625 -2.4375 C 13.929688 -2.4375 15.171875 -2.707031 16.109375 -3.25 C 17.046875 -3.800781 17.78125 -4.664062 18.3125 -5.84375 L 18.71875 -5.84375 L 20.796875 -4.609375 C 20.171875 -3.046875 19.171875 -1.816406 17.796875 -0.921875 C 16.421875 -0.0351562 14.617188 0.40625 12.390625 0.40625 C 10.316406 0.40625 8.53125 0 7.03125 -0.8125 C 5.53125 -1.632812 4.375 -2.878906 3.5625 -4.546875 C 2.757812 -6.210938 2.359375 -8.28125 2.359375 -10.75 C 2.359375 -13.195312 2.785156 -15.257812 3.640625 -16.9375 C 4.492188 -18.625 5.660156 -19.878906 7.140625 -20.703125 C 8.617188 -21.523438 10.304688 -21.9375 12.203125 -21.9375 C 14.960938 -21.9375 17.113281 -21.160156 18.65625 -19.609375 C 20.207031 -18.054688 20.988281 -15.75 21 -12.6875 C 21 -11.488281 20.972656 -10.679688 20.921875 -10.265625 Z M 17.859375 -12.6875 C 17.804688 -14.976562 17.296875 -16.644531 16.328125 -17.6875 C 15.367188 -18.726562 13.992188 -19.25 12.203125 -19.25 C 10.316406 -19.25 8.835938 -18.722656 7.765625 -17.671875 C 6.691406 -16.628906 6.035156 -14.96875 5.796875 -12.6875 Z M 17.859375 -12.6875 "/></g></g></g><g fill="#000000" fill-opacity="1"><g transform="translate(180.317609, 810.156178)"><g/></g></g><g fill="#000000" fill-opacity="1"><g transform="translate(190.11626, 810.156178)"><g><path d="M 10.671875 0 L 6.65625 0 L 1.390625 -21.53125 L 4.53125 -21.53125 L 8.609375 -3.703125 L 9.015625 -3.703125 L 14.03125 -21.53125 L 17.375 -21.53125 L 22.546875 -3.703125 L 22.953125 -3.703125 L 26.96875 -21.53125 L 30 -21.53125 L 24.796875 0 L 20.75 0 L 15.828125 -16.71875 L 15.421875 -16.71875 Z M 10.671875 0 "/></g></g></g><g fill="#000000" fill-opacity="1"><g transform="translate(221.503175, 810.156178)"><g><path d="M 3.75 0 L 3.75 -30.1875 L 6.9375 -30.1875 L 6.9375 -18.46875 L 7.34375 -18.390625 C 8.875 -20.753906 11.09375 -21.9375 14 -21.9375 C 16.59375 -21.9375 18.46875 -21.273438 19.625 -19.953125 C 20.789062 -18.640625 21.375 -16.609375 21.375 -13.859375 L 21.375 0 L 18.203125 0 L 18.203125 -13.78125 C 18.203125 -15.082031 18.035156 -16.125 17.703125 -16.90625 C 17.367188 -17.695312 16.851562 -18.269531 16.15625 -18.625 C 15.457031 -18.988281 14.539062 -19.171875 13.40625 -19.171875 C 11.457031 -19.171875 9.890625 -18.539062 8.703125 -17.28125 C 7.523438 -16.019531 6.9375 -13.941406 6.9375 -11.046875 L 6.9375 0 Z M 3.75 0 "/></g></g></g><g fill="#000000" fill-opacity="1"><g transform="translate(246.292592, 810.156178)"><g><path d="M 12.359375 0.40625 C 10.328125 0.40625 8.554688 -0.0195312 7.046875 -0.875 C 5.546875 -1.738281 4.390625 -3.003906 3.578125 -4.671875 C 2.765625 -6.347656 2.359375 -8.375 2.359375 -10.75 C 2.359375 -13.132812 2.765625 -15.164062 3.578125 -16.84375 C 4.390625 -18.53125 5.546875 -19.800781 7.046875 -20.65625 C 8.554688 -21.507812 10.328125 -21.9375 12.359375 -21.9375 C 14.390625 -21.9375 16.15625 -21.507812 17.65625 -20.65625 C 19.164062 -19.800781 20.328125 -18.53125 21.140625 -16.84375 C 21.953125 -15.164062 22.359375 -13.132812 22.359375 -10.75 C 22.359375 -8.375 21.953125 -6.347656 21.140625 -4.671875 C 20.328125 -3.003906 19.164062 -1.738281 17.65625 -0.875 C 16.15625 -0.0195312 14.390625 0.40625 12.359375 0.40625 Z M 12.359375 -2.4375 C 14.503906 -2.4375 16.144531 -3.113281 17.28125 -4.46875 C 18.425781 -5.820312 19 -7.914062 19 -10.75 C 19 -13.601562 18.425781 -15.707031 17.28125 -17.0625 C 16.144531 -18.414062 14.503906 -19.09375 12.359375 -19.09375 C 10.210938 -19.09375 8.566406 -18.410156 7.421875 -17.046875 C 6.273438 -15.691406 5.703125 -13.59375 5.703125 -10.75 C 5.703125 -7.914062 6.273438 -5.820312 7.421875 -4.46875 C 8.566406 -3.113281 10.210938 -2.4375 12.359375 -2.4375 Z M 12.359375 -2.4375 "/></g></g></g><g fill="#000000" fill-opacity="1"><g transform="translate(271.003932, 810.156178)"><g/></g></g><g fill="#000000" fill-opacity="1"><g transform="translate(280.802583, 810.156178)"><g><path d="M 3.75 0 L 3.75 -30.1875 L 6.9375 -30.1875 L 6.9375 -18.46875 L 7.34375 -18.390625 C 8.875 -20.753906 11.09375 -21.9375 14 -21.9375 C 16.59375 -21.9375 18.46875 -21.273438 19.625 -19.953125 C 20.789062 -18.640625 21.375 -16.609375 21.375 -13.859375 L 21.375 0 L 18.203125 0 L 18.203125 -13.78125 C 18.203125 -15.082031 18.035156 -16.125 17.703125 -16.90625 C 17.367188 -17.695312 16.851562 -18.269531 16.15625 -18.625 C 15.457031 -18.988281 14.539062 -19.171875 13.40625 -19.171875 C 11.457031 -19.171875 9.890625 -18.539062 8.703125 -17.28125 C 7.523438 -16.019531 6.9375 -13.941406 6.9375 -11.046875 L 6.9375 0 Z M 3.75 0 "/></g></g></g><g fill="#000000" fill-opacity="1"><g transform="translate(305.592, 810.156178)"><g><path d="M 8.890625 0.40625 C 6.765625 0.40625 5.101562 -0.144531 3.90625 -1.25 C 2.71875 -2.351562 2.125 -3.9375 2.125 -6 C 2.125 -7.269531 2.382812 -8.34375 2.90625 -9.21875 C 3.4375 -10.101562 4.253906 -10.820312 5.359375 -11.375 C 6.472656 -11.925781 7.921875 -12.351562 9.703125 -12.65625 C 11.265625 -12.914062 12.453125 -13.207031 13.265625 -13.53125 C 14.078125 -13.851562 14.625 -14.21875 14.90625 -14.625 C 15.1875 -15.03125 15.328125 -15.535156 15.328125 -16.140625 C 15.328125 -17.117188 14.988281 -17.867188 14.3125 -18.390625 C 13.644531 -18.910156 12.570312 -19.171875 11.09375 -19.171875 C 9.695312 -19.171875 8.5 -18.898438 7.5 -18.359375 C 6.507812 -17.816406 5.597656 -17.015625 4.765625 -15.953125 L 4.375 -15.953125 L 2.8125 -18.15625 C 3.71875 -19.3125 4.875 -20.226562 6.28125 -20.90625 C 7.6875 -21.59375 9.289062 -21.9375 11.09375 -21.9375 C 13.625 -21.9375 15.492188 -21.378906 16.703125 -20.265625 C 17.910156 -19.160156 18.515625 -17.625 18.515625 -15.65625 L 18.515625 -4.234375 C 18.515625 -3.035156 19.019531 -2.4375 20.03125 -2.4375 C 20.363281 -2.4375 20.6875 -2.492188 21 -2.609375 L 21.28125 -2.53125 L 21.65625 -0.328125 C 21.414062 -0.171875 21.101562 -0.0507812 20.71875 0.03125 C 20.332031 0.113281 19.941406 0.15625 19.546875 0.15625 C 18.359375 0.15625 17.460938 -0.101562 16.859375 -0.625 C 16.253906 -1.144531 15.867188 -1.910156 15.703125 -2.921875 L 15.28125 -2.96875 C 14.675781 -1.832031 13.851562 -0.984375 12.8125 -0.421875 C 11.769531 0.128906 10.460938 0.40625 8.890625 0.40625 Z M 9.59375 -2.125 C 10.78125 -2.125 11.8125 -2.398438 12.6875 -2.953125 C 13.570312 -3.503906 14.25 -4.28125 14.71875 -5.28125 C 15.1875 -6.289062 15.421875 -7.453125 15.421875 -8.765625 L 15.421875 -11.5 L 15.046875 -11.578125 C 14.566406 -11.234375 13.984375 -10.945312 13.296875 -10.71875 C 12.609375 -10.5 11.644531 -10.296875 10.40625 -10.109375 C 9.15625 -9.941406 8.160156 -9.679688 7.421875 -9.328125 C 6.691406 -8.984375 6.171875 -8.539062 5.859375 -8 C 5.546875 -7.457031 5.390625 -6.789062 5.390625 -6 C 5.390625 -4.726562 5.757812 -3.765625 6.5 -3.109375 C 7.238281 -2.453125 8.269531 -2.125 9.59375 -2.125 Z M 9.59375 -2.125 "/></g></g></g><g fill="#000000" fill-opacity="1"><g transform="translate(327.863436, 810.156178)"><g><path d="M 9.828125 0.40625 C 8.472656 0.40625 7.21875 0.226562 6.0625 -0.125 C 4.90625 -0.476562 3.929688 -0.96875 3.140625 -1.59375 C 2.347656 -2.21875 1.789062 -2.921875 1.46875 -3.703125 L 3.34375 -5.65625 L 3.75 -5.65625 C 4.445312 -4.59375 5.289062 -3.789062 6.28125 -3.25 C 7.269531 -2.707031 8.453125 -2.4375 9.828125 -2.4375 C 11.410156 -2.4375 12.613281 -2.742188 13.4375 -3.359375 C 14.269531 -3.984375 14.6875 -4.847656 14.6875 -5.953125 C 14.6875 -6.796875 14.429688 -7.492188 13.921875 -8.046875 C 13.421875 -8.609375 12.613281 -9.023438 11.5 -9.296875 L 7.875 -10.1875 C 5.925781 -10.65625 4.503906 -11.394531 3.609375 -12.40625 C 2.722656 -13.425781 2.28125 -14.6875 2.28125 -16.1875 C 2.28125 -17.351562 2.578125 -18.367188 3.171875 -19.234375 C 3.773438 -20.097656 4.640625 -20.765625 5.765625 -21.234375 C 6.890625 -21.703125 8.226562 -21.9375 9.78125 -21.9375 C 11.757812 -21.9375 13.316406 -21.660156 14.453125 -21.109375 C 15.597656 -20.554688 16.488281 -19.785156 17.125 -18.796875 L 15.328125 -17.046875 L 14.9375 -17.046875 C 14.25 -17.835938 13.492188 -18.410156 12.671875 -18.765625 C 11.859375 -19.117188 10.894531 -19.296875 9.78125 -19.296875 C 8.363281 -19.296875 7.273438 -19.039062 6.515625 -18.53125 C 5.765625 -18.019531 5.390625 -17.285156 5.390625 -16.328125 C 5.390625 -15.453125 5.65625 -14.742188 6.1875 -14.203125 C 6.71875 -13.671875 7.648438 -13.242188 8.984375 -12.921875 L 12.546875 -12.0625 C 14.421875 -11.625 15.773438 -10.890625 16.609375 -9.859375 C 17.441406 -8.828125 17.859375 -7.539062 17.859375 -6 C 17.859375 -4.726562 17.554688 -3.609375 16.953125 -2.640625 C 16.359375 -1.679688 15.457031 -0.929688 14.25 -0.390625 C 13.039062 0.140625 11.566406 0.40625 9.828125 0.40625 Z M 9.828125 0.40625 "/></g></g></g><g fill="#000000" fill-opacity="1"><g transform="translate(347.773047, 810.156178)"><g/></g></g><g fill="#000000" fill-opacity="1"><g transform="translate(357.571698, 810.156178)"><g><path d="M 14.5625 -3.421875 L 15.578125 -1.125 C 15.066406 -0.625 14.398438 -0.242188 13.578125 0.015625 C 12.753906 0.273438 11.859375 0.40625 10.890625 0.40625 C 6.773438 0.40625 4.71875 -1.675781 4.71875 -5.84375 L 4.71875 -18.921875 L 0.96875 -18.921875 L 0.96875 -21.53125 L 4.71875 -21.53125 L 4.71875 -26.109375 L 7.90625 -26.625 L 7.90625 -21.53125 L 14.84375 -21.53125 L 14.84375 -18.921875 L 7.90625 -18.921875 L 7.90625 -6.15625 C 7.90625 -3.675781 8.976562 -2.4375 11.125 -2.4375 C 12.300781 -2.4375 13.3125 -2.765625 14.15625 -3.421875 Z M 14.5625 -3.421875 "/></g></g></g><g fill="#000000" fill-opacity="1"><g transform="translate(373.967847, 810.156178)"><g><path d="M 3.75 0 L 3.75 -30.1875 L 6.9375 -30.1875 L 6.9375 -18.46875 L 7.34375 -18.390625 C 8.875 -20.753906 11.09375 -21.9375 14 -21.9375 C 16.59375 -21.9375 18.46875 -21.273438 19.625 -19.953125 C 20.789062 -18.640625 21.375 -16.609375 21.375 -13.859375 L 21.375 0 L 18.203125 0 L 18.203125 -13.78125 C 18.203125 -15.082031 18.035156 -16.125 17.703125 -16.90625 C 17.367188 -17.695312 16.851562 -18.269531 16.15625 -18.625 C 15.457031 -18.988281 14.539062 -19.171875 13.40625 -19.171875 C 11.457031 -19.171875 9.890625 -18.539062 8.703125 -17.28125 C 7.523438 -16.019531 6.9375 -13.941406 6.9375 -11.046875 L 6.9375 0 Z M 3.75 0 "/></g></g></g><g fill="#000000" fill-opacity="1"><g transform="translate(398.757264, 810.156178)"><g><path d="M 20.515625 -10.03125 L 5.71875 -10 C 5.820312 -7.394531 6.457031 -5.484375 7.625 -4.265625 C 8.789062 -3.046875 10.378906 -2.4375 12.390625 -2.4375 C 13.929688 -2.4375 15.171875 -2.707031 16.109375 -3.25 C 17.046875 -3.800781 17.78125 -4.664062 18.3125 -5.84375 L 18.71875 -5.84375 L 20.796875 -4.609375 C 20.171875 -3.046875 19.171875 -1.816406 17.796875 -0.921875 C 16.421875 -0.0351562 14.617188 0.40625 12.390625 0.40625 C 10.316406 0.40625 8.53125 0 7.03125 -0.8125 C 5.53125 -1.632812 4.375 -2.878906 3.5625 -4.546875 C 2.757812 -6.210938 2.359375 -8.28125 2.359375 -10.75 C 2.359375 -13.195312 2.785156 -15.257812 3.640625 -16.9375 C 4.492188 -18.625 5.660156 -19.878906 7.140625 -20.703125 C 8.617188 -21.523438 10.304688 -21.9375 12.203125 -21.9375 C 14.960938 -21.9375 17.113281 -21.160156 18.65625 -19.609375 C 20.207031 -18.054688 20.988281 -15.75 21 -12.6875 C 21 -11.488281 20.972656 -10.679688 20.921875 -10.265625 Z M 17.859375 -12.6875 C 17.804688 -14.976562 17.296875 -16.644531 16.328125 -17.6875 C 15.367188 -18.726562 13.992188 -19.25 12.203125 -19.25 C 10.316406 -19.25 8.835938 -18.722656 7.765625 -17.671875 C 6.691406 -16.628906 6.035156 -14.96875 5.796875 -12.6875 Z M 17.859375 -12.6875 "/></g></g></g><g fill="#000000" fill-opacity="1"><g transform="translate(421.711873, 810.156178)"><g/></g></g><g fill="#000000" fill-opacity="1"><g transform="translate(431.510525, 810.156178)"><g><path d="M 9.828125 0.40625 C 8.472656 0.40625 7.21875 0.226562 6.0625 -0.125 C 4.90625 -0.476562 3.929688 -0.96875 3.140625 -1.59375 C 2.347656 -2.21875 1.789062 -2.921875 1.46875 -3.703125 L 3.34375 -5.65625 L 3.75 -5.65625 C 4.445312 -4.59375 5.289062 -3.789062 6.28125 -3.25 C 7.269531 -2.707031 8.453125 -2.4375 9.828125 -2.4375 C 11.410156 -2.4375 12.613281 -2.742188 13.4375 -3.359375 C 14.269531 -3.984375 14.6875 -4.847656 14.6875 -5.953125 C 14.6875 -6.796875 14.429688 -7.492188 13.921875 -8.046875 C 13.421875 -8.609375 12.613281 -9.023438 11.5 -9.296875 L 7.875 -10.1875 C 5.925781 -10.65625 4.503906 -11.394531 3.609375 -12.40625 C 2.722656 -13.425781 2.28125 -14.6875 2.28125 -16.1875 C 2.28125 -17.351562 2.578125 -18.367188 3.171875 -19.234375 C 3.773438 -20.097656 4.640625 -20.765625 5.765625 -21.234375 C 6.890625 -21.703125 8.226562 -21.9375 9.78125 -21.9375 C 11.757812 -21.9375 13.316406 -21.660156 14.453125 -21.109375 C 15.597656 -20.554688 16.488281 -19.785156 17.125 -18.796875 L 15.328125 -17.046875 L 14.9375 -17.046875 C 14.25 -17.835938 13.492188 -18.410156 12.671875 -18.765625 C 11.859375 -19.117188 10.894531 -19.296875 9.78125 -19.296875 C 8.363281 -19.296875 7.273438 -19.039062 6.515625 -18.53125 C 5.765625 -18.019531 5.390625 -17.285156 5.390625 -16.328125 C 5.390625 -15.453125 5.65625 -14.742188 6.1875 -14.203125 C 6.71875 -13.671875 7.648438 -13.242188 8.984375 -12.921875 L 12.546875 -12.0625 C 14.421875 -11.625 15.773438 -10.890625 16.609375 -9.859375 C 17.441406 -8.828125 17.859375 -7.539062 17.859375 -6 C 17.859375 -4.726562 17.554688 -3.609375 16.953125 -2.640625 C 16.359375 -1.679688 15.457031 -0.929688 14.25 -0.390625 C 13.039062 0.140625 11.566406 0.40625 9.828125 0.40625 Z M 9.828125 0.40625 "/></g></g></g><g fill="#000000" fill-opacity="1"><g transform="translate(451.420135, 810.156178)"><g><path d="M 6.9375 0 L 3.75 0 L 3.75 -30.1875 L 6.9375 -30.1875 L 6.9375 -12.546875 L 7.453125 -12.546875 L 15.46875 -21.53125 L 18.796875 -21.53125 L 18.796875 -21.078125 L 10.265625 -11.421875 L 19.625 -0.484375 L 19.625 0 L 16.0625 0 L 7.453125 -9.953125 L 6.9375 -9.953125 Z M 6.9375 0 "/></g></g></g><g fill="#000000" fill-opacity="1"><g transform="translate(471.44686, 810.156178)"><g><path d="M 5.34375 -25.6875 C 4.664062 -25.6875 4.113281 -25.898438 3.6875 -26.328125 C 3.269531 -26.753906 3.0625 -27.289062 3.0625 -27.9375 C 3.0625 -28.59375 3.269531 -29.128906 3.6875 -29.546875 C 4.113281 -29.972656 4.664062 -30.1875 5.34375 -30.1875 C 6.019531 -30.1875 6.570312 -29.972656 7 -29.546875 C 7.425781 -29.128906 7.640625 -28.59375 7.640625 -27.9375 C 7.640625 -27.289062 7.425781 -26.753906 7 -26.328125 C 6.570312 -25.898438 6.019531 -25.6875 5.34375 -25.6875 Z M 6.9375 0 L 3.75 0 L 3.75 -21.53125 L 6.9375 -21.53125 Z M 6.9375 0 "/></g></g></g><g fill="#000000" fill-opacity="1"><g transform="translate(482.123876, 810.156178)"><g><path d="M 8.578125 0.40625 C 7.046875 0.40625 5.84375 -0.0234375 4.96875 -0.890625 C 4.101562 -1.753906 3.671875 -3.046875 3.671875 -4.765625 L 3.671875 -30.1875 L 6.859375 -30.1875 L 6.859375 -4.984375 C 6.859375 -4.078125 7.03125 -3.425781 7.375 -3.03125 C 7.71875 -2.632812 8.253906 -2.4375 8.984375 -2.4375 C 9.421875 -2.4375 9.867188 -2.507812 10.328125 -2.65625 L 10.59375 -2.578125 L 10.96875 -0.078125 C 10.738281 0.078125 10.40625 0.195312 9.96875 0.28125 C 9.53125 0.363281 9.066406 0.40625 8.578125 0.40625 Z M 8.578125 0.40625 "/></g></g></g><g fill="#000000" fill-opacity="1"><g transform="translate(493.835412, 810.156178)"><g><path d="M 8.578125 0.40625 C 7.046875 0.40625 5.84375 -0.0234375 4.96875 -0.890625 C 4.101562 -1.753906 3.671875 -3.046875 3.671875 -4.765625 L 3.671875 -30.1875 L 6.859375 -30.1875 L 6.859375 -4.984375 C 6.859375 -4.078125 7.03125 -3.425781 7.375 -3.03125 C 7.71875 -2.632812 8.253906 -2.4375 8.984375 -2.4375 C 9.421875 -2.4375 9.867188 -2.507812 10.328125 -2.65625 L 10.59375 -2.578125 L 10.96875 -0.078125 C 10.738281 0.078125 10.40625 0.195312 9.96875 0.28125 C 9.53125 0.363281 9.066406 0.40625 8.578125 0.40625 Z M 8.578125 0.40625 "/></g></g></g><g fill="#000000" fill-opacity="1"><g transform="translate(505.546947, 810.156178)"><g/></g></g><g fill="#000000" fill-opacity="1"><g transform="translate(515.345598, 810.156178)"><g><path d="M 14.5625 -3.421875 L 15.578125 -1.125 C 15.066406 -0.625 14.398438 -0.242188 13.578125 0.015625 C 12.753906 0.273438 11.859375 0.40625 10.890625 0.40625 C 6.773438 0.40625 4.71875 -1.675781 4.71875 -5.84375 L 4.71875 -18.921875 L 0.96875 -18.921875 L 0.96875 -21.53125 L 4.71875 -21.53125 L 4.71875 -26.109375 L 7.90625 -26.625 L 7.90625 -21.53125 L 14.84375 -21.53125 L 14.84375 -18.921875 L 7.90625 -18.921875 L 7.90625 -6.15625 C 7.90625 -3.675781 8.976562 -2.4375 11.125 -2.4375 C 12.300781 -2.4375 13.3125 -2.765625 14.15625 -3.421875 Z M 14.5625 -3.421875 "/></g></g></g><g fill="#000000" fill-opacity="1"><g transform="translate(531.741748, 810.156178)"><g><path d="M 12.359375 0.40625 C 10.328125 0.40625 8.554688 -0.0195312 7.046875 -0.875 C 5.546875 -1.738281 4.390625 -3.003906 3.578125 -4.671875 C 2.765625 -6.347656 2.359375 -8.375 2.359375 -10.75 C 2.359375 -13.132812 2.765625 -15.164062 3.578125 -16.84375 C 4.390625 -18.53125 5.546875 -19.800781 7.046875 -20.65625 C 8.554688 -21.507812 10.328125 -21.9375 12.359375 -21.9375 C 14.390625 -21.9375 16.15625 -21.507812 17.65625 -20.65625 C 19.164062 -19.800781 20.328125 -18.53125 21.140625 -16.84375 C 21.953125 -15.164062 22.359375 -13.132812 22.359375 -10.75 C 22.359375 -8.375 21.953125 -6.347656 21.140625 -4.671875 C 20.328125 -3.003906 19.164062 -1.738281 17.65625 -0.875 C 16.15625 -0.0195312 14.390625 0.40625 12.359375 0.40625 Z M 12.359375 -2.4375 C 14.503906 -2.4375 16.144531 -3.113281 17.28125 -4.46875 C 18.425781 -5.820312 19 -7.914062 19 -10.75 C 19 -13.601562 18.425781 -15.707031 17.28125 -17.0625 C 16.144531 -18.414062 14.503906 -19.09375 12.359375 -19.09375 C 10.210938 -19.09375 8.566406 -18.410156 7.421875 -17.046875 C 6.273438 -15.691406 5.703125 -13.59375 5.703125 -10.75 C 5.703125 -7.914062 6.273438 -5.820312 7.421875 -4.46875 C 8.566406 -3.113281 10.210938 -2.4375 12.359375 -2.4375 Z M 12.359375 -2.4375 "/></g></g></g><g fill="#000000" fill-opacity="1"><g transform="translate(556.453088, 810.156178)"><g/></g></g><g fill="#000000" fill-opacity="1"><g transform="translate(566.251739, 810.156178)"><g><path d="M 11.171875 0.40625 C 9.441406 0.40625 7.914062 -0.00390625 6.59375 -0.828125 C 5.269531 -1.648438 4.234375 -2.894531 3.484375 -4.5625 C 2.734375 -6.226562 2.359375 -8.289062 2.359375 -10.75 C 2.359375 -13.21875 2.75 -15.285156 3.53125 -16.953125 C 4.3125 -18.628906 5.390625 -19.878906 6.765625 -20.703125 C 8.140625 -21.523438 9.726562 -21.9375 11.53125 -21.9375 C 12.96875 -21.9375 14.257812 -21.664062 15.40625 -21.125 C 16.550781 -20.59375 17.535156 -19.707031 18.359375 -18.46875 L 18.765625 -18.546875 L 18.765625 -30.1875 L 21.9375 -30.1875 L 21.9375 0 L 18.765625 0 L 18.765625 -3.140625 L 18.359375 -3.21875 C 17.648438 -2.15625 16.691406 -1.285156 15.484375 -0.609375 C 14.285156 0.0664062 12.847656 0.40625 11.171875 0.40625 Z M 12.15625 -2.4375 C 14.164062 -2.4375 15.769531 -3.125 16.96875 -4.5 C 18.164062 -5.875 18.765625 -7.957031 18.765625 -10.75 C 18.765625 -13.5625 18.164062 -15.65625 16.96875 -17.03125 C 15.769531 -18.40625 14.164062 -19.09375 12.15625 -19.09375 C 10.09375 -19.09375 8.5 -18.421875 7.375 -17.078125 C 6.257812 -15.742188 5.703125 -13.632812 5.703125 -10.75 C 5.703125 -5.207031 7.851562 -2.4375 12.15625 -2.4375 Z M 12.15625 -2.4375 "/></g></g></g><g fill="#000000" fill-opacity="1"><g transform="translate(591.958582, 810.156178)"><g><path d="M 12.359375 0.40625 C 10.328125 0.40625 8.554688 -0.0195312 7.046875 -0.875 C 5.546875 -1.738281 4.390625 -3.003906 3.578125 -4.671875 C 2.765625 -6.347656 2.359375 -8.375 2.359375 -10.75 C 2.359375 -13.132812 2.765625 -15.164062 3.578125 -16.84375 C 4.390625 -18.53125 5.546875 -19.800781 7.046875 -20.65625 C 8.554688 -21.507812 10.328125 -21.9375 12.359375 -21.9375 C 14.390625 -21.9375 16.15625 -21.507812 17.65625 -20.65625 C 19.164062 -19.800781 20.328125 -18.53125 21.140625 -16.84375 C 21.953125 -15.164062 22.359375 -13.132812 22.359375 -10.75 C 22.359375 -8.375 21.953125 -6.347656 21.140625 -4.671875 C 20.328125 -3.003906 19.164062 -1.738281 17.65625 -0.875 C 16.15625 -0.0195312 14.390625 0.40625 12.359375 0.40625 Z M 12.359375 -2.4375 C 14.503906 -2.4375 16.144531 -3.113281 17.28125 -4.46875 C 18.425781 -5.820312 19 -7.914062 19 -10.75 C 19 -13.601562 18.425781 -15.707031 17.28125 -17.0625 C 16.144531 -18.414062 14.503906 -19.09375 12.359375 -19.09375 C 10.210938 -19.09375 8.566406 -18.410156 7.421875 -17.046875 C 6.273438 -15.691406 5.703125 -13.59375 5.703125 -10.75 C 5.703125 -7.914062 6.273438 -5.820312 7.421875 -4.46875 C 8.566406 -3.113281 10.210938 -2.4375 12.359375 -2.4375 Z M 12.359375 -2.4375 "/></g></g></g><g fill="#000000" fill-opacity="1"><g transform="translate(616.669922, 810.156178)"><g/></g></g><g fill="#000000" fill-opacity="1"><g transform="translate(626.468573, 810.156178)"><g><path d="M 8.890625 0.40625 C 6.765625 0.40625 5.101562 -0.144531 3.90625 -1.25 C 2.71875 -2.351562 2.125 -3.9375 2.125 -6 C 2.125 -7.269531 2.382812 -8.34375 2.90625 -9.21875 C 3.4375 -10.101562 4.253906 -10.820312 5.359375 -11.375 C 6.472656 -11.925781 7.921875 -12.351562 9.703125 -12.65625 C 11.265625 -12.914062 12.453125 -13.207031 13.265625 -13.53125 C 14.078125 -13.851562 14.625 -14.21875 14.90625 -14.625 C 15.1875 -15.03125 15.328125 -15.535156 15.328125 -16.140625 C 15.328125 -17.117188 14.988281 -17.867188 14.3125 -18.390625 C 13.644531 -18.910156 12.570312 -19.171875 11.09375 -19.171875 C 9.695312 -19.171875 8.5 -18.898438 7.5 -18.359375 C 6.507812 -17.816406 5.597656 -17.015625 4.765625 -15.953125 L 4.375 -15.953125 L 2.8125 -18.15625 C 3.71875 -19.3125 4.875 -20.226562 6.28125 -20.90625 C 7.6875 -21.59375 9.289062 -21.9375 11.09375 -21.9375 C 13.625 -21.9375 15.492188 -21.378906 16.703125 -20.265625 C 17.910156 -19.160156 18.515625 -17.625 18.515625 -15.65625 L 18.515625 -4.234375 C 18.515625 -3.035156 19.019531 -2.4375 20.03125 -2.4375 C 20.363281 -2.4375 20.6875 -2.492188 21 -2.609375 L 21.28125 -2.53125 L 21.65625 -0.328125 C 21.414062 -0.171875 21.101562 -0.0507812 20.71875 0.03125 C 20.332031 0.113281 19.941406 0.15625 19.546875 0.15625 C 18.359375 0.15625 17.460938 -0.101562 16.859375 -0.625 C 16.253906 -1.144531 15.867188 -1.910156 15.703125 -2.921875 L 15.28125 -2.96875 C 14.675781 -1.832031 13.851562 -0.984375 12.8125 -0.421875 C 11.769531 0.128906 10.460938 0.40625 8.890625 0.40625 Z M 9.59375 -2.125 C 10.78125 -2.125 11.8125 -2.398438 12.6875 -2.953125 C 13.570312 -3.503906 14.25 -4.28125 14.71875 -5.28125 C 15.1875 -6.289062 15.421875 -7.453125 15.421875 -8.765625 L 15.421875 -11.5 L 15.046875 -11.578125 C 14.566406 -11.234375 13.984375 -10.945312 13.296875 -10.71875 C 12.609375 -10.5 11.644531 -10.296875 10.40625 -10.109375 C 9.15625 -9.941406 8.160156 -9.679688 7.421875 -9.328125 C 6.691406 -8.984375 6.171875 -8.539062 5.859375 -8 C 5.546875 -7.457031 5.390625 -6.789062 5.390625 -6 C 5.390625 -4.726562 5.757812 -3.765625 6.5 -3.109375 C 7.238281 -2.453125 8.269531 -2.125 9.59375 -2.125 Z M 9.59375 -2.125 "/></g></g></g><g fill="#000000" fill-opacity="1"><g transform="translate(118.792048, 865.643684)"><g><path d="M 12.359375 0.40625 C 10.460938 0.40625 8.757812 -0.0234375 7.25 -0.890625 C 5.738281 -1.753906 4.546875 -3.03125 3.671875 -4.71875 C 2.796875 -6.40625 2.359375 -8.414062 2.359375 -10.75 C 2.359375 -13.113281 2.796875 -15.132812 3.671875 -16.8125 C 4.546875 -18.5 5.738281 -19.773438 7.25 -20.640625 C 8.757812 -21.503906 10.460938 -21.9375 12.359375 -21.9375 C 14.640625 -21.9375 16.453125 -21.507812 17.796875 -20.65625 C 19.140625 -19.800781 20.113281 -18.65625 20.71875 -17.21875 L 18.546875 -15.65625 L 18.15625 -15.65625 C 17.570312 -16.84375 16.820312 -17.710938 15.90625 -18.265625 C 14.988281 -18.816406 13.804688 -19.09375 12.359375 -19.09375 C 11.023438 -19.09375 9.859375 -18.78125 8.859375 -18.15625 C 7.859375 -17.53125 7.082031 -16.59375 6.53125 -15.34375 C 5.976562 -14.09375 5.703125 -12.5625 5.703125 -10.75 C 5.703125 -8.957031 5.976562 -7.4375 6.53125 -6.1875 C 7.09375 -4.945312 7.867188 -4.007812 8.859375 -3.375 C 9.859375 -2.75 11.023438 -2.4375 12.359375 -2.4375 C 13.859375 -2.4375 15.097656 -2.773438 16.078125 -3.453125 C 17.054688 -4.128906 17.828125 -5.195312 18.390625 -6.65625 L 18.796875 -6.65625 L 20.890625 -5.421875 C 20.328125 -3.617188 19.328125 -2.195312 17.890625 -1.15625 C 16.453125 -0.113281 14.609375 0.40625 12.359375 0.40625 Z M 12.359375 0.40625 "/></g></g></g><g fill="#000000" fill-opacity="1"><g transform="translate(140.985408, 865.643684)"><g><path d="M 18.234375 -21.53125 L 21.5 -21.53125 L 11.875 3.375 C 11.320312 4.757812 10.707031 5.867188 10.03125 6.703125 C 9.351562 7.546875 8.550781 8.160156 7.625 8.546875 C 6.707031 8.941406 5.601562 9.140625 4.3125 9.140625 C 3.582031 9.140625 2.898438 9.078125 2.265625 8.953125 C 1.640625 8.828125 1.097656 8.65625 0.640625 8.4375 L 1.234375 5.921875 L 1.578125 5.796875 C 1.890625 5.953125 2.28125 6.082031 2.75 6.1875 C 3.21875 6.300781 3.703125 6.359375 4.203125 6.359375 C 5.066406 6.359375 5.785156 6.238281 6.359375 6 C 6.929688 5.769531 7.421875 5.382812 7.828125 4.84375 C 8.242188 4.3125 8.628906 3.566406 8.984375 2.609375 L 9.75 0.5 L 1.09375 -21.53125 L 4.53125 -21.53125 L 11.296875 -3.96875 L 11.671875 -3.96875 Z M 18.234375 -21.53125 "/></g></g></g><g fill="#000000" fill-opacity="1"><g transform="translate(163.686267, 865.643684)"><g><path d="M 14.3125 0.40625 C 12.707031 0.40625 11.316406 0.0976562 10.140625 -0.515625 C 8.960938 -1.128906 8.03125 -1.945312 7.34375 -2.96875 L 6.9375 -2.890625 L 6.9375 0 L 3.75 0 L 3.75 -30.1875 L 6.9375 -30.1875 L 6.9375 -18.3125 L 7.34375 -18.234375 C 8.976562 -20.703125 11.359375 -21.9375 14.484375 -21.9375 C 16.253906 -21.9375 17.800781 -21.523438 19.125 -20.703125 C 20.457031 -19.890625 21.488281 -18.644531 22.21875 -16.96875 C 22.957031 -15.300781 23.328125 -13.226562 23.328125 -10.75 C 23.328125 -8.3125 22.9375 -6.253906 22.15625 -4.578125 C 21.382812 -2.898438 20.320312 -1.648438 18.96875 -0.828125 C 17.625 -0.00390625 16.070312 0.40625 14.3125 0.40625 Z M 13.546875 -2.4375 C 17.847656 -2.4375 20 -5.207031 20 -10.75 C 20 -13.632812 19.4375 -15.742188 18.3125 -17.078125 C 17.195312 -18.421875 15.609375 -19.09375 13.546875 -19.09375 C 11.523438 -19.09375 9.914062 -18.40625 8.71875 -17.03125 C 7.53125 -15.65625 6.9375 -13.5625 6.9375 -10.75 C 6.9375 -7.957031 7.53125 -5.875 8.71875 -4.5 C 9.914062 -3.125 11.523438 -2.4375 13.546875 -2.4375 Z M 13.546875 -2.4375 "/></g></g></g><g fill="#000000" fill-opacity="1"><g transform="translate(189.373568, 865.643684)"><g><path d="M 20.515625 -10.03125 L 5.71875 -10 C 5.820312 -7.394531 6.457031 -5.484375 7.625 -4.265625 C 8.789062 -3.046875 10.378906 -2.4375 12.390625 -2.4375 C 13.929688 -2.4375 15.171875 -2.707031 16.109375 -3.25 C 17.046875 -3.800781 17.78125 -4.664062 18.3125 -5.84375 L 18.71875 -5.84375 L 20.796875 -4.609375 C 20.171875 -3.046875 19.171875 -1.816406 17.796875 -0.921875 C 16.421875 -0.0351562 14.617188 0.40625 12.390625 0.40625 C 10.316406 0.40625 8.53125 0 7.03125 -0.8125 C 5.53125 -1.632812 4.375 -2.878906 3.5625 -4.546875 C 2.757812 -6.210938 2.359375 -8.28125 2.359375 -10.75 C 2.359375 -13.195312 2.785156 -15.257812 3.640625 -16.9375 C 4.492188 -18.625 5.660156 -19.878906 7.140625 -20.703125 C 8.617188 -21.523438 10.304688 -21.9375 12.203125 -21.9375 C 14.960938 -21.9375 17.113281 -21.160156 18.65625 -19.609375 C 20.207031 -18.054688 20.988281 -15.75 21 -12.6875 C 21 -11.488281 20.972656 -10.679688 20.921875 -10.265625 Z M 17.859375 -12.6875 C 17.804688 -14.976562 17.296875 -16.644531 16.328125 -17.6875 C 15.367188 -18.726562 13.992188 -19.25 12.203125 -19.25 C 10.316406 -19.25 8.835938 -18.722656 7.765625 -17.671875 C 6.691406 -16.628906 6.035156 -14.96875 5.796875 -12.6875 Z M 17.859375 -12.6875 "/></g></g></g><g fill="#000000" fill-opacity="1"><g transform="translate(212.328177, 865.643684)"><g><path d="M 3.75 0 L 3.75 -21.53125 L 6.78125 -21.53125 L 6.78125 -18.15625 L 7.1875 -18.0625 C 8.1875 -20.507812 10.070312 -21.734375 12.84375 -21.734375 C 14.3125 -21.734375 15.410156 -21.460938 16.140625 -20.921875 L 15.328125 -18.234375 L 14.9375 -18.15625 C 14.125 -18.5625 13.238281 -18.765625 12.28125 -18.765625 C 10.5625 -18.765625 9.238281 -18.117188 8.3125 -16.828125 C 7.394531 -15.535156 6.9375 -13.445312 6.9375 -10.5625 L 6.9375 0 Z M 3.75 0 "/></g></g></g><g fill="#000000" fill-opacity="1"><g transform="translate(228.958557, 865.643684)"><g><path d="M 13.140625 -12.4375 L 2.03125 -12.4375 L 2.03125 -15.28125 L 13.140625 -15.28125 Z M 13.140625 -12.4375 "/></g></g></g><g fill="#000000" fill-opacity="1"><g transform="translate(244.105476, 865.643684)"><g><path d="M 12.359375 0.40625 C 10.460938 0.40625 8.757812 -0.0234375 7.25 -0.890625 C 5.738281 -1.753906 4.546875 -3.03125 3.671875 -4.71875 C 2.796875 -6.40625 2.359375 -8.414062 2.359375 -10.75 C 2.359375 -13.113281 2.796875 -15.132812 3.671875 -16.8125 C 4.546875 -18.5 5.738281 -19.773438 7.25 -20.640625 C 8.757812 -21.503906 10.460938 -21.9375 12.359375 -21.9375 C 14.640625 -21.9375 16.453125 -21.507812 17.796875 -20.65625 C 19.140625 -19.800781 20.113281 -18.65625 20.71875 -17.21875 L 18.546875 -15.65625 L 18.15625 -15.65625 C 17.570312 -16.84375 16.820312 -17.710938 15.90625 -18.265625 C 14.988281 -18.816406 13.804688 -19.09375 12.359375 -19.09375 C 11.023438 -19.09375 9.859375 -18.78125 8.859375 -18.15625 C 7.859375 -17.53125 7.082031 -16.59375 6.53125 -15.34375 C 5.976562 -14.09375 5.703125 -12.5625 5.703125 -10.75 C 5.703125 -8.957031 5.976562 -7.4375 6.53125 -6.1875 C 7.09375 -4.945312 7.867188 -4.007812 8.859375 -3.375 C 9.859375 -2.75 11.023438 -2.4375 12.359375 -2.4375 C 13.859375 -2.4375 15.097656 -2.773438 16.078125 -3.453125 C 17.054688 -4.128906 17.828125 -5.195312 18.390625 -6.65625 L 18.796875 -6.65625 L 20.890625 -5.421875 C 20.328125 -3.617188 19.328125 -2.195312 17.890625 -1.15625 C 16.453125 -0.113281 14.609375 0.40625 12.359375 0.40625 Z M 12.359375 0.40625 "/></g></g></g><g fill="#000000" fill-opacity="1"><g transform="translate(266.298836, 865.643684)"><g><path d="M 3.75 0 L 3.75 -21.53125 L 6.78125 -21.53125 L 6.78125 -18.15625 L 7.1875 -18.0625 C 8.1875 -20.507812 10.070312 -21.734375 12.84375 -21.734375 C 14.3125 -21.734375 15.410156 -21.460938 16.140625 -20.921875 L 15.328125 -18.234375 L 14.9375 -18.15625 C 14.125 -18.5625 13.238281 -18.765625 12.28125 -18.765625 C 10.5625 -18.765625 9.238281 -18.117188 8.3125 -16.828125 C 7.394531 -15.535156 6.9375 -13.445312 6.9375 -10.5625 L 6.9375 0 Z M 3.75 0 "/></g></g></g><g fill="#000000" fill-opacity="1"><g transform="translate(282.929216, 865.643684)"><g><path d="M 5.34375 -25.6875 C 4.664062 -25.6875 4.113281 -25.898438 3.6875 -26.328125 C 3.269531 -26.753906 3.0625 -27.289062 3.0625 -27.9375 C 3.0625 -28.59375 3.269531 -29.128906 3.6875 -29.546875 C 4.113281 -29.972656 4.664062 -30.1875 5.34375 -30.1875 C 6.019531 -30.1875 6.570312 -29.972656 7 -29.546875 C 7.425781 -29.128906 7.640625 -28.59375 7.640625 -27.9375 C 7.640625 -27.289062 7.425781 -26.753906 7 -26.328125 C 6.570312 -25.898438 6.019531 -25.6875 5.34375 -25.6875 Z M 6.9375 0 L 3.75 0 L 3.75 -21.53125 L 6.9375 -21.53125 Z M 6.9375 0 "/></g></g></g><g fill="#000000" fill-opacity="1"><g transform="translate(293.606232, 865.643684)"><g><path d="M 3.75 0 L 3.75 -21.53125 L 6.78125 -21.53125 L 6.78125 -18.359375 L 7.1875 -18.28125 C 7.914062 -19.488281 8.796875 -20.398438 9.828125 -21.015625 C 10.859375 -21.628906 12.097656 -21.9375 13.546875 -21.9375 C 15.210938 -21.9375 16.5 -21.617188 17.40625 -20.984375 C 18.320312 -20.359375 19.035156 -19.34375 19.546875 -17.9375 L 19.953125 -17.9375 C 20.691406 -19.257812 21.601562 -20.253906 22.6875 -20.921875 C 23.78125 -21.597656 25.117188 -21.9375 26.703125 -21.9375 C 28.921875 -21.9375 30.570312 -21.335938 31.65625 -20.140625 C 32.738281 -18.953125 33.28125 -17.132812 33.28125 -14.6875 L 33.28125 0 L 30.109375 0 L 30.109375 -14.609375 C 30.109375 -16.171875 29.78125 -17.320312 29.125 -18.0625 C 28.46875 -18.800781 27.410156 -19.171875 25.953125 -19.171875 C 24.234375 -19.171875 22.828125 -18.546875 21.734375 -17.296875 C 20.648438 -16.046875 20.109375 -13.988281 20.109375 -11.125 L 20.109375 0 L 16.921875 0 L 16.921875 -14.609375 C 16.921875 -16.171875 16.59375 -17.320312 15.9375 -18.0625 C 15.28125 -18.800781 14.222656 -19.171875 12.765625 -19.171875 C 11.046875 -19.171875 9.644531 -18.566406 8.5625 -17.359375 C 7.476562 -16.148438 6.9375 -14.179688 6.9375 -11.453125 L 6.9375 0 Z M 3.75 0 "/></g></g></g><g fill="#000000" fill-opacity="1"><g transform="translate(330.302376, 865.643684)"><g><path d="M 20.515625 -10.03125 L 5.71875 -10 C 5.820312 -7.394531 6.457031 -5.484375 7.625 -4.265625 C 8.789062 -3.046875 10.378906 -2.4375 12.390625 -2.4375 C 13.929688 -2.4375 15.171875 -2.707031 16.109375 -3.25 C 17.046875 -3.800781 17.78125 -4.664062 18.3125 -5.84375 L 18.71875 -5.84375 L 20.796875 -4.609375 C 20.171875 -3.046875 19.171875 -1.816406 17.796875 -0.921875 C 16.421875 -0.0351562 14.617188 0.40625 12.390625 0.40625 C 10.316406 0.40625 8.53125 0 7.03125 -0.8125 C 5.53125 -1.632812 4.375 -2.878906 3.5625 -4.546875 C 2.757812 -6.210938 2.359375 -8.28125 2.359375 -10.75 C 2.359375 -13.195312 2.785156 -15.257812 3.640625 -16.9375 C 4.492188 -18.625 5.660156 -19.878906 7.140625 -20.703125 C 8.617188 -21.523438 10.304688 -21.9375 12.203125 -21.9375 C 14.960938 -21.9375 17.113281 -21.160156 18.65625 -19.609375 C 20.207031 -18.054688 20.988281 -15.75 21 -12.6875 C 21 -11.488281 20.972656 -10.679688 20.921875 -10.265625 Z M 17.859375 -12.6875 C 17.804688 -14.976562 17.296875 -16.644531 16.328125 -17.6875 C 15.367188 -18.726562 13.992188 -19.25 12.203125 -19.25 C 10.316406 -19.25 8.835938 -18.722656 7.765625 -17.671875 C 6.691406 -16.628906 6.035156 -14.96875 5.796875 -12.6875 Z M 17.859375 -12.6875 "/></g></g></g><g fill="#000000" fill-opacity="1"><g transform="translate(353.256986, 865.643684)"><g/></g></g><g fill="#000000" fill-opacity="1"><g transform="translate(363.055637, 865.643684)"><g><path d="M 12.359375 0.40625 C 10.460938 0.40625 8.757812 -0.0234375 7.25 -0.890625 C 5.738281 -1.753906 4.546875 -3.03125 3.671875 -4.71875 C 2.796875 -6.40625 2.359375 -8.414062 2.359375 -10.75 C 2.359375 -13.113281 2.796875 -15.132812 3.671875 -16.8125 C 4.546875 -18.5 5.738281 -19.773438 7.25 -20.640625 C 8.757812 -21.503906 10.460938 -21.9375 12.359375 -21.9375 C 14.640625 -21.9375 16.453125 -21.507812 17.796875 -20.65625 C 19.140625 -19.800781 20.113281 -18.65625 20.71875 -17.21875 L 18.546875 -15.65625 L 18.15625 -15.65625 C 17.570312 -16.84375 16.820312 -17.710938 15.90625 -18.265625 C 14.988281 -18.816406 13.804688 -19.09375 12.359375 -19.09375 C 11.023438 -19.09375 9.859375 -18.78125 8.859375 -18.15625 C 7.859375 -17.53125 7.082031 -16.59375 6.53125 -15.34375 C 5.976562 -14.09375 5.703125 -12.5625 5.703125 -10.75 C 5.703125 -8.957031 5.976562 -7.4375 6.53125 -6.1875 C 7.09375 -4.945312 7.867188 -4.007812 8.859375 -3.375 C 9.859375 -2.75 11.023438 -2.4375 12.359375 -2.4375 C 13.859375 -2.4375 15.097656 -2.773438 16.078125 -3.453125 C 17.054688 -4.128906 17.828125 -5.195312 18.390625 -6.65625 L 18.796875 -6.65625 L 20.890625 -5.421875 C 20.328125 -3.617188 19.328125 -2.195312 17.890625 -1.15625 C 16.453125 -0.113281 14.609375 0.40625 12.359375 0.40625 Z M 12.359375 0.40625 "/></g></g></g><g fill="#000000" fill-opacity="1"><g transform="translate(385.248996, 865.643684)"><g><path d="M 8.890625 0.40625 C 6.765625 0.40625 5.101562 -0.144531 3.90625 -1.25 C 2.71875 -2.351562 2.125 -3.9375 2.125 -6 C 2.125 -7.269531 2.382812 -8.34375 2.90625 -9.21875 C 3.4375 -10.101562 4.253906 -10.820312 5.359375 -11.375 C 6.472656 -11.925781 7.921875 -12.351562 9.703125 -12.65625 C 11.265625 -12.914062 12.453125 -13.207031 13.265625 -13.53125 C 14.078125 -13.851562 14.625 -14.21875 14.90625 -14.625 C 15.1875 -15.03125 15.328125 -15.535156 15.328125 -16.140625 C 15.328125 -17.117188 14.988281 -17.867188 14.3125 -18.390625 C 13.644531 -18.910156 12.570312 -19.171875 11.09375 -19.171875 C 9.695312 -19.171875 8.5 -18.898438 7.5 -18.359375 C 6.507812 -17.816406 5.597656 -17.015625 4.765625 -15.953125 L 4.375 -15.953125 L 2.8125 -18.15625 C 3.71875 -19.3125 4.875 -20.226562 6.28125 -20.90625 C 7.6875 -21.59375 9.289062 -21.9375 11.09375 -21.9375 C 13.625 -21.9375 15.492188 -21.378906 16.703125 -20.265625 C 17.910156 -19.160156 18.515625 -17.625 18.515625 -15.65625 L 18.515625 -4.234375 C 18.515625 -3.035156 19.019531 -2.4375 20.03125 -2.4375 C 20.363281 -2.4375 20.6875 -2.492188 21 -2.609375 L 21.28125 -2.53125 L 21.65625 -0.328125 C 21.414062 -0.171875 21.101562 -0.0507812 20.71875 0.03125 C 20.332031 0.113281 19.941406 0.15625 19.546875 0.15625 C 18.359375 0.15625 17.460938 -0.101562 16.859375 -0.625 C 16.253906 -1.144531 15.867188 -1.910156 15.703125 -2.921875 L 15.28125 -2.96875 C 14.675781 -1.832031 13.851562 -0.984375 12.8125 -0.421875 C 11.769531 0.128906 10.460938 0.40625 8.890625 0.40625 Z M 9.59375 -2.125 C 10.78125 -2.125 11.8125 -2.398438 12.6875 -2.953125 C 13.570312 -3.503906 14.25 -4.28125 14.71875 -5.28125 C 15.1875 -6.289062 15.421875 -7.453125 15.421875 -8.765625 L 15.421875 -11.5 L 15.046875 -11.578125 C 14.566406 -11.234375 13.984375 -10.945312 13.296875 -10.71875 C 12.609375 -10.5 11.644531 -10.296875 10.40625 -10.109375 C 9.15625 -9.941406 8.160156 -9.679688 7.421875 -9.328125 C 6.691406 -8.984375 6.171875 -8.539062 5.859375 -8 C 5.546875 -7.457031 5.390625 -6.789062 5.390625 -6 C 5.390625 -4.726562 5.757812 -3.765625 6.5 -3.109375 C 7.238281 -2.453125 8.269531 -2.125 9.59375 -2.125 Z M 9.59375 -2.125 "/></g></g></g><g fill="#000000" fill-opacity="1"><g transform="translate(407.520433, 865.643684)"><g><path d="M 3.75 0 L 3.75 -21.53125 L 6.78125 -21.53125 L 6.78125 -18.15625 L 7.1875 -18.0625 C 7.90625 -19.320312 8.816406 -20.28125 9.921875 -20.9375 C 11.035156 -21.601562 12.394531 -21.9375 14 -21.9375 C 16.59375 -21.9375 18.46875 -21.273438 19.625 -19.953125 C 20.789062 -18.640625 21.375 -16.609375 21.375 -13.859375 L 21.375 0 L 18.203125 0 L 18.203125 -13.78125 C 18.203125 -15.082031 18.035156 -16.125 17.703125 -16.90625 C 17.367188 -17.695312 16.851562 -18.269531 16.15625 -18.625 C 15.457031 -18.988281 14.539062 -19.171875 13.40625 -19.171875 C 11.46875 -19.171875 9.90625 -18.53125 8.71875 -17.25 C 7.53125 -15.96875 6.9375 -13.898438 6.9375 -11.046875 L 6.9375 0 Z M 3.75 0 "/></g></g></g><g fill="#000000" fill-opacity="1"><g transform="translate(432.30985, 865.643684)"><g/></g></g><g fill="#000000" fill-opacity="1"><g transform="translate(442.108501, 865.643684)"><g><path d="M 3.75 8.734375 L 3.75 -21.53125 L 6.9375 -21.53125 L 6.9375 -18.3125 L 7.34375 -18.234375 C 8.945312 -20.703125 11.296875 -21.9375 14.390625 -21.9375 C 16.179688 -21.9375 17.75 -21.523438 19.09375 -20.703125 C 20.4375 -19.890625 21.476562 -18.644531 22.21875 -16.96875 C 22.957031 -15.300781 23.328125 -13.226562 23.328125 -10.75 C 23.328125 -8.289062 22.9375 -6.226562 22.15625 -4.5625 C 21.375 -2.894531 20.289062 -1.648438 18.90625 -0.828125 C 17.53125 -0.00390625 15.945312 0.40625 14.15625 0.40625 C 12.695312 0.40625 11.398438 0.15625 10.265625 -0.34375 C 9.140625 -0.851562 8.164062 -1.6875 7.34375 -2.84375 L 6.9375 -2.765625 L 6.9375 8.734375 Z M 13.453125 -2.4375 C 17.816406 -2.4375 20 -5.207031 20 -10.75 C 20 -16.3125 17.816406 -19.09375 13.453125 -19.09375 C 12.171875 -19.09375 11.039062 -18.800781 10.0625 -18.21875 C 9.09375 -17.632812 8.328125 -16.71875 7.765625 -15.46875 C 7.210938 -14.226562 6.9375 -12.65625 6.9375 -10.75 C 6.9375 -8.863281 7.210938 -7.300781 7.765625 -6.0625 C 8.328125 -4.820312 9.09375 -3.90625 10.0625 -3.3125 C 11.039062 -2.726562 12.171875 -2.4375 13.453125 -2.4375 Z M 13.453125 -2.4375 "/></g></g></g><g fill="#000000" fill-opacity="1"><g transform="translate(467.795802, 865.643684)"><g><path d="M 3.75 0 L 3.75 -21.53125 L 6.78125 -21.53125 L 6.78125 -18.15625 L 7.1875 -18.0625 C 8.1875 -20.507812 10.070312 -21.734375 12.84375 -21.734375 C 14.3125 -21.734375 15.410156 -21.460938 16.140625 -20.921875 L 15.328125 -18.234375 L 14.9375 -18.15625 C 14.125 -18.5625 13.238281 -18.765625 12.28125 -18.765625 C 10.5625 -18.765625 9.238281 -18.117188 8.3125 -16.828125 C 7.394531 -15.535156 6.9375 -13.445312 6.9375 -10.5625 L 6.9375 0 Z M 3.75 0 "/></g></g></g><g fill="#000000" fill-opacity="1"><g transform="translate(484.426182, 865.643684)"><g><path d="M 20.515625 -10.03125 L 5.71875 -10 C 5.820312 -7.394531 6.457031 -5.484375 7.625 -4.265625 C 8.789062 -3.046875 10.378906 -2.4375 12.390625 -2.4375 C 13.929688 -2.4375 15.171875 -2.707031 16.109375 -3.25 C 17.046875 -3.800781 17.78125 -4.664062 18.3125 -5.84375 L 18.71875 -5.84375 L 20.796875 -4.609375 C 20.171875 -3.046875 19.171875 -1.816406 17.796875 -0.921875 C 16.421875 -0.0351562 14.617188 0.40625 12.390625 0.40625 C 10.316406 0.40625 8.53125 0 7.03125 -0.8125 C 5.53125 -1.632812 4.375 -2.878906 3.5625 -4.546875 C 2.757812 -6.210938 2.359375 -8.28125 2.359375 -10.75 C 2.359375 -13.195312 2.785156 -15.257812 3.640625 -16.9375 C 4.492188 -18.625 5.660156 -19.878906 7.140625 -20.703125 C 8.617188 -21.523438 10.304688 -21.9375 12.203125 -21.9375 C 14.960938 -21.9375 17.113281 -21.160156 18.65625 -19.609375 C 20.207031 -18.054688 20.988281 -15.75 21 -12.6875 C 21 -11.488281 20.972656 -10.679688 20.921875 -10.265625 Z M 17.859375 -12.6875 C 17.804688 -14.976562 17.296875 -16.644531 16.328125 -17.6875 C 15.367188 -18.726562 13.992188 -19.25 12.203125 -19.25 C 10.316406 -19.25 8.835938 -18.722656 7.765625 -17.671875 C 6.691406 -16.628906 6.035156 -14.96875 5.796875 -12.6875 Z M 17.859375 -12.6875 "/></g></g></g><g fill="#000000" fill-opacity="1"><g transform="translate(507.380791, 865.643684)"><g><path d="M 13.625 0 L 9.25 0 L 1.046875 -21.53125 L 4.484375 -21.53125 L 11.265625 -3.625 L 11.71875 -3.625 L 18.4375 -21.53125 L 21.78125 -21.53125 Z M 13.625 0 "/></g></g></g><g fill="#000000" fill-opacity="1"><g transform="translate(530.198743, 865.643684)"><g><path d="M 20.515625 -10.03125 L 5.71875 -10 C 5.820312 -7.394531 6.457031 -5.484375 7.625 -4.265625 C 8.789062 -3.046875 10.378906 -2.4375 12.390625 -2.4375 C 13.929688 -2.4375 15.171875 -2.707031 16.109375 -3.25 C 17.046875 -3.800781 17.78125 -4.664062 18.3125 -5.84375 L 18.71875 -5.84375 L 20.796875 -4.609375 C 20.171875 -3.046875 19.171875 -1.816406 17.796875 -0.921875 C 16.421875 -0.0351562 14.617188 0.40625 12.390625 0.40625 C 10.316406 0.40625 8.53125 0 7.03125 -0.8125 C 5.53125 -1.632812 4.375 -2.878906 3.5625 -4.546875 C 2.757812 -6.210938 2.359375 -8.28125 2.359375 -10.75 C 2.359375 -13.195312 2.785156 -15.257812 3.640625 -16.9375 C 4.492188 -18.625 5.660156 -19.878906 7.140625 -20.703125 C 8.617188 -21.523438 10.304688 -21.9375 12.203125 -21.9375 C 14.960938 -21.9375 17.113281 -21.160156 18.65625 -19.609375 C 20.207031 -18.054688 20.988281 -15.75 21 -12.6875 C 21 -11.488281 20.972656 -10.679688 20.921875 -10.265625 Z M 17.859375 -12.6875 C 17.804688 -14.976562 17.296875 -16.644531 16.328125 -17.6875 C 15.367188 -18.726562 13.992188 -19.25 12.203125 -19.25 C 10.316406 -19.25 8.835938 -18.722656 7.765625 -17.671875 C 6.691406 -16.628906 6.035156 -14.96875 5.796875 -12.6875 Z M 17.859375 -12.6875 "/></g></g></g><g fill="#000000" fill-opacity="1"><g transform="translate(553.153352, 865.643684)"><g><path d="M 3.75 0 L 3.75 -21.53125 L 6.78125 -21.53125 L 6.78125 -18.15625 L 7.1875 -18.0625 C 7.90625 -19.320312 8.816406 -20.28125 9.921875 -20.9375 C 11.035156 -21.601562 12.394531 -21.9375 14 -21.9375 C 16.59375 -21.9375 18.46875 -21.273438 19.625 -19.953125 C 20.789062 -18.640625 21.375 -16.609375 21.375 -13.859375 L 21.375 0 L 18.203125 0 L 18.203125 -13.78125 C 18.203125 -15.082031 18.035156 -16.125 17.703125 -16.90625 C 17.367188 -17.695312 16.851562 -18.269531 16.15625 -18.625 C 15.457031 -18.988281 14.539062 -19.171875 13.40625 -19.171875 C 11.46875 -19.171875 9.90625 -18.53125 8.71875 -17.25 C 7.53125 -15.96875 6.9375 -13.898438 6.9375 -11.046875 L 6.9375 0 Z M 3.75 0 "/></g></g></g><g fill="#000000" fill-opacity="1"><g transform="translate(577.942769, 865.643684)"><g><path d="M 14.5625 -3.421875 L 15.578125 -1.125 C 15.066406 -0.625 14.398438 -0.242188 13.578125 0.015625 C 12.753906 0.273438 11.859375 0.40625 10.890625 0.40625 C 6.773438 0.40625 4.71875 -1.675781 4.71875 -5.84375 L 4.71875 -18.921875 L 0.96875 -18.921875 L 0.96875 -21.53125 L 4.71875 -21.53125 L 4.71875 -26.109375 L 7.90625 -26.625 L 7.90625 -21.53125 L 14.84375 -21.53125 L 14.84375 -18.921875 L 7.90625 -18.921875 L 7.90625 -6.15625 C 7.90625 -3.675781 8.976562 -2.4375 11.125 -2.4375 C 12.300781 -2.4375 13.3125 -2.765625 14.15625 -3.421875 Z M 14.5625 -3.421875 "/></g></g></g><g fill="#000000" fill-opacity="1"><g transform="translate(594.338918, 865.643684)"><g/></g></g><g fill="#000000" fill-opacity="1"><g transform="translate(604.137569, 865.643684)"><g><path d="M 5.34375 -25.6875 C 4.664062 -25.6875 4.113281 -25.898438 3.6875 -26.328125 C 3.269531 -26.753906 3.0625 -27.289062 3.0625 -27.9375 C 3.0625 -28.59375 3.269531 -29.128906 3.6875 -29.546875 C 4.113281 -29.972656 4.664062 -30.1875 5.34375 -30.1875 C 6.019531 -30.1875 6.570312 -29.972656 7 -29.546875 C 7.425781 -29.128906 7.640625 -28.59375 7.640625 -27.9375 C 7.640625 -27.289062 7.425781 -26.753906 7 -26.328125 C 6.570312 -25.898438 6.019531 -25.6875 5.34375 -25.6875 Z M 6.9375 0 L 3.75 0 L 3.75 -21.53125 L 6.9375 -21.53125 Z M 6.9375 0 "/></g></g></g><g fill="#000000" fill-opacity="1"><g transform="translate(614.814609, 865.643684)"><g><path d="M 14.5625 -3.421875 L 15.578125 -1.125 C 15.066406 -0.625 14.398438 -0.242188 13.578125 0.015625 C 12.753906 0.273438 11.859375 0.40625 10.890625 0.40625 C 6.773438 0.40625 4.71875 -1.675781 4.71875 -5.84375 L 4.71875 -18.921875 L 0.96875 -18.921875 L 0.96875 -21.53125 L 4.71875 -21.53125 L 4.71875 -26.109375 L 7.90625 -26.625 L 7.90625 -21.53125 L 14.84375 -21.53125 L 14.84375 -18.921875 L 7.90625 -18.921875 L 7.90625 -6.15625 C 7.90625 -3.675781 8.976562 -2.4375 11.125 -2.4375 C 12.300781 -2.4375 13.3125 -2.765625 14.15625 -3.421875 Z M 14.5625 -3.421875 "/></g></g></g><g fill="#000000" fill-opacity="1"><g transform="translate(168.726117, 921.13119)"><g><path d="M 11.453125 -27.90625 C 10.191406 -27.90625 9.238281 -27.578125 8.59375 -26.921875 C 7.957031 -26.273438 7.640625 -25.351562 7.640625 -24.15625 C 7.640625 -23.394531 7.753906 -22.519531 7.984375 -21.53125 L 14.84375 -21.53125 L 14.84375 -18.921875 L 7.984375 -18.921875 L 7.984375 0 L 4.796875 0 L 4.796875 -18.921875 L 1.046875 -18.921875 L 1.046875 -21.53125 L 4.796875 -21.53125 C 4.566406 -22.46875 4.453125 -23.367188 4.453125 -24.234375 C 4.453125 -25.617188 4.75 -26.789062 5.34375 -27.75 C 5.9375 -28.707031 6.757812 -29.421875 7.8125 -29.890625 C 8.863281 -30.359375 10.078125 -30.59375 11.453125 -30.59375 C 13.609375 -30.59375 15.257812 -30.128906 16.40625 -29.203125 L 15.171875 -26.96875 L 14.765625 -26.890625 C 13.910156 -27.566406 12.804688 -27.90625 11.453125 -27.90625 Z M 11.453125 -27.90625 "/></g></g></g><g fill="#000000" fill-opacity="1"><g transform="translate(184.068228, 921.13119)"><g><path d="M 3.75 0 L 3.75 -21.53125 L 6.78125 -21.53125 L 6.78125 -18.15625 L 7.1875 -18.0625 C 8.1875 -20.507812 10.070312 -21.734375 12.84375 -21.734375 C 14.3125 -21.734375 15.410156 -21.460938 16.140625 -20.921875 L 15.328125 -18.234375 L 14.9375 -18.15625 C 14.125 -18.5625 13.238281 -18.765625 12.28125 -18.765625 C 10.5625 -18.765625 9.238281 -18.117188 8.3125 -16.828125 C 7.394531 -15.535156 6.9375 -13.445312 6.9375 -10.5625 L 6.9375 0 Z M 3.75 0 "/></g></g></g><g fill="#000000" fill-opacity="1"><g transform="translate(200.698609, 921.13119)"><g><path d="M 12.359375 0.40625 C 10.328125 0.40625 8.554688 -0.0195312 7.046875 -0.875 C 5.546875 -1.738281 4.390625 -3.003906 3.578125 -4.671875 C 2.765625 -6.347656 2.359375 -8.375 2.359375 -10.75 C 2.359375 -13.132812 2.765625 -15.164062 3.578125 -16.84375 C 4.390625 -18.53125 5.546875 -19.800781 7.046875 -20.65625 C 8.554688 -21.507812 10.328125 -21.9375 12.359375 -21.9375 C 14.390625 -21.9375 16.15625 -21.507812 17.65625 -20.65625 C 19.164062 -19.800781 20.328125 -18.53125 21.140625 -16.84375 C 21.953125 -15.164062 22.359375 -13.132812 22.359375 -10.75 C 22.359375 -8.375 21.953125 -6.347656 21.140625 -4.671875 C 20.328125 -3.003906 19.164062 -1.738281 17.65625 -0.875 C 16.15625 -0.0195312 14.390625 0.40625 12.359375 0.40625 Z M 12.359375 -2.4375 C 14.503906 -2.4375 16.144531 -3.113281 17.28125 -4.46875 C 18.425781 -5.820312 19 -7.914062 19 -10.75 C 19 -13.601562 18.425781 -15.707031 17.28125 -17.0625 C 16.144531 -18.414062 14.503906 -19.09375 12.359375 -19.09375 C 10.210938 -19.09375 8.566406 -18.410156 7.421875 -17.046875 C 6.273438 -15.691406 5.703125 -13.59375 5.703125 -10.75 C 5.703125 -7.914062 6.273438 -5.820312 7.421875 -4.46875 C 8.566406 -3.113281 10.210938 -2.4375 12.359375 -2.4375 Z M 12.359375 -2.4375 "/></g></g></g><g fill="#000000" fill-opacity="1"><g transform="translate(225.409948, 921.13119)"><g><path d="M 3.75 0 L 3.75 -21.53125 L 6.78125 -21.53125 L 6.78125 -18.359375 L 7.1875 -18.28125 C 7.914062 -19.488281 8.796875 -20.398438 9.828125 -21.015625 C 10.859375 -21.628906 12.097656 -21.9375 13.546875 -21.9375 C 15.210938 -21.9375 16.5 -21.617188 17.40625 -20.984375 C 18.320312 -20.359375 19.035156 -19.34375 19.546875 -17.9375 L 19.953125 -17.9375 C 20.691406 -19.257812 21.601562 -20.253906 22.6875 -20.921875 C 23.78125 -21.597656 25.117188 -21.9375 26.703125 -21.9375 C 28.921875 -21.9375 30.570312 -21.335938 31.65625 -20.140625 C 32.738281 -18.953125 33.28125 -17.132812 33.28125 -14.6875 L 33.28125 0 L 30.109375 0 L 30.109375 -14.609375 C 30.109375 -16.171875 29.78125 -17.320312 29.125 -18.0625 C 28.46875 -18.800781 27.410156 -19.171875 25.953125 -19.171875 C 24.234375 -19.171875 22.828125 -18.546875 21.734375 -17.296875 C 20.648438 -16.046875 20.109375 -13.988281 20.109375 -11.125 L 20.109375 0 L 16.921875 0 L 16.921875 -14.609375 C 16.921875 -16.171875 16.59375 -17.320312 15.9375 -18.0625 C 15.28125 -18.800781 14.222656 -19.171875 12.765625 -19.171875 C 11.046875 -19.171875 9.644531 -18.566406 8.5625 -17.359375 C 7.476562 -16.148438 6.9375 -14.179688 6.9375 -11.453125 L 6.9375 0 Z M 3.75 0 "/></g></g></g><g fill="#000000" fill-opacity="1"><g transform="translate(262.106093, 921.13119)"><g/></g></g><g fill="#000000" fill-opacity="1"><g transform="translate(271.904744, 921.13119)"><g><path d="M 20.515625 -10.03125 L 5.71875 -10 C 5.820312 -7.394531 6.457031 -5.484375 7.625 -4.265625 C 8.789062 -3.046875 10.378906 -2.4375 12.390625 -2.4375 C 13.929688 -2.4375 15.171875 -2.707031 16.109375 -3.25 C 17.046875 -3.800781 17.78125 -4.664062 18.3125 -5.84375 L 18.71875 -5.84375 L 20.796875 -4.609375 C 20.171875 -3.046875 19.171875 -1.816406 17.796875 -0.921875 C 16.421875 -0.0351562 14.617188 0.40625 12.390625 0.40625 C 10.316406 0.40625 8.53125 0 7.03125 -0.8125 C 5.53125 -1.632812 4.375 -2.878906 3.5625 -4.546875 C 2.757812 -6.210938 2.359375 -8.28125 2.359375 -10.75 C 2.359375 -13.195312 2.785156 -15.257812 3.640625 -16.9375 C 4.492188 -18.625 5.660156 -19.878906 7.140625 -20.703125 C 8.617188 -21.523438 10.304688 -21.9375 12.203125 -21.9375 C 14.960938 -21.9375 17.113281 -21.160156 18.65625 -19.609375 C 20.207031 -18.054688 20.988281 -15.75 21 -12.6875 C 21 -11.488281 20.972656 -10.679688 20.921875 -10.265625 Z M 17.859375 -12.6875 C 17.804688 -14.976562 17.296875 -16.644531 16.328125 -17.6875 C 15.367188 -18.726562 13.992188 -19.25 12.203125 -19.25 C 10.316406 -19.25 8.835938 -18.722656 7.765625 -17.671875 C 6.691406 -16.628906 6.035156 -14.96875 5.796875 -12.6875 Z M 17.859375 -12.6875 "/></g></g></g><g fill="#000000" fill-opacity="1"><g transform="translate(294.859353, 921.13119)"><g><path d="M 13.625 0 L 9.25 0 L 1.046875 -21.53125 L 4.484375 -21.53125 L 11.265625 -3.625 L 11.71875 -3.625 L 18.4375 -21.53125 L 21.78125 -21.53125 Z M 13.625 0 "/></g></g></g><g fill="#000000" fill-opacity="1"><g transform="translate(317.677328, 921.13119)"><g><path d="M 20.515625 -10.03125 L 5.71875 -10 C 5.820312 -7.394531 6.457031 -5.484375 7.625 -4.265625 C 8.789062 -3.046875 10.378906 -2.4375 12.390625 -2.4375 C 13.929688 -2.4375 15.171875 -2.707031 16.109375 -3.25 C 17.046875 -3.800781 17.78125 -4.664062 18.3125 -5.84375 L 18.71875 -5.84375 L 20.796875 -4.609375 C 20.171875 -3.046875 19.171875 -1.816406 17.796875 -0.921875 C 16.421875 -0.0351562 14.617188 0.40625 12.390625 0.40625 C 10.316406 0.40625 8.53125 0 7.03125 -0.8125 C 5.53125 -1.632812 4.375 -2.878906 3.5625 -4.546875 C 2.757812 -6.210938 2.359375 -8.28125 2.359375 -10.75 C 2.359375 -13.195312 2.785156 -15.257812 3.640625 -16.9375 C 4.492188 -18.625 5.660156 -19.878906 7.140625 -20.703125 C 8.617188 -21.523438 10.304688 -21.9375 12.203125 -21.9375 C 14.960938 -21.9375 17.113281 -21.160156 18.65625 -19.609375 C 20.207031 -18.054688 20.988281 -15.75 21 -12.6875 C 21 -11.488281 20.972656 -10.679688 20.921875 -10.265625 Z M 17.859375 -12.6875 C 17.804688 -14.976562 17.296875 -16.644531 16.328125 -17.6875 C 15.367188 -18.726562 13.992188 -19.25 12.203125 -19.25 C 10.316406 -19.25 8.835938 -18.722656 7.765625 -17.671875 C 6.691406 -16.628906 6.035156 -14.96875 5.796875 -12.6875 Z M 17.859375 -12.6875 "/></g></g></g><g fill="#000000" fill-opacity="1"><g transform="translate(340.631937, 921.13119)"><g><path d="M 3.75 0 L 3.75 -21.53125 L 6.78125 -21.53125 L 6.78125 -18.15625 L 7.1875 -18.0625 C 8.1875 -20.507812 10.070312 -21.734375 12.84375 -21.734375 C 14.3125 -21.734375 15.410156 -21.460938 16.140625 -20.921875 L 15.328125 -18.234375 L 14.9375 -18.15625 C 14.125 -18.5625 13.238281 -18.765625 12.28125 -18.765625 C 10.5625 -18.765625 9.238281 -18.117188 8.3125 -16.828125 C 7.394531 -15.535156 6.9375 -13.445312 6.9375 -10.5625 L 6.9375 0 Z M 3.75 0 "/></g></g></g><g fill="#000000" fill-opacity="1"><g transform="translate(357.262317, 921.13119)"><g/></g></g><g fill="#000000" fill-opacity="1"><g transform="translate(367.060969, 921.13119)"><g><path d="M 3.75 0 L 3.75 -30.1875 L 6.9375 -30.1875 L 6.9375 -18.46875 L 7.34375 -18.390625 C 8.875 -20.753906 11.09375 -21.9375 14 -21.9375 C 16.59375 -21.9375 18.46875 -21.273438 19.625 -19.953125 C 20.789062 -18.640625 21.375 -16.609375 21.375 -13.859375 L 21.375 0 L 18.203125 0 L 18.203125 -13.78125 C 18.203125 -15.082031 18.035156 -16.125 17.703125 -16.90625 C 17.367188 -17.695312 16.851562 -18.269531 16.15625 -18.625 C 15.457031 -18.988281 14.539062 -19.171875 13.40625 -19.171875 C 11.457031 -19.171875 9.890625 -18.539062 8.703125 -17.28125 C 7.523438 -16.019531 6.9375 -13.941406 6.9375 -11.046875 L 6.9375 0 Z M 3.75 0 "/></g></g></g><g fill="#000000" fill-opacity="1"><g transform="translate(391.850385, 921.13119)"><g><path d="M 8.890625 0.40625 C 6.765625 0.40625 5.101562 -0.144531 3.90625 -1.25 C 2.71875 -2.351562 2.125 -3.9375 2.125 -6 C 2.125 -7.269531 2.382812 -8.34375 2.90625 -9.21875 C 3.4375 -10.101562 4.253906 -10.820312 5.359375 -11.375 C 6.472656 -11.925781 7.921875 -12.351562 9.703125 -12.65625 C 11.265625 -12.914062 12.453125 -13.207031 13.265625 -13.53125 C 14.078125 -13.851562 14.625 -14.21875 14.90625 -14.625 C 15.1875 -15.03125 15.328125 -15.535156 15.328125 -16.140625 C 15.328125 -17.117188 14.988281 -17.867188 14.3125 -18.390625 C 13.644531 -18.910156 12.570312 -19.171875 11.09375 -19.171875 C 9.695312 -19.171875 8.5 -18.898438 7.5 -18.359375 C 6.507812 -17.816406 5.597656 -17.015625 4.765625 -15.953125 L 4.375 -15.953125 L 2.8125 -18.15625 C 3.71875 -19.3125 4.875 -20.226562 6.28125 -20.90625 C 7.6875 -21.59375 9.289062 -21.9375 11.09375 -21.9375 C 13.625 -21.9375 15.492188 -21.378906 16.703125 -20.265625 C 17.910156 -19.160156 18.515625 -17.625 18.515625 -15.65625 L 18.515625 -4.234375 C 18.515625 -3.035156 19.019531 -2.4375 20.03125 -2.4375 C 20.363281 -2.4375 20.6875 -2.492188 21 -2.609375 L 21.28125 -2.53125 L 21.65625 -0.328125 C 21.414062 -0.171875 21.101562 -0.0507812 20.71875 0.03125 C 20.332031 0.113281 19.941406 0.15625 19.546875 0.15625 C 18.359375 0.15625 17.460938 -0.101562 16.859375 -0.625 C 16.253906 -1.144531 15.867188 -1.910156 15.703125 -2.921875 L 15.28125 -2.96875 C 14.675781 -1.832031 13.851562 -0.984375 12.8125 -0.421875 C 11.769531 0.128906 10.460938 0.40625 8.890625 0.40625 Z M 9.59375 -2.125 C 10.78125 -2.125 11.8125 -2.398438 12.6875 -2.953125 C 13.570312 -3.503906 14.25 -4.28125 14.71875 -5.28125 C 15.1875 -6.289062 15.421875 -7.453125 15.421875 -8.765625 L 15.421875 -11.5 L 15.046875 -11.578125 C 14.566406 -11.234375 13.984375 -10.945312 13.296875 -10.71875 C 12.609375 -10.5 11.644531 -10.296875 10.40625 -10.109375 C 9.15625 -9.941406 8.160156 -9.679688 7.421875 -9.328125 C 6.691406 -8.984375 6.171875 -8.539062 5.859375 -8 C 5.546875 -7.457031 5.390625 -6.789062 5.390625 -6 C 5.390625 -4.726562 5.757812 -3.765625 6.5 -3.109375 C 7.238281 -2.453125 8.269531 -2.125 9.59375 -2.125 Z M 9.59375 -2.125 "/></g></g></g><g fill="#000000" fill-opacity="1"><g transform="translate(414.121822, 921.13119)"><g><path d="M 3.75 8.734375 L 3.75 -21.53125 L 6.9375 -21.53125 L 6.9375 -18.3125 L 7.34375 -18.234375 C 8.945312 -20.703125 11.296875 -21.9375 14.390625 -21.9375 C 16.179688 -21.9375 17.75 -21.523438 19.09375 -20.703125 C 20.4375 -19.890625 21.476562 -18.644531 22.21875 -16.96875 C 22.957031 -15.300781 23.328125 -13.226562 23.328125 -10.75 C 23.328125 -8.289062 22.9375 -6.226562 22.15625 -4.5625 C 21.375 -2.894531 20.289062 -1.648438 18.90625 -0.828125 C 17.53125 -0.00390625 15.945312 0.40625 14.15625 0.40625 C 12.695312 0.40625 11.398438 0.15625 10.265625 -0.34375 C 9.140625 -0.851562 8.164062 -1.6875 7.34375 -2.84375 L 6.9375 -2.765625 L 6.9375 8.734375 Z M 13.453125 -2.4375 C 17.816406 -2.4375 20 -5.207031 20 -10.75 C 20 -16.3125 17.816406 -19.09375 13.453125 -19.09375 C 12.171875 -19.09375 11.039062 -18.800781 10.0625 -18.21875 C 9.09375 -17.632812 8.328125 -16.71875 7.765625 -15.46875 C 7.210938 -14.226562 6.9375 -12.65625 6.9375 -10.75 C 6.9375 -8.863281 7.210938 -7.300781 7.765625 -6.0625 C 8.328125 -4.820312 9.09375 -3.90625 10.0625 -3.3125 C 11.039062 -2.726562 12.171875 -2.4375 13.453125 -2.4375 Z M 13.453125 -2.4375 "/></g></g></g><g fill="#000000" fill-opacity="1"><g transform="translate(439.809123, 921.13119)"><g><path d="M 3.75 8.734375 L 3.75 -21.53125 L 6.9375 -21.53125 L 6.9375 -18.3125 L 7.34375 -18.234375 C 8.945312 -20.703125 11.296875 -21.9375 14.390625 -21.9375 C 16.179688 -21.9375 17.75 -21.523438 19.09375 -20.703125 C 20.4375 -19.890625 21.476562 -18.644531 22.21875 -16.96875 C 22.957031 -15.300781 23.328125 -13.226562 23.328125 -10.75 C 23.328125 -8.289062 22.9375 -6.226562 22.15625 -4.5625 C 21.375 -2.894531 20.289062 -1.648438 18.90625 -0.828125 C 17.53125 -0.00390625 15.945312 0.40625 14.15625 0.40625 C 12.695312 0.40625 11.398438 0.15625 10.265625 -0.34375 C 9.140625 -0.851562 8.164062 -1.6875 7.34375 -2.84375 L 6.9375 -2.765625 L 6.9375 8.734375 Z M 13.453125 -2.4375 C 17.816406 -2.4375 20 -5.207031 20 -10.75 C 20 -16.3125 17.816406 -19.09375 13.453125 -19.09375 C 12.171875 -19.09375 11.039062 -18.800781 10.0625 -18.21875 C 9.09375 -17.632812 8.328125 -16.71875 7.765625 -15.46875 C 7.210938 -14.226562 6.9375 -12.65625 6.9375 -10.75 C 6.9375 -8.863281 7.210938 -7.300781 7.765625 -6.0625 C 8.328125 -4.820312 9.09375 -3.90625 10.0625 -3.3125 C 11.039062 -2.726562 12.171875 -2.4375 13.453125 -2.4375 Z M 13.453125 -2.4375 "/></g></g></g><g fill="#000000" fill-opacity="1"><g transform="translate(465.496423, 921.13119)"><g><path d="M 20.515625 -10.03125 L 5.71875 -10 C 5.820312 -7.394531 6.457031 -5.484375 7.625 -4.265625 C 8.789062 -3.046875 10.378906 -2.4375 12.390625 -2.4375 C 13.929688 -2.4375 15.171875 -2.707031 16.109375 -3.25 C 17.046875 -3.800781 17.78125 -4.664062 18.3125 -5.84375 L 18.71875 -5.84375 L 20.796875 -4.609375 C 20.171875 -3.046875 19.171875 -1.816406 17.796875 -0.921875 C 16.421875 -0.0351562 14.617188 0.40625 12.390625 0.40625 C 10.316406 0.40625 8.53125 0 7.03125 -0.8125 C 5.53125 -1.632812 4.375 -2.878906 3.5625 -4.546875 C 2.757812 -6.210938 2.359375 -8.28125 2.359375 -10.75 C 2.359375 -13.195312 2.785156 -15.257812 3.640625 -16.9375 C 4.492188 -18.625 5.660156 -19.878906 7.140625 -20.703125 C 8.617188 -21.523438 10.304688 -21.9375 12.203125 -21.9375 C 14.960938 -21.9375 17.113281 -21.160156 18.65625 -19.609375 C 20.207031 -18.054688 20.988281 -15.75 21 -12.6875 C 21 -11.488281 20.972656 -10.679688 20.921875 -10.265625 Z M 17.859375 -12.6875 C 17.804688 -14.976562 17.296875 -16.644531 16.328125 -17.6875 C 15.367188 -18.726562 13.992188 -19.25 12.203125 -19.25 C 10.316406 -19.25 8.835938 -18.722656 7.765625 -17.671875 C 6.691406 -16.628906 6.035156 -14.96875 5.796875 -12.6875 Z M 17.859375 -12.6875 "/></g></g></g><g fill="#000000" fill-opacity="1"><g transform="translate(488.451032, 921.13119)"><g><path d="M 3.75 0 L 3.75 -21.53125 L 6.78125 -21.53125 L 6.78125 -18.15625 L 7.1875 -18.0625 C 7.90625 -19.320312 8.816406 -20.28125 9.921875 -20.9375 C 11.035156 -21.601562 12.394531 -21.9375 14 -21.9375 C 16.59375 -21.9375 18.46875 -21.273438 19.625 -19.953125 C 20.789062 -18.640625 21.375 -16.609375 21.375 -13.859375 L 21.375 0 L 18.203125 0 L 18.203125 -13.78125 C 18.203125 -15.082031 18.035156 -16.125 17.703125 -16.90625 C 17.367188 -17.695312 16.851562 -18.269531 16.15625 -18.625 C 15.457031 -18.988281 14.539062 -19.171875 13.40625 -19.171875 C 11.46875 -19.171875 9.90625 -18.53125 8.71875 -17.25 C 7.53125 -15.96875 6.9375 -13.898438 6.9375 -11.046875 L 6.9375 0 Z M 3.75 0 "/></g></g></g><g fill="#000000" fill-opacity="1"><g transform="translate(513.240449, 921.13119)"><g><path d="M 5.34375 -25.6875 C 4.664062 -25.6875 4.113281 -25.898438 3.6875 -26.328125 C 3.269531 -26.753906 3.0625 -27.289062 3.0625 -27.9375 C 3.0625 -28.59375 3.269531 -29.128906 3.6875 -29.546875 C 4.113281 -29.972656 4.664062 -30.1875 5.34375 -30.1875 C 6.019531 -30.1875 6.570312 -29.972656 7 -29.546875 C 7.425781 -29.128906 7.640625 -28.59375 7.640625 -27.9375 C 7.640625 -27.289062 7.425781 -26.753906 7 -26.328125 C 6.570312 -25.898438 6.019531 -25.6875 5.34375 -25.6875 Z M 6.9375 0 L 3.75 0 L 3.75 -21.53125 L 6.9375 -21.53125 Z M 6.9375 0 "/></g></g></g><g fill="#000000" fill-opacity="1"><g transform="translate(523.917466, 921.13119)"><g><path d="M 3.75 0 L 3.75 -21.53125 L 6.78125 -21.53125 L 6.78125 -18.15625 L 7.1875 -18.0625 C 7.90625 -19.320312 8.816406 -20.28125 9.921875 -20.9375 C 11.035156 -21.601562 12.394531 -21.9375 14 -21.9375 C 16.59375 -21.9375 18.46875 -21.273438 19.625 -19.953125 C 20.789062 -18.640625 21.375 -16.609375 21.375 -13.859375 L 21.375 0 L 18.203125 0 L 18.203125 -13.78125 C 18.203125 -15.082031 18.035156 -16.125 17.703125 -16.90625 C 17.367188 -17.695312 16.851562 -18.269531 16.15625 -18.625 C 15.457031 -18.988281 14.539062 -19.171875 13.40625 -19.171875 C 11.46875 -19.171875 9.90625 -18.53125 8.71875 -17.25 C 7.53125 -15.96875 6.9375 -13.898438 6.9375 -11.046875 L 6.9375 0 Z M 3.75 0 "/></g></g></g><g fill="#000000" fill-opacity="1"><g transform="translate(548.706882, 921.13119)"><g><path d="M 11.09375 9.140625 C 7.695312 9.140625 5.21875 8.570312 3.65625 7.4375 C 2.09375 6.300781 1.3125 4.796875 1.3125 2.921875 C 1.3125 1.710938 1.675781 0.75 2.40625 0.03125 C 3.132812 -0.675781 4.191406 -1.1875 5.578125 -1.5 L 5.578125 -1.90625 C 4.921875 -2.289062 4.425781 -2.734375 4.09375 -3.234375 C 3.757812 -3.742188 3.59375 -4.351562 3.59375 -5.0625 C 3.59375 -5.894531 3.851562 -6.570312 4.375 -7.09375 C 4.90625 -7.613281 5.691406 -8.007812 6.734375 -8.28125 L 6.734375 -8.6875 C 4.390625 -9.925781 3.21875 -11.9375 3.21875 -14.71875 C 3.21875 -16.125 3.535156 -17.375 4.171875 -18.46875 C 4.816406 -19.5625 5.726562 -20.410156 6.90625 -21.015625 C 8.09375 -21.628906 9.472656 -21.9375 11.046875 -21.9375 C 12.859375 -21.9375 14.367188 -21.539062 15.578125 -20.75 C 16.035156 -21.257812 16.378906 -21.800781 16.609375 -22.375 C 16.835938 -22.957031 16.984375 -23.613281 17.046875 -24.34375 L 17.453125 -24.59375 L 20.0625 -23.96875 C 19.9375 -22.875 19.609375 -21.945312 19.078125 -21.1875 C 18.554688 -20.4375 17.8125 -19.816406 16.84375 -19.328125 L 16.84375 -18.921875 C 17.539062 -18.367188 18.050781 -17.722656 18.375 -16.984375 C 18.707031 -16.253906 18.875 -15.398438 18.875 -14.421875 C 18.875 -13.066406 18.546875 -11.847656 17.890625 -10.765625 C 17.242188 -9.691406 16.328125 -8.84375 15.140625 -8.21875 C 13.960938 -7.601562 12.597656 -7.296875 11.046875 -7.296875 C 10.867188 -7.296875 10.546875 -7.3125 10.078125 -7.34375 C 9.554688 -7.363281 9.171875 -7.375 8.921875 -7.375 C 8.242188 -7.375 7.703125 -7.195312 7.296875 -6.84375 C 6.898438 -6.5 6.703125 -6.050781 6.703125 -5.5 C 6.703125 -4.820312 6.914062 -4.320312 7.34375 -4 C 7.78125 -3.6875 8.503906 -3.507812 9.515625 -3.46875 L 14.609375 -3.296875 C 16.804688 -3.222656 18.429688 -2.710938 19.484375 -1.765625 C 20.546875 -0.816406 21.078125 0.519531 21.078125 2.25 C 21.078125 3.53125 20.734375 4.6875 20.046875 5.71875 C 19.359375 6.757812 18.265625 7.585938 16.765625 8.203125 C 15.273438 8.828125 13.382812 9.140625 11.09375 9.140625 Z M 11.046875 -10.03125 C 12.566406 -10.03125 13.742188 -10.425781 14.578125 -11.21875 C 15.410156 -12.019531 15.828125 -13.132812 15.828125 -14.5625 C 15.828125 -16.050781 15.414062 -17.195312 14.59375 -18 C 13.769531 -18.8125 12.585938 -19.21875 11.046875 -19.21875 C 9.515625 -19.21875 8.34375 -18.816406 7.53125 -18.015625 C 6.726562 -17.210938 6.328125 -16.0625 6.328125 -14.5625 C 6.328125 -13.113281 6.726562 -11.992188 7.53125 -11.203125 C 8.34375 -10.421875 9.515625 -10.03125 11.046875 -10.03125 Z M 11.09375 6.40625 C 12.675781 6.40625 13.972656 6.226562 14.984375 5.875 C 15.992188 5.519531 16.71875 5.050781 17.15625 4.46875 C 17.601562 3.894531 17.828125 3.25 17.828125 2.53125 C 17.828125 1.894531 17.707031 1.378906 17.46875 0.984375 C 17.226562 0.597656 16.835938 0.304688 16.296875 0.109375 C 15.765625 -0.078125 15.035156 -0.195312 14.109375 -0.25 L 9.296875 -0.484375 L 8.609375 -0.484375 C 5.910156 -0.441406 4.5625 0.601562 4.5625 2.65625 C 4.5625 5.15625 6.738281 6.40625 11.09375 6.40625 Z M 11.09375 6.40625 "/></g></g></g><g fill="#000000" fill-opacity="1"><g transform="translate(570.763585, 921.13119)"><g><path d="M 5.25 0.1875 C 4.507812 0.1875 3.921875 -0.015625 3.484375 -0.421875 C 3.054688 -0.835938 2.84375 -1.394531 2.84375 -2.09375 C 2.84375 -2.769531 3.054688 -3.320312 3.484375 -3.75 C 3.921875 -4.1875 4.507812 -4.40625 5.25 -4.40625 C 6.007812 -4.40625 6.601562 -4.195312 7.03125 -3.78125 C 7.457031 -3.363281 7.671875 -2.8125 7.671875 -2.125 C 7.671875 -1.4375 7.453125 -0.878906 7.015625 -0.453125 C 6.578125 -0.0234375 5.988281 0.1875 5.25 0.1875 Z M 5.25 0.1875 "/></g></g></g></svg>