<svg xmlns="http://www.w3.org/2000/svg" xmlns:xlink="http://www.w3.org/1999/xlink" width="1200" zoomAndPan="magnify" viewBox="0 0 900 599.999999" height="800" preserveAspectRatio="xMidYMid meet" version="1.0"><defs><clipPath id="58363c6b48"><path d="M 386 12.011719 L 504 12.011719 L 504 138 L 386 138 Z M 386 12.011719 " clip-rule="nonzero"/></clipPath><clipPath id="cbd4cefedc"><path d="M 386 12.011719 L 505 12.011719 L 505 138 L 386 138 Z M 386 12.011719 " clip-rule="nonzero"/></clipPath></defs><path fill="#1a181a" d="M 689.261719 392.792969 C 697.167969 397.351562 697.207031 404.75 689.355469 409.3125 L 390.863281 582.695312 C 381.722656 588.007812 366.851562 588.007812 357.648438 582.695312 L 209.78125 497.367188 C 201.878906 492.808594 201.835938 485.410156 209.6875 480.847656 L 508.1875 307.464844 C 517.324219 302.152344 532.195312 302.152344 541.398438 307.464844 L 689.261719 392.792969 " fill-opacity="1" fill-rule="nonzero"/><path fill="#1a181a" d="M 524.769531 303.910156 C 518.835938 303.910156 512.90625 305.21875 508.398438 307.835938 L 209.90625 481.222656 C 206.261719 483.339844 204.253906 486.132812 204.257812 489.078125 C 204.261719 492.046875 206.300781 494.859375 209.996094 496.992188 L 357.863281 582.324219 C 366.929688 587.554688 381.636719 587.554688 390.644531 582.324219 L 689.136719 408.941406 C 692.78125 406.824219 694.789062 404.03125 694.785156 401.082031 C 694.78125 398.109375 692.742188 395.300781 689.042969 393.164062 L 541.179688 307.835938 C 536.648438 305.21875 530.703125 303.910156 524.769531 303.910156 Z M 374.277344 587.101562 C 368.183594 587.101562 362.085938 585.757812 357.433594 583.070312 L 209.566406 497.742188 C 205.589844 495.449219 203.398438 492.371094 203.394531 489.082031 C 203.390625 485.8125 205.546875 482.753906 209.472656 480.476562 L 507.96875 307.089844 C 517.214844 301.71875 532.308594 301.71875 541.613281 307.089844 L 689.472656 392.417969 C 693.449219 394.710938 695.644531 397.785156 695.644531 401.082031 C 695.652344 404.351562 693.496094 407.40625 689.570312 409.6875 L 391.078125 583.070312 C 386.457031 585.753906 380.367188 587.101562 374.277344 587.101562 " fill-opacity="1" fill-rule="nonzero"/><path fill="#1a181a" d="M 689.355469 319.730469 L 390.863281 493.113281 C 381.722656 498.421875 366.851562 498.421875 357.648438 493.113281 L 209.78125 407.78125 C 205.804688 405.488281 203.820312 402.476562 203.828125 399.464844 C 203.828125 399.464844 195.707031 417.878906 209.730469 426.386719 L 357.597656 511.71875 C 366.796875 517.027344 381.667969 517.027344 390.8125 511.71875 L 689.300781 338.332031 C 704.554688 328.460938 695.21875 311.527344 695.21875 311.527344 C 695.207031 314.496094 693.257812 317.460938 689.355469 319.730469 " fill-opacity="1" fill-rule="nonzero"/><path fill="#cd2530" d="M 203.613281 401.273438 C 202.066406 405.921875 198.832031 419.265625 209.953125 426.019531 L 357.8125 511.34375 C 366.878906 516.574219 381.585938 516.578125 390.59375 511.34375 L 689.085938 337.957031 C 701.535156 329.90625 697.3125 317.203125 695.484375 313.066406 C 694.910156 315.734375 692.863281 318.191406 689.574219 320.101562 L 391.078125 493.488281 C 381.832031 498.855469 366.738281 498.855469 357.433594 493.488281 L 209.566406 408.15625 C 206.316406 406.28125 204.261719 403.882812 203.613281 401.273438 Z M 374.226562 516.117188 C 368.132812 516.117188 362.035156 514.777344 357.378906 512.089844 L 209.511719 426.761719 C 195.324219 418.148438 203.347656 399.480469 203.429688 399.289062 C 204.25 402.445312 206.289062 405.265625 210 407.410156 L 357.867188 492.742188 C 366.933594 497.972656 381.636719 497.972656 390.644531 492.742188 L 689.140625 319.355469 C 692.773438 317.246094 694.78125 314.464844 694.789062 311.527344 C 695.695312 311.492188 704.953125 328.71875 689.535156 338.695312 L 391.027344 512.089844 C 386.402344 514.777344 380.320312 516.117188 374.226562 516.117188 " fill-opacity="1" fill-rule="nonzero"/><path fill="#cd2530" d="M 689.261719 303.207031 C 697.167969 307.769531 697.207031 315.167969 689.355469 319.730469 L 390.863281 493.113281 C 381.722656 498.421875 366.851562 498.421875 357.648438 493.113281 L 209.78125 407.785156 C 201.878906 403.222656 201.835938 395.828125 209.6875 391.265625 L 508.1875 217.878906 C 517.324219 212.570312 532.195312 212.570312 541.398438 217.878906 L 689.261719 303.207031 " fill-opacity="1" fill-rule="nonzero"/><path fill="#1a181a" d="M 524.769531 214.328125 C 518.835938 214.328125 512.90625 215.636719 508.398438 218.25 L 209.90625 391.640625 C 206.261719 393.753906 204.253906 396.546875 204.257812 399.496094 C 204.261719 402.464844 206.300781 405.277344 209.996094 407.410156 L 357.863281 492.742188 C 366.929688 497.972656 381.636719 497.972656 390.644531 492.742188 L 689.136719 319.355469 C 692.78125 317.238281 694.789062 314.449219 694.785156 311.5 C 694.78125 308.527344 692.742188 305.714844 689.042969 303.582031 L 541.179688 218.25 C 536.648438 215.636719 530.703125 214.328125 524.769531 214.328125 Z M 374.277344 497.515625 C 368.183594 497.515625 362.085938 496.171875 357.433594 493.488281 L 209.566406 408.15625 C 205.589844 405.863281 203.398438 402.785156 203.394531 399.496094 C 203.390625 396.226562 205.546875 393.171875 209.472656 390.890625 L 507.96875 217.503906 C 517.214844 212.136719 532.308594 212.136719 541.613281 217.503906 L 689.472656 302.835938 C 693.453125 305.128906 695.644531 308.207031 695.644531 311.5 C 695.652344 314.769531 693.496094 317.824219 689.570312 320.105469 L 391.078125 493.488281 C 386.457031 496.171875 380.367188 497.515625 374.277344 497.515625 " fill-opacity="1" fill-rule="nonzero"/><path fill="#1a181a" d="M 658.027344 322.695312 L 411.164062 466.089844 L 255.1875 376.082031 L 502.054688 232.6875 L 658.027344 322.695312 " fill-opacity="1" fill-rule="nonzero"/><path fill="#1a181a" d="M 256.050781 376.082031 L 411.160156 465.589844 L 657.167969 322.695312 L 502.054688 233.1875 Z M 411.164062 466.523438 C 410.945312 466.464844 254.972656 376.457031 254.972656 376.457031 C 254.972656 375.710938 501.835938 232.3125 501.835938 232.3125 C 502.273438 232.3125 658.242188 322.320312 658.242188 322.320312 C 658.246094 323.070312 411.378906 466.464844 411.378906 466.464844 C 411.3125 466.503906 411.238281 466.523438 411.164062 466.523438 " fill-opacity="1" fill-rule="nonzero"/><path fill="#1a181a" d="M 324.949219 428.425781 C 329.898438 436.472656 329.90625 433.554688 329.90625 433.554688 C 323.984375 424.863281 323.726562 424.707031 323.460938 424.554688 C 322.980469 424.277344 322.480469 424.023438 321.972656 423.777344 C 321.128906 423.386719 320.710938 423.210938 320.289062 423.046875 C 319.363281 422.6875 318.8125 422.5 318.25 422.324219 C 317.429688 422.089844 316.960938 421.964844 316.488281 421.847656 C 315.453125 421.609375 314.921875 421.5 314.386719 421.40625 C 313.578125 421.265625 312.96875 421.179688 312.355469 421.109375 C 311.375 421.007812 310.890625 420.96875 310.410156 420.9375 C 309.300781 420.871094 308.679688 420.855469 308.058594 420.851562 C 307.238281 420.859375 306.703125 420.875 306.171875 420.902344 C 305.113281 420.964844 304.597656 421.007812 304.085938 421.0625 C 303.140625 421.164062 302.535156 421.25 301.933594 421.347656 C 299.144531 421.929688 298.578125 422.085938 298.015625 422.253906 C 297.183594 422.507812 296.648438 422.691406 296.121094 422.890625 C 295.320312 423.203125 294.800781 423.417969 294.300781 423.65625 C 293.582031 424.003906 293.070312 424.265625 292.578125 424.554688 C 288.355469 427.003906 286.242188 430.214844 286.230469 433.429688 L 286.222656 436.347656 C 286.230469 433.132812 288.34375 429.925781 292.570312 427.472656 C 293.058594 427.1875 293.570312 426.921875 294.097656 426.667969 C 294.792969 426.335938 295.308594 426.117188 295.839844 425.914062 C 296.640625 425.605469 297.175781 425.425781 297.722656 425.253906 C 298.570312 425 299.136719 424.847656 299.714844 424.710938 C 300.425781 424.546875 300.945312 424.445312 301.46875 424.351562 C 302.527344 424.167969 303.132812 424.078125 303.742188 424.011719 C 304.589844 423.925781 305.105469 423.882812 305.621094 423.847656 C 306.695312 423.792969 307.230469 423.777344 307.761719 423.773438 C 308.671875 423.769531 309.292969 423.792969 309.910156 423.824219 C 310.882812 423.886719 311.367188 423.925781 311.84375 423.972656 C 312.960938 424.097656 313.570312 424.179688 314.171875 424.28125 C 314.914062 424.414062 315.445312 424.523438 315.972656 424.644531 C 316.953125 424.882812 317.421875 425.007812 317.882812 425.140625 C 318.804688 425.414062 319.355469 425.605469 319.894531 425.808594 C 320.703125 426.128906 321.121094 426.304688 321.527344 426.492188 C 322.472656 426.9375 322.972656 427.195312 323.453125 427.472656 C 323.71875 427.621094 323.976562 427.78125 324.226562 427.9375 C 324.628906 428.207031 324.792969 428.3125 324.949219 428.425781 " fill-opacity="1" fill-rule="nonzero"/><path fill="#1a181a" d="M 329.234375 432.386719 C 323.757812 425.230469 323.503906 425.078125 323.246094 424.929688 C 322.828125 424.683594 322.363281 424.445312 321.785156 424.164062 C 320.957031 423.785156 320.546875 423.609375 320.128906 423.445312 C 319.222656 423.097656 318.679688 422.910156 318.125 422.742188 C 317.316406 422.507812 316.855469 422.382812 316.386719 422.269531 C 315.363281 422.03125 314.839844 421.921875 314.308594 421.828125 C 313.511719 421.691406 312.910156 421.605469 312.304688 421.539062 C 311.335938 421.4375 310.859375 421.398438 310.382812 421.367188 C 309.285156 421.304688 308.671875 421.289062 308.058594 421.285156 C 307.246094 421.292969 306.71875 421.304688 306.191406 421.332031 C 305.144531 421.394531 304.636719 421.4375 304.132812 421.488281 C 303.199219 421.589844 302.601562 421.675781 302.003906 421.773438 C 299.253906 422.347656 298.691406 422.5 298.136719 422.667969 C 297.320312 422.917969 296.792969 423.097656 296.273438 423.292969 C 295.484375 423.597656 294.976562 423.8125 294.484375 424.046875 C 293.738281 424.40625 293.246094 424.664062 292.792969 424.929688 C 289.191406 427.019531 287.058594 429.722656 286.714844 432.613281 C 287.761719 430.542969 289.675781 428.652344 292.351562 427.097656 C 292.8125 426.828125 293.324219 426.5625 293.910156 426.28125 C 294.617188 425.945312 295.144531 425.722656 295.683594 425.511719 C 296.496094 425.199219 297.039062 425.011719 297.59375 424.84375 C 298.453125 424.585938 299.03125 424.429688 299.617188 424.289062 C 300.335938 424.125 300.863281 424.023438 301.394531 423.925781 C 302.464844 423.738281 303.078125 423.652344 303.691406 423.582031 C 304.550781 423.492188 305.074219 423.449219 305.59375 423.417969 C 306.679688 423.363281 307.21875 423.34375 307.757812 423.34375 C 308.679688 423.339844 309.304688 423.359375 309.933594 423.390625 C 310.917969 423.453125 311.40625 423.492188 311.886719 423.546875 C 313.019531 423.671875 313.636719 423.753906 314.246094 423.855469 C 314.996094 423.992188 315.535156 424.101562 316.066406 424.226562 C 317.0625 424.460938 317.539062 424.589844 318.007812 424.726562 C 318.941406 425.007812 319.5 425.199219 320.046875 425.402344 C 320.871094 425.730469 321.292969 425.910156 321.707031 426.097656 C 322.746094 426.59375 323.230469 426.84375 323.667969 427.09375 C 323.941406 427.25 324.203125 427.414062 324.457031 427.578125 C 328.859375 432.597656 329.234375 432.386719 329.234375 432.386719 Z M 329.898438 436.90625 C 323.75 428.148438 323.496094 427.992188 323.238281 427.84375 C 322.816406 427.601562 322.355469 427.359375 321.777344 427.082031 C 320.945312 426.699219 320.539062 426.527344 320.121094 426.363281 C 319.210938 426.011719 318.667969 425.828125 318.117188 425.65625 C 317.308594 425.421875 316.84375 425.296875 316.378906 425.183594 C 315.355469 424.945312 314.832031 424.84375 314.300781 424.746094 C 313.503906 424.609375 312.902344 424.523438 312.296875 424.457031 C 311.328125 424.351562 310.851562 424.3125 310.375 424.28125 C 309.277344 424.222656 308.664062 424.203125 308.050781 424.203125 C 307.238281 424.210938 306.710938 424.226562 306.183594 424.25 C 305.136719 424.3125 304.628906 424.351562 304.125 424.40625 C 303.1875 424.507812 302.589844 424.59375 302 424.695312 C 301.03125 424.867188 300.515625 424.96875 300.011719 425.085938 C 299.246094 425.265625 298.683594 425.417969 298.128906 425.582031 C 297.3125 425.832031 296.785156 426.015625 296.269531 426.210938 C 295.476562 426.515625 294.96875 426.730469 294.476562 426.964844 C 293.71875 427.328125 293.226562 427.585938 292.785156 427.84375 C 288.839844 430.136719 286.664062 433.15625 286.65625 436.347656 C 285.792969 436.347656 285.800781 433.429688 285.800781 433.429688 C 285.808594 429.914062 288.140625 426.632812 292.359375 424.179688 C 292.832031 423.90625 293.34375 423.640625 293.921875 423.363281 C 294.625 423.027344 295.152344 422.804688 295.691406 422.59375 C 296.503906 422.28125 297.046875 422.097656 297.605469 421.925781 C 298.460938 421.667969 299.039062 421.511719 299.625 421.371094 C 300.089844 421.265625 300.355469 421.207031 300.625 421.148438 C 302.472656 420.824219 303.085938 420.734375 303.703125 420.664062 C 304.558594 420.578125 305.082031 420.53125 305.601562 420.5 C 306.6875 420.445312 307.226562 420.429688 307.765625 420.425781 C 308.6875 420.421875 309.316406 420.441406 309.941406 420.472656 C 310.925781 420.535156 311.414062 420.574219 311.898438 420.625 C 313.027344 420.753906 313.640625 420.839844 314.253906 420.941406 C 315.003906 421.074219 315.542969 421.1875 316.074219 421.304688 C 317.070312 421.546875 317.546875 421.675781 318.015625 421.8125 C 318.949219 422.089844 319.507812 422.28125 320.054688 422.488281 C 320.878906 422.8125 321.300781 422.992188 321.714844 423.179688 C 322.757812 423.675781 323.238281 423.925781 323.675781 424.179688 C 323.949219 424.335938 324.210938 424.496094 324.464844 424.660156 C 330.339844 433.554688 330.332031 436.472656 330.332031 436.472656 C 330.332031 436.710938 330.136719 436.90625 329.898438 436.90625 " fill-opacity="1" fill-rule="nonzero"/><path fill="#f1e9e1" d="M 323.453125 427.472656 C 332.011719 432.410156 332.050781 440.414062 323.554688 445.351562 C 315.050781 450.289062 301.226562 450.289062 292.667969 445.351562 C 284.117188 440.414062 284.066406 432.410156 292.570312 427.472656 C 301.066406 422.535156 314.898438 422.535156 323.453125 427.472656 " fill-opacity="1" fill-rule="nonzero"/><path fill="#1a181a" d="M 307.992188 424.199219 C 302.476562 424.199219 296.96875 425.414062 292.785156 427.84375 C 288.828125 430.144531 286.652344 433.175781 286.65625 436.378906 C 286.660156 439.609375 288.871094 442.664062 292.886719 444.976562 C 301.308594 449.839844 314.96875 449.839844 323.335938 444.976562 C 327.292969 442.679688 329.472656 439.648438 329.46875 436.441406 C 329.460938 433.214844 327.25 430.15625 323.238281 427.84375 C 319.023438 425.414062 313.503906 424.199219 307.992188 424.199219 Z M 308.132812 449.472656 C 302.460938 449.472656 296.785156 448.226562 292.453125 445.722656 C 288.160156 443.25 285.796875 439.929688 285.792969 436.378906 C 285.785156 432.855469 288.117188 429.558594 292.351562 427.097656 C 300.957031 422.097656 315.007812 422.097656 323.667969 427.097656 C 327.960938 429.574219 330.324219 432.890625 330.332031 436.441406 C 330.335938 439.96875 328.007812 443.265625 323.769531 445.722656 C 319.46875 448.226562 313.800781 449.472656 308.132812 449.472656 " fill-opacity="1" fill-rule="nonzero"/><path fill="#cd2530" d="M 574.90625 255.207031 C 575.160156 255.953125 575.164062 253.660156 575.164062 253.660156 C 568.746094 252.648438 568.417969 253.144531 568.417969 253.644531 L 568.410156 255.933594 C 568.410156 255.433594 568.738281 254.941406 569.390625 254.5625 C 574.773438 255.054688 574.847656 255.128906 574.90625 255.207031 " fill-opacity="1" fill-rule="nonzero"/><path fill="#1a181a" d="M 571.695312 253.558594 C 569.121094 252.925781 568.851562 253.277344 568.851562 253.640625 C 571.324219 253.570312 571.507812 253.5625 571.695312 253.558594 Z M 575.160156 256.378906 C 569.117188 255.21875 568.847656 255.574219 568.847656 255.929688 C 567.980469 255.929688 567.988281 253.636719 567.988281 253.636719 C 567.988281 252.960938 568.417969 252.34375 569.183594 251.894531 C 575.601562 253.65625 575.59375 255.941406 575.59375 255.941406 C 575.59375 256.191406 575.402344 256.378906 575.160156 256.378906 " fill-opacity="1" fill-rule="nonzero"/><path fill="#1a181a" d="M 574.164062 254.558594 C 575.488281 255.324219 575.492188 256.5625 574.179688 257.324219 C 572.867188 258.089844 570.730469 258.089844 569.40625 257.320312 C 568.082031 256.558594 568.078125 255.324219 569.394531 254.5625 C 570.703125 253.796875 572.839844 253.796875 574.164062 254.558594 " fill-opacity="1" fill-rule="nonzero"/><path fill="#1a181a" d="M 571.78125 254.421875 C 570.992188 254.421875 570.199219 254.59375 569.609375 254.933594 C 569.117188 255.21875 568.84375 255.574219 568.84375 255.933594 C 568.847656 256.289062 569.128906 256.660156 569.628906 256.945312 C 570.804688 257.628906 572.792969 257.628906 573.96875 256.949219 C 574.460938 256.660156 574.734375 256.300781 574.734375 255.941406 C 574.734375 255.585938 574.445312 255.21875 573.953125 254.929688 C 573.363281 254.589844 572.570312 254.421875 571.78125 254.421875 Z M 571.800781 258.328125 C 570.867188 258.328125 569.925781 258.117188 569.195312 257.695312 C 568.414062 257.242188 567.980469 256.617188 567.980469 255.933594 C 567.980469 255.253906 568.410156 254.632812 569.179688 254.183594 C 570.632812 253.339844 572.921875 253.339844 574.382812 254.183594 C 575.160156 254.632812 575.59375 255.257812 575.59375 255.941406 C 575.597656 256.621094 575.171875 257.246094 574.398438 257.695312 C 573.671875 258.117188 572.738281 258.328125 571.800781 258.328125 " fill-opacity="1" fill-rule="nonzero"/><path fill="#cd2530" d="M 612.375 276.699219 C 612.628906 277.441406 612.636719 275.152344 612.636719 275.152344 C 611.636719 273.761719 586.519531 259.265625 586.519531 259.265625 C 581.089844 259.644531 580.765625 260.140625 580.765625 260.636719 L 580.757812 262.929688 C 580.757812 262.433594 581.085938 261.9375 581.734375 261.558594 C 586.511719 261.558594 611.636719 276.054688 611.636719 276.054688 C 612.242188 276.546875 612.316406 276.621094 612.375 276.699219 " fill-opacity="1" fill-rule="nonzero"/><path fill="#1a181a" d="M 584.039062 260.554688 C 586.730469 261.183594 611.851562 275.679688 611.851562 275.679688 C 611.425781 274.136719 586.300781 259.636719 586.300781 259.636719 C 581.472656 259.925781 581.199219 260.277344 581.199219 260.636719 C 583.671875 260.570312 583.855469 260.558594 584.039062 260.554688 Z M 612.632812 277.875 C 611.679688 276.59375 611.558594 276.507812 611.421875 276.425781 L 586.300781 261.929688 C 581.464844 262.214844 581.195312 262.566406 581.191406 262.929688 C 580.328125 262.925781 580.335938 260.632812 580.335938 260.632812 C 580.335938 259.957031 580.761719 259.339844 581.527344 258.890625 C 586.738281 258.890625 611.859375 273.386719 611.859375 273.386719 C 613.070312 275.152344 613.0625 277.445312 613.0625 277.445312 C 613.058594 277.683594 612.871094 277.875 612.632812 277.875 " fill-opacity="1" fill-rule="nonzero"/><path fill="#1a181a" d="M 611.632812 276.054688 C 612.957031 276.820312 612.960938 278.054688 611.644531 278.820312 C 610.332031 279.582031 608.199219 279.582031 606.878906 278.820312 L 581.757812 264.320312 C 580.4375 263.558594 580.421875 262.320312 581.738281 261.558594 C 583.054688 260.792969 585.191406 260.796875 586.511719 261.558594 L 611.632812 276.054688 " fill-opacity="1" fill-rule="nonzero"/><path fill="#1a181a" d="M 584.125 261.417969 C 583.328125 261.417969 582.542969 261.585938 581.957031 261.929688 C 581.464844 262.21875 581.191406 262.570312 581.191406 262.929688 C 581.191406 263.289062 581.476562 263.65625 581.976562 263.945312 L 607.097656 278.441406 C 608.277344 279.121094 610.261719 279.121094 611.433594 278.441406 C 611.925781 278.15625 612.199219 277.796875 612.199219 277.441406 C 612.199219 277.082031 611.917969 276.714844 611.421875 276.425781 L 586.296875 261.929688 C 585.707031 261.585938 584.917969 261.417969 584.125 261.417969 Z M 609.265625 279.824219 C 608.332031 279.824219 607.394531 279.609375 606.664062 279.1875 L 581.542969 264.695312 C 580.757812 264.238281 580.328125 263.617188 580.328125 262.929688 C 580.328125 262.253906 580.75 261.632812 581.523438 261.179688 C 582.976562 260.335938 585.265625 260.335938 586.730469 261.179688 L 611.855469 275.679688 C 612.632812 276.128906 613.0625 276.753906 613.066406 277.4375 C 613.066406 278.117188 612.640625 278.742188 611.863281 279.1875 C 611.140625 279.609375 610.203125 279.824219 609.265625 279.824219 " fill-opacity="1" fill-rule="nonzero"/><path fill="#1a181a" d="M 283.113281 456.140625 C 284.835938 457.132812 286.230469 459.546875 286.222656 461.527344 C 286.21875 463.507812 284.8125 464.300781 283.09375 463.308594 L 269.292969 455.347656 C 267.570312 454.351562 266.179688 451.941406 266.183594 449.960938 C 266.191406 447.980469 267.589844 447.1875 269.316406 448.179688 L 283.113281 456.140625 " fill-opacity="1" fill-rule="nonzero"/><path fill="#cd2530" d="M 267.914062 448.183594 C 266.867188 448.589844 266.617188 449.171875 266.617188 449.964844 C 266.609375 451.800781 267.910156 454.046875 269.511719 454.972656 L 283.308594 462.9375 C 284.007812 463.335938 284.636719 463.417969 285.09375 463.152344 C 285.539062 462.894531 285.789062 462.320312 285.792969 461.527344 C 285.796875 459.6875 284.5 457.441406 282.898438 456.515625 L 269.097656 448.554688 C 268.671875 448.304688 268.269531 448.183594 267.914062 448.183594 Z M 284.492188 464.171875 C 283.988281 464.171875 283.4375 464.007812 282.878906 463.679688 L 269.078125 455.722656 C 267.207031 454.636719 265.746094 452.113281 265.753906 449.960938 C 265.757812 448.84375 266.15625 448.003906 266.882812 447.582031 C 267.617188 447.164062 268.554688 447.242188 269.53125 447.804688 L 283.328125 455.769531 C 285.203125 456.847656 286.660156 459.378906 286.65625 461.527344 C 286.652344 462.640625 286.25 463.484375 285.523438 463.902344 C 285.214844 464.082031 284.867188 464.171875 284.492188 464.171875 " fill-opacity="1" fill-rule="nonzero"/><path fill="#1a181a" d="M 642.585938 356.269531 C 645.078125 356.320312 642.777344 354.984375 642.777344 354.984375 C 639.925781 355.078125 639.710938 355.179688 639.496094 355.304688 L 618.0625 367.671875 C 616.152344 369.253906 615.992188 369.425781 615.84375 369.609375 C 614.707031 371.269531 614.589844 371.492188 614.476562 371.71875 C 613.476562 375.183594 613.460938 375.414062 613.464844 375.636719 C 613.464844 377.09375 613.980469 378.117188 614.808594 378.601562 L 617.109375 379.933594 C 616.277344 379.453125 615.761719 378.429688 615.761719 376.972656 C 615.996094 375.136719 616.058594 374.902344 616.128906 374.667969 C 616.886719 372.828125 617.007812 372.605469 617.136719 372.390625 C 620.363281 369.007812 641.792969 356.640625 641.792969 356.640625 C 642.488281 356.304688 642.535156 356.285156 642.585938 356.269531 " fill-opacity="1" fill-rule="nonzero"/><path fill="#cd2530" d="M 613.828125 373.335938 C 613.894531 376.882812 614.296875 377.804688 615.027344 378.226562 C 615.402344 378.070312 615.328125 377.546875 615.328125 376.972656 C 615.578125 375.035156 615.636719 374.789062 615.714844 374.546875 C 616.503906 372.625 616.628906 372.394531 616.761719 372.171875 C 620.144531 368.636719 641.578125 356.265625 641.578125 356.265625 C 642.65625 355.777344 642.878906 355.707031 643.089844 355.664062 C 639.710938 355.679688 618.28125 368.046875 618.28125 368.046875 C 614.273438 373.359375 613.828125 373.335938 613.828125 373.335938 Z M 617.109375 380.367188 C 616.890625 380.308594 614.59375 378.976562 614.59375 378.976562 C 613.589844 378.390625 613.03125 377.207031 613.03125 375.640625 C 613.28125 373.699219 613.339844 373.453125 613.414062 373.210938 C 614.203125 371.292969 614.332031 371.0625 614.464844 370.835938 C 617.847656 367.296875 639.277344 354.929688 639.277344 354.929688 C 640.363281 354.441406 640.585938 354.371094 640.800781 354.324219 C 642.996094 354.609375 645.292969 355.941406 645.292969 355.941406 C 642.011719 357.015625 620.574219 369.382812 620.574219 369.382812 C 617.386719 372.816406 617.269531 373.03125 617.160156 373.246094 C 616.195312 378.21875 616.59375 379.136719 617.320312 379.558594 C 617.402344 380.292969 617.253906 380.367188 617.109375 380.367188 " fill-opacity="1" fill-rule="nonzero"/><path fill="#cd2530" d="M 641.796875 356.640625 C 644.347656 355.167969 646.417969 356.351562 646.421875 359.277344 C 646.433594 362.203125 644.375 365.773438 641.824219 367.246094 L 620.390625 379.613281 C 617.84375 381.085938 615.765625 379.898438 615.765625 376.972656 C 615.753906 374.046875 617.8125 370.480469 620.363281 369.007812 L 641.796875 356.640625 " fill-opacity="1" fill-rule="nonzero"/><path fill="#1a181a" d="M 643.863281 356.4375 C 643.300781 356.4375 642.671875 356.632812 642.007812 357.015625 L 620.574219 369.382812 C 618.148438 370.785156 616.179688 374.1875 616.191406 376.972656 C 616.195312 378.222656 616.601562 379.148438 617.328125 379.566406 C 618.070312 379.992188 619.074219 379.875 620.175781 379.242188 L 641.605469 366.875 C 644.03125 365.476562 646 362.070312 645.992188 359.28125 C 645.988281 358.027344 645.582031 357.109375 644.851562 356.6875 C 644.5625 356.519531 644.230469 356.4375 643.863281 356.4375 Z M 618.320312 380.679688 C 617.808594 380.679688 617.328125 380.558594 616.898438 380.316406 C 615.890625 379.734375 615.332031 378.546875 615.324219 376.972656 C 615.320312 373.914062 617.476562 370.175781 620.140625 368.636719 L 641.574219 356.265625 C 642.953125 355.472656 644.273438 355.359375 645.285156 355.941406 C 646.292969 356.519531 646.851562 357.707031 646.855469 359.28125 C 646.863281 362.339844 644.703125 366.082031 642.035156 367.621094 L 620.605469 379.988281 C 619.808594 380.449219 619.027344 380.679688 618.320312 380.679688 " fill-opacity="1" fill-rule="nonzero"/><path fill="#cd2530" d="M 665.363281 352.671875 C 671.847656 341.640625 665.324219 334.265625 665.042969 333.957031 C 665.753906 333.457031 672.949219 341.542969 665.722656 352.476562 C 665.640625 352.605469 665.503906 352.671875 665.363281 352.671875 " fill-opacity="1" fill-rule="nonzero"/><path fill="#cd2530" d="M 406.496094 502.488281 C 412.125 492.757812 407.890625 485.972656 406.449219 484.105469 C 408.21875 484.984375 413.320312 492.511719 406.859375 502.296875 C 406.773438 502.421875 406.636719 502.488281 406.496094 502.488281 " fill-opacity="1" fill-rule="nonzero"/><path fill="#1a181a" d="M 356.269531 371.335938 C 359.996094 373.488281 360.015625 376.972656 356.3125 379.125 L 346.585938 384.769531 C 342.121094 387.367188 334.859375 387.367188 330.367188 384.773438 L 231.289062 327.597656 C 227.566406 325.449219 227.546875 321.964844 231.246094 319.8125 L 240.972656 314.164062 C 245.4375 311.570312 252.699219 311.570312 257.195312 314.164062 L 356.269531 371.335938 " fill-opacity="1" fill-rule="nonzero"/><path fill="#cd2530" d="M 249.078125 312.644531 C 246.214844 312.644531 243.359375 313.277344 241.191406 314.535156 L 231.464844 320.1875 C 229.816406 321.144531 228.914062 322.386719 228.914062 323.695312 C 228.914062 325.007812 229.835938 326.261719 231.507812 327.226562 L 330.582031 384.398438 C 334.949219 386.921875 342.03125 386.917969 346.367188 384.398438 L 356.097656 378.75 C 357.738281 377.792969 358.644531 376.546875 358.644531 375.242188 C 358.640625 373.929688 357.722656 372.671875 356.050781 371.710938 L 256.976562 314.535156 C 254.796875 313.277344 251.933594 312.644531 249.078125 312.644531 Z M 338.484375 387.140625 C 335.46875 387.140625 332.453125 386.476562 330.152344 385.148438 L 231.074219 327.972656 C 229.128906 326.851562 228.054688 325.328125 228.050781 323.695312 C 228.050781 322.066406 229.105469 320.558594 231.03125 319.441406 L 240.757812 313.789062 C 245.335938 311.132812 252.804688 311.128906 257.410156 313.789062 L 356.484375 370.960938 C 358.433594 372.085938 359.503906 373.605469 359.507812 375.242188 C 359.511719 376.867188 358.453125 378.378906 356.527344 379.492188 L 346.800781 385.144531 C 344.511719 386.476562 341.5 387.140625 338.484375 387.140625 " fill-opacity="1" fill-rule="nonzero"/><path fill="#f1e9e1" d="M 356.269531 353.574219 C 359.996094 355.722656 360.015625 359.210938 356.3125 361.359375 L 346.585938 367.011719 C 342.121094 369.605469 334.859375 369.605469 330.367188 367.011719 L 231.289062 309.835938 C 227.566406 307.6875 227.546875 304.203125 231.246094 302.050781 L 240.972656 296.402344 C 245.4375 293.808594 252.699219 293.804688 257.195312 296.398438 L 356.269531 353.574219 " fill-opacity="1" fill-rule="nonzero"/><path fill="#1a181a" d="M 249.074219 294.882812 C 246.214844 294.882812 243.359375 295.511719 241.191406 296.773438 L 231.464844 302.425781 C 229.816406 303.378906 228.914062 304.625 228.914062 305.929688 C 228.917969 307.246094 229.835938 308.5 231.507812 309.464844 L 330.582031 366.640625 C 334.945312 369.15625 342.027344 369.15625 346.367188 366.636719 L 356.097656 360.984375 C 357.738281 360.03125 358.644531 358.785156 358.644531 357.480469 C 358.640625 356.164062 357.722656 354.910156 356.050781 353.945312 L 256.976562 296.773438 C 254.792969 295.511719 251.933594 294.882812 249.074219 294.882812 Z M 338.484375 369.378906 C 335.46875 369.378906 332.453125 368.710938 330.152344 367.382812 L 231.074219 310.210938 C 229.128906 309.085938 228.054688 307.570312 228.050781 305.933594 C 228.050781 304.304688 229.105469 302.792969 231.03125 301.675781 L 240.757812 296.027344 C 245.332031 293.371094 252.804688 293.367188 257.410156 296.027344 L 356.484375 353.199219 C 358.433594 354.324219 359.503906 355.84375 359.507812 357.480469 C 359.511719 359.105469 358.453125 360.613281 356.527344 361.734375 L 346.800781 367.382812 C 344.511719 368.710938 341.5 369.378906 338.484375 369.378906 " fill-opacity="1" fill-rule="nonzero"/><path fill="#cd2530" d="M 325.882812 345.402344 C 325.664062 345.347656 249.238281 301.242188 249.238281 301.242188 C 249.667969 300.492188 326.097656 344.597656 326.097656 344.597656 C 326.175781 345.324219 326.03125 345.402344 325.882812 345.402344 " fill-opacity="1" fill-rule="nonzero"/><path fill="#cd2530" d="M 294.640625 338.277344 C 294.425781 338.21875 239.855469 306.730469 239.855469 306.730469 C 240.289062 305.980469 294.855469 337.472656 294.855469 337.472656 C 294.933594 338.199219 294.789062 338.277344 294.640625 338.277344 " fill-opacity="1" fill-rule="nonzero"/><path fill="#1a181a" d="M 633.078125 396.179688 C 638.371094 399.238281 638.402344 404.195312 633.140625 407.253906 L 584.699219 435.390625 C 577.183594 439.757812 564.945312 439.757812 557.375 435.390625 L 466.71875 383.074219 C 461.417969 380.019531 461.394531 375.058594 466.660156 372 L 515.097656 343.863281 C 522.617188 339.496094 534.847656 339.496094 542.417969 343.863281 L 633.078125 396.179688 " fill-opacity="1" fill-rule="nonzero"/><path fill="#cd2530" d="M 528.738281 341.015625 C 523.871094 341.015625 519.007812 342.089844 515.316406 344.234375 L 466.875 372.375 C 464.476562 373.765625 463.160156 375.59375 463.160156 377.519531 C 463.160156 379.457031 464.503906 381.296875 466.9375 382.699219 L 557.589844 435.015625 C 565.03125 439.308594 577.089844 439.308594 584.480469 435.015625 L 632.921875 406.878906 C 635.320312 405.484375 636.640625 403.660156 636.636719 401.734375 C 636.632812 399.796875 635.292969 397.957031 632.859375 396.554688 L 542.207031 344.234375 C 538.484375 342.089844 533.609375 341.015625 528.738281 341.015625 Z M 571.054688 439.085938 C 566.03125 439.085938 561 437.976562 557.160156 435.761719 L 466.503906 383.445312 C 463.792969 381.882812 462.296875 379.777344 462.292969 377.519531 C 462.292969 375.273438 463.765625 373.179688 466.445312 371.625 L 514.882812 343.488281 C 522.503906 339.0625 534.960938 339.058594 542.636719 343.488281 L 633.289062 395.804688 C 636.003906 397.371094 637.496094 399.472656 637.5 401.734375 C 637.503906 403.980469 636.03125 406.070312 633.355469 407.625 L 584.914062 435.761719 C 581.097656 437.976562 576.082031 439.085938 571.054688 439.085938 " fill-opacity="1" fill-rule="nonzero"/><path fill="#f1e9e1" d="M 633.078125 377.421875 C 638.371094 380.480469 638.402344 385.4375 633.140625 388.496094 L 584.699219 416.632812 C 577.183594 421 564.945312 421 557.375 416.632812 L 466.71875 364.316406 C 461.417969 361.261719 461.394531 356.300781 466.660156 353.242188 L 515.097656 325.109375 C 522.617188 320.738281 534.847656 320.738281 542.417969 325.109375 L 633.078125 377.421875 " fill-opacity="1" fill-rule="nonzero"/><path fill="#1a181a" d="M 528.738281 322.261719 C 523.871094 322.261719 519.007812 323.332031 515.316406 325.480469 L 466.875 353.617188 C 464.476562 355.007812 463.160156 356.835938 463.160156 358.761719 C 463.160156 360.699219 464.503906 362.539062 466.9375 363.945312 L 557.589844 416.257812 C 565.03125 420.550781 577.089844 420.550781 584.480469 416.257812 L 632.921875 388.121094 C 635.320312 386.730469 636.640625 384.902344 636.636719 382.976562 C 636.632812 381.039062 635.289062 379.199219 632.859375 377.796875 L 542.207031 325.476562 C 538.484375 323.332031 533.609375 322.261719 528.738281 322.261719 Z M 571.054688 420.328125 C 566.03125 420.328125 561 419.21875 557.160156 417.003906 L 466.503906 364.6875 C 463.792969 363.128906 462.296875 361.019531 462.292969 358.761719 C 462.292969 356.515625 463.765625 354.421875 466.445312 352.867188 L 514.882812 324.734375 C 522.503906 320.304688 534.960938 320.300781 542.636719 324.734375 L 633.289062 377.046875 C 636.003906 378.613281 637.496094 380.714844 637.5 382.976562 C 637.503906 385.222656 636.03125 387.3125 633.355469 388.867188 L 584.914062 417.003906 C 581.097656 419.21875 576.082031 420.328125 571.054688 420.328125 " fill-opacity="1" fill-rule="nonzero"/><path fill="#cd2530" d="M 581.195312 390.410156 C 580.980469 390.351562 504.554688 346.246094 504.554688 346.246094 C 504.984375 345.5 581.414062 389.605469 581.414062 389.605469 C 581.492188 390.335938 581.347656 390.410156 581.195312 390.410156 " fill-opacity="1" fill-rule="nonzero"/><path fill="#cd2530" d="M 549.960938 383.285156 C 549.746094 383.226562 495.175781 351.734375 495.175781 351.734375 C 495.609375 350.988281 550.175781 382.480469 550.175781 382.480469 C 550.253906 383.207031 550.105469 383.285156 549.960938 383.285156 " fill-opacity="1" fill-rule="nonzero"/><path fill="#1a181a" d="M 484.890625 130.578125 L 445.210938 107.679688 L 445.273438 84.964844 C 445.3125 72.375 454.214844 67.300781 465.179688 73.628906 C 476.128906 79.949219 484.992188 95.273438 484.957031 107.863281 Z M 505.222656 142.316406 L 502.324219 140.640625 L 502.398438 113.511719 C 502.460938 91.972656 487.308594 65.738281 468.550781 54.914062 L 461.90625 51.078125 C 443.167969 40.265625 427.917969 48.953125 427.855469 70.496094 L 427.777344 97.617188 L 424.304688 95.613281 C 410.726562 87.78125 399.695312 94.082031 399.652344 109.675781 L 399.390625 202.617188 C 399.34375 218.207031 410.304688 237.183594 423.878906 245.015625 L 504.800781 291.710938 C 518.375 299.546875 529.421875 293.273438 529.46875 277.679688 L 529.734375 184.742188 C 529.773438 169.148438 518.796875 150.148438 505.222656 142.316406 " fill-opacity="1" fill-rule="nonzero"/><path fill="#1a181a" d="M 445.644531 107.429688 L 484.460938 129.832031 L 484.523438 107.863281 C 484.558594 95.433594 475.785156 80.246094 464.964844 74 C 459.78125 71.007812 454.933594 70.511719 451.3125 72.59375 C 447.714844 74.660156 445.722656 79.058594 445.710938 84.964844 Z M 484.890625 131.007812 C 484.675781 130.949219 444.996094 108.050781 444.996094 108.050781 C 444.78125 107.675781 444.84375 84.960938 444.84375 84.960938 C 444.863281 78.734375 447.007812 74.074219 450.882812 71.847656 C 454.78125 69.601562 459.9375 70.101562 465.394531 73.253906 C 476.453125 79.632812 485.421875 95.160156 485.386719 107.863281 L 485.324219 130.578125 C 485.039062 130.988281 484.96875 131.007812 484.890625 131.007812 Z M 413.285156 92.664062 C 411.019531 92.664062 408.925781 93.195312 407.085938 94.25 C 402.59375 96.835938 400.105469 102.3125 400.085938 109.675781 L 399.820312 202.613281 C 399.777344 218.039062 410.667969 236.890625 424.097656 244.644531 L 505.019531 291.335938 C 511.46875 295.0625 517.519531 295.683594 522.046875 293.078125 C 526.535156 290.496094 529.019531 285.027344 529.035156 277.679688 L 529.304688 184.742188 C 529.34375 169.304688 518.445312 150.4375 505.007812 142.683594 L 502.109375 141.011719 C 501.890625 140.636719 501.96875 113.507812 501.96875 113.507812 C 502.03125 92.144531 486.945312 66.023438 468.339844 55.285156 L 461.695312 51.449219 C 452.738281 46.285156 444.339844 45.433594 438.035156 49.058594 C 431.78125 52.65625 428.316406 60.269531 428.289062 70.492188 L 428.210938 97.621094 C 427.5625 97.988281 424.089844 95.984375 424.089844 95.984375 C 420.269531 93.785156 416.589844 92.664062 413.285156 92.664062 Z M 515.84375 295.53125 C 512.382812 295.53125 508.546875 294.371094 504.585938 292.085938 L 423.664062 245.386719 C 409.996094 237.5 398.914062 218.3125 398.960938 202.609375 L 399.222656 109.675781 C 399.246094 101.988281 401.882812 96.25 406.65625 93.503906 C 411.453125 90.742188 417.796875 91.359375 424.523438 95.238281 L 427.347656 96.875 L 427.425781 70.492188 C 427.457031 59.949219 431.070312 52.070312 437.609375 48.308594 C 444.183594 44.523438 452.890625 45.375 462.125 50.703125 L 468.769531 54.539062 C 487.613281 65.414062 502.894531 91.871094 502.835938 113.515625 L 502.757812 140.386719 L 505.4375 141.9375 C 519.117188 149.828125 530.207031 169.03125 530.164062 184.742188 L 529.902344 277.679688 C 529.878906 285.351562 527.242188 291.085938 522.472656 293.828125 C 520.5 294.964844 518.261719 295.53125 515.84375 295.53125 " fill-opacity="1" fill-rule="nonzero"/><path fill="#1a181a" d="M 457.085938 192.585938 L 404.316406 223.238281 L 421.910156 233.390625 L 474.683594 202.738281 L 457.085938 192.585938 " fill-opacity="1" fill-rule="nonzero"/><path fill="#cd2530" d="M 405.175781 223.238281 L 421.910156 232.890625 L 473.820312 202.738281 L 457.085938 193.085938 Z M 421.910156 233.820312 C 421.691406 233.765625 404.101562 223.613281 404.101562 223.613281 C 404.101562 222.863281 456.871094 192.210938 456.871094 192.210938 C 457.304688 192.210938 474.898438 202.363281 474.898438 202.363281 C 474.898438 203.109375 422.125 233.765625 422.125 233.765625 C 422.058594 233.804688 421.984375 233.820312 421.910156 233.820312 " fill-opacity="1" fill-rule="nonzero"/><path fill="#1a181a" d="M 459.054688 169.421875 C 458.46875 168.699219 457.921875 167.941406 457.394531 167.160156 C 457.226562 166.910156 457.0625 166.652344 456.898438 166.394531 C 456.4375 165.664062 456.003906 164.917969 455.597656 164.15625 C 454.730469 162.4375 454.441406 161.804688 454.179688 161.164062 C 453.816406 160.257812 453.546875 159.503906 453.308594 158.746094 C 453.042969 157.863281 452.839844 157.105469 452.679688 156.351562 C 452.503906 155.519531 452.378906 154.765625 452.296875 154.019531 C 452.203125 153.160156 452.160156 152.40625 452.160156 151.667969 C 452.164062 151.140625 452.1875 150.636719 452.234375 150.148438 C 452.289062 149.574219 452.351562 149.140625 452.433594 148.726562 C 452.550781 148.164062 452.652344 147.78125 452.765625 147.414062 C 452.945312 146.867188 453.074219 146.539062 453.214844 146.226562 C 453.433594 145.765625 453.613281 145.429688 453.8125 145.117188 C 454.09375 144.675781 454.425781 144.289062 454.769531 143.933594 C 455.390625 143.347656 455.773438 143.039062 456.195312 142.796875 L 403.421875 173.449219 C 403.003906 173.695312 402.621094 174.003906 402.257812 174.339844 C 401.652344 174.945312 401.324219 175.332031 401.042969 175.773438 C 400.835938 176.085938 400.664062 176.402344 400.503906 176.734375 C 399.863281 178.480469 399.800781 178.714844 399.746094 178.957031 C 399.425781 181.175781 399.414062 181.390625 399.402344 181.613281 C 399.988281 187.386719 400.046875 187.640625 400.113281 187.898438 C 400.691406 189.894531 400.796875 190.210938 400.910156 190.523438 C 401.035156 190.871094 401.164062 191.222656 401.300781 191.570312 C 401.542969 192.148438 401.675781 192.476562 401.824219 192.800781 C 401.960938 193.109375 402.113281 193.414062 402.261719 193.71875 C 403.234375 195.578125 403.664062 196.320312 404.125 197.046875 C 404.289062 197.304688 404.453125 197.5625 404.621094 197.816406 C 405.148438 198.597656 405.695312 199.351562 406.28125 200.074219 C 406.566406 200.449219 404.695312 219.5 404.695312 219.5 C 404.695312 219.5 404.316406 223.238281 404.316406 223.238281 L 457.085938 192.585938 L 457.46875 188.84375 L 459.335938 169.796875 C 459.242188 169.675781 459.152344 169.546875 459.054688 169.421875 " fill-opacity="1" fill-rule="nonzero"/><path fill="#cd2530" d="M 401.742188 191.496094 C 401.941406 191.980469 402.074219 192.304688 402.21875 192.621094 C 402.535156 193.292969 402.972656 194.199219 402.972656 194.199219 C 403.609375 195.359375 404.039062 196.101562 404.492188 196.816406 C 404.65625 197.070312 404.816406 197.324219 404.984375 197.570312 C 405.527344 198.382812 406.0625 199.117188 406.617188 199.804688 C 406.996094 200.492188 404.832031 222.4375 404.832031 222.4375 L 456.683594 192.320312 L 457.035156 188.796875 L 458.894531 169.925781 C 458.160156 168.996094 457.59375 168.226562 457.039062 167.402344 C 456.863281 167.144531 456.699219 166.886719 456.535156 166.621094 C 456.066406 165.875 455.621094 165.113281 455.21875 164.355469 C 454.292969 162.515625 454.019531 161.902344 453.78125 161.324219 C 453.410156 160.40625 453.132812 159.632812 452.902344 158.875 C 452.621094 157.964844 452.421875 157.191406 452.253906 156.441406 C 452.078125 155.585938 451.953125 154.8125 451.871094 154.066406 C 451.773438 153.171875 451.726562 152.398438 451.730469 151.664062 C 451.734375 151.148438 451.757812 150.628906 451.804688 150.109375 C 451.863281 149.527344 451.925781 149.078125 452.011719 148.644531 C 452.132812 148.058594 452.238281 147.660156 452.355469 147.28125 C 452.542969 146.714844 452.675781 146.371094 452.824219 146.046875 C 453.046875 145.5625 453.238281 145.214844 453.445312 144.890625 L 403.640625 173.824219 C 403.289062 174.023438 402.945312 174.289062 402.550781 174.652344 C 401.933594 175.273438 401.648438 175.628906 401.40625 176.003906 C 401.210938 176.304688 401.042969 176.605469 400.898438 176.917969 C 400.285156 178.589844 400.222656 178.816406 400.167969 179.050781 C 400.015625 185.148438 400.050781 185.378906 400.082031 185.609375 C 401.105469 189.757812 401.207031 190.070312 401.316406 190.375 C 401.441406 190.71875 401.570312 191.066406 401.707031 191.410156 C 401.34375 191.660156 401.742188 191.496094 401.742188 191.496094 Z M 404.316406 223.671875 C 403.886719 223.195312 404.261719 219.453125 404.261719 219.453125 L 406.121094 200.585938 C 405.375 199.640625 404.828125 198.886719 404.265625 198.054688 C 404.09375 197.796875 403.925781 197.539062 403.761719 197.277344 C 403.296875 196.542969 402.855469 195.78125 402.449219 195.015625 C 402.199219 194.585938 401.761719 193.671875 401.761719 193.671875 C 401.285156 192.644531 401.144531 192.316406 401.011719 191.984375 C 400.761719 191.375 400.628906 191.019531 400.503906 190.664062 C 400.394531 190.34375 400.285156 190.027344 400.179688 189.707031 C 400.007812 189.148438 399.960938 188.988281 399.914062 188.824219 C 400.28125 176.203125 400.464844 175.871094 400.664062 175.554688 C 400.945312 175.117188 401.277344 174.710938 401.691406 174.285156 C 402.398438 173.617188 402.808594 173.308594 403.207031 173.074219 L 455.964844 142.429688 C 456.0625 143.375 455.71875 143.632812 455.324219 143.996094 C 454.714844 144.613281 454.417969 144.976562 454.175781 145.347656 C 453.988281 145.644531 453.8125 145.964844 453.652344 146.296875 C 453.472656 146.703125 453.351562 147.015625 453.238281 147.347656 C 453.066406 147.886719 452.972656 148.261719 452.890625 148.652344 C 452.777344 149.214844 452.71875 149.636719 452.675781 150.0625 C 452.617188 150.679688 452.59375 151.179688 452.589844 151.667969 C 452.589844 152.367188 452.632812 153.109375 452.714844 153.871094 C 452.808594 154.6875 452.929688 155.433594 453.085938 156.1875 C 453.261719 156.988281 453.453125 157.738281 453.683594 158.492188 C 453.953125 159.355469 454.222656 160.105469 454.515625 160.847656 C 454.8125 161.5625 455.078125 162.15625 455.425781 162.878906 C 456.371094 164.691406 456.800781 165.433594 457.265625 166.160156 C 457.425781 166.417969 457.589844 166.671875 457.753906 166.917969 C 458.296875 167.722656 458.847656 168.472656 459.390625 169.152344 C 459.773438 169.839844 457.519531 192.625 457.519531 192.625 C 457.304688 192.960938 404.535156 223.609375 404.535156 223.609375 C 404.464844 223.648438 404.390625 223.671875 404.316406 223.671875 " fill-opacity="1" fill-rule="nonzero"/><path fill="#cd2530" d="M 425.632812 61.636719 C 425.371094 61.484375 425.113281 61.339844 424.851562 61.195312 C 424.515625 61.015625 424.179688 60.839844 423.847656 60.679688 C 422.519531 60.0625 422.191406 59.921875 421.867188 59.792969 C 421.535156 59.660156 421.203125 59.535156 420.875 59.417969 C 420.335938 59.242188 420.113281 59.164062 419.894531 59.09375 C 419.550781 58.992188 419.214844 58.898438 418.878906 58.816406 C 417.507812 58.523438 417.148438 58.464844 416.796875 58.417969 C 415.3125 58.277344 414.929688 58.265625 414.550781 58.269531 C 412.792969 58.371094 412.324219 58.441406 411.859375 58.53125 C 411.058594 58.734375 410.589844 58.84375 410.140625 59.003906 C 409.382812 59.292969 408.75 59.578125 408.15625 59.921875 L 355.382812 90.578125 C 355.976562 90.230469 356.609375 89.945312 357.265625 89.707031 C 357.746094 89.53125 358.246094 89.394531 358.753906 89.277344 C 359.65625 89.070312 360.269531 89.003906 360.898438 88.960938 C 361.890625 88.921875 362.511719 88.929688 363.148438 88.980469 C 364.039062 89.066406 364.71875 89.167969 365.410156 89.320312 C 366.332031 89.519531 367.050781 89.722656 367.785156 89.96875 C 368.703125 90.28125 369.480469 90.589844 370.269531 90.953125 C 371.226562 91.398438 372.039062 91.816406 372.859375 92.285156 L 376.335938 94.292969 L 429.109375 63.636719 L 425.632812 61.636719 " fill-opacity="1" fill-rule="nonzero"/><path fill="#1a181a" d="M 361.929688 88.503906 C 362.359375 88.503906 362.777344 88.515625 363.183594 88.554688 C 364.113281 88.644531 364.8125 88.75 365.5 88.894531 C 366.449219 89.109375 367.191406 89.316406 367.921875 89.5625 C 368.863281 89.882812 369.664062 90.203125 370.449219 90.5625 C 371.449219 91.027344 372.28125 91.457031 373.074219 91.914062 L 376.332031 93.796875 L 428.246094 63.644531 L 425.417969 62.007812 C 425.160156 61.859375 424.898438 61.71875 424.644531 61.582031 C 424.3125 61.398438 423.984375 61.226562 423.652344 61.066406 C 422.347656 60.457031 422.023438 60.320312 421.707031 60.191406 C 421.378906 60.0625 421.054688 59.941406 420.730469 59.828125 C 420.160156 59.636719 419.964844 59.574219 419.765625 59.511719 C 419.433594 59.410156 419.101562 59.320312 418.769531 59.238281 C 417.433594 58.953125 417.082031 58.894531 416.734375 58.847656 C 415.296875 58.710938 414.917969 58.699219 414.550781 58.699219 C 412.847656 58.800781 412.386719 58.867188 411.945312 58.957031 C 411.210938 59.140625 410.730469 59.257812 410.285156 59.414062 C 409.511719 59.707031 408.917969 59.984375 408.371094 60.300781 L 359.519531 88.675781 C 359.9375 88.609375 360.382812 88.5625 360.871094 88.535156 C 361.492188 88.503906 361.710938 88.503906 361.929688 88.503906 Z M 376.332031 94.726562 C 376.117188 94.667969 372.644531 92.664062 372.644531 92.664062 C 371.871094 92.214844 371.0625 91.800781 370.242188 91.417969 C 369.328125 90.996094 368.558594 90.6875 367.792969 90.425781 C 366.945312 90.144531 366.234375 89.941406 365.527344 89.785156 C 364.667969 89.601562 363.996094 89.5 363.332031 89.4375 C 362.535156 89.363281 361.9375 89.351562 361.296875 89.378906 C 360.261719 89.4375 359.683594 89.507812 359.144531 89.617188 C 358.300781 89.824219 357.832031 89.960938 357.414062 90.113281 C 356.738281 90.359375 356.144531 90.632812 355.597656 90.953125 C 355.164062 90.207031 407.9375 59.554688 407.9375 59.554688 C 408.527344 59.210938 409.167969 58.914062 409.890625 58.648438 C 410.488281 58.425781 410.992188 58.304688 411.429688 58.207031 C 412.246094 58.015625 412.738281 57.945312 413.234375 57.898438 C 414.980469 57.835938 415.355469 57.851562 415.734375 57.875 C 417.214844 58.039062 417.582031 58.097656 417.953125 58.171875 C 419.324219 58.488281 419.667969 58.582031 420.015625 58.6875 C 421.351562 59.128906 421.6875 59.257812 422.023438 59.390625 C 422.355469 59.523438 422.6875 59.667969 423.023438 59.816406 C 424.375 60.457031 424.714844 60.636719 425.054688 60.820312 C 425.320312 60.964844 425.582031 61.109375 425.847656 61.265625 L 429.320312 63.269531 C 429.320312 64.011719 376.550781 94.667969 376.550781 94.667969 C 376.484375 94.707031 376.410156 94.726562 376.332031 94.726562 " fill-opacity="1" fill-rule="nonzero"/><path fill="#1a181a" d="M 446.542969 73.699219 L 393.769531 104.351562 L 433.449219 127.25 L 486.21875 96.597656 L 446.542969 73.699219 " fill-opacity="1" fill-rule="nonzero"/><path fill="#cd2530" d="M 394.628906 104.351562 L 433.445312 126.753906 L 485.359375 96.597656 L 446.539062 74.199219 Z M 433.449219 127.683594 C 433.230469 127.625 393.550781 104.726562 393.550781 104.726562 C 393.550781 103.980469 446.324219 73.328125 446.324219 73.328125 C 446.757812 73.328125 486.433594 96.226562 486.433594 96.226562 C 486.433594 96.972656 433.664062 127.625 433.664062 127.625 C 433.597656 127.664062 433.523438 127.683594 433.449219 127.683594 " fill-opacity="1" fill-rule="nonzero"/><path fill="#1a181a" d="M 446.726562 48.621094 C 446.792969 47.980469 446.882812 47.367188 446.996094 46.773438 C 447.164062 45.960938 447.304688 45.410156 447.472656 44.886719 C 447.730469 44.101562 447.914062 43.632812 448.117188 43.183594 C 448.421875 42.519531 448.6875 42.039062 448.972656 41.59375 C 449.382812 40.957031 449.847656 40.40625 450.34375 39.898438 C 451.234375 39.058594 451.785156 38.613281 452.386719 38.265625 L 399.617188 68.917969 C 399.015625 69.269531 398.464844 69.707031 397.945312 70.191406 C 397.078125 71.058594 396.609375 71.613281 396.203125 72.246094 C 395.910156 72.695312 395.660156 73.148438 395.433594 73.625 C 395.210938 74.136719 395.078125 74.4375 394.957031 74.753906 C 394.515625 76.125 394.425781 76.464844 394.347656 76.8125 C 394.097656 78.09375 394.050781 78.40625 394.011719 78.730469 C 393.886719 79.992188 393.867188 80.304688 393.855469 80.625 C 393.839844 80.941406 393.832031 81.257812 393.832031 81.585938 C 393.832031 81.640625 393.765625 104.355469 393.765625 104.355469 L 446.539062 73.699219 L 446.601562 50.988281 C 446.605469 50.234375 446.644531 49.511719 446.707031 48.808594 C 446.714844 48.746094 446.71875 48.6875 446.726562 48.621094 " fill-opacity="1" fill-rule="nonzero"/><path fill="#cd2530" d="M 449.09375 40.675781 L 399.832031 69.285156 C 399.320312 69.585938 398.8125 69.972656 398.238281 70.503906 C 397.351562 71.394531 396.917969 71.929688 396.566406 72.476562 C 396.289062 72.910156 396.046875 73.351562 395.824219 73.808594 C 395.609375 74.304688 395.480469 74.59375 395.363281 74.902344 C 394.933594 76.238281 394.847656 76.566406 394.769531 76.902344 L 394.582031 77.847656 C 394.527344 78.15625 394.480469 78.46875 394.441406 78.785156 C 394.320312 80.023438 394.300781 80.328125 394.289062 80.636719 C 394.273438 80.949219 394.265625 81.265625 394.265625 81.582031 L 394.203125 103.601562 L 446.109375 73.449219 L 446.171875 50.984375 C 446.175781 50.253906 446.214844 49.503906 446.277344 48.769531 C 446.363281 47.929688 446.457031 47.292969 446.574219 46.6875 C 446.742188 45.867188 446.890625 45.296875 447.058594 44.753906 C 447.328125 43.945312 447.519531 43.457031 447.726562 43 C 448.039062 42.320312 448.3125 41.820312 448.613281 41.355469 C 448.761719 41.128906 448.917969 40.902344 449.09375 40.675781 Z M 393.769531 104.785156 C 393.335938 104.351562 393.398438 81.640625 393.398438 81.640625 C 393.402344 81.25 393.410156 80.921875 393.421875 80.597656 C 393.4375 80.277344 393.457031 79.960938 393.480469 79.648438 C 393.625 78.34375 393.675781 78.023438 393.730469 77.707031 C 394.011719 76.355469 394.097656 76.007812 394.199219 75.671875 C 394.675781 74.273438 394.8125 73.96875 394.949219 73.660156 C 395.28125 72.945312 395.539062 72.476562 395.820312 72.035156 C 396.25 71.378906 396.707031 70.816406 397.265625 70.242188 C 398.277344 69.296875 398.828125 68.875 399.398438 68.542969 L 452.171875 37.886719 C 452.09375 38.933594 451.585938 39.316406 451.011719 39.851562 C 450.125 40.738281 449.691406 41.273438 449.335938 41.820312 C 449.0625 42.257812 448.804688 42.722656 448.578125 43.207031 C 448.316406 43.789062 448.136719 44.25 447.976562 44.730469 C 447.722656 45.53125 447.582031 46.070312 447.464844 46.621094 C 447.308594 47.433594 447.222656 48.042969 447.160156 48.664062 C 447.074219 49.5625 447.039062 50.277344 447.035156 50.984375 L 446.972656 73.695312 C 446.757812 74.070312 393.984375 104.722656 393.984375 104.722656 C 393.917969 104.765625 393.84375 104.785156 393.769531 104.785156 " fill-opacity="1" fill-rule="nonzero"/><path fill="#cd2530" d="M 530.796875 243.699219 L 531.0625 150.761719 C 531.0625 150.390625 531.054688 150.019531 531.046875 149.652344 C 531.03125 149.257812 531.015625 148.863281 530.992188 148.460938 C 530.855469 146.867188 530.8125 146.464844 530.761719 146.058594 C 530.710938 145.648438 530.648438 145.230469 530.582031 144.8125 C 530.511719 144.359375 530.441406 143.960938 530.367188 143.558594 C 530.28125 143.113281 530.191406 142.671875 530.09375 142.230469 C 529.652344 140.386719 529.519531 139.898438 529.382812 139.414062 C 528.742188 137.316406 528.554688 136.769531 528.363281 136.226562 C 527.878906 134.941406 527.769531 134.628906 527.644531 134.320312 C 527.472656 133.878906 527.28125 133.445312 527.09375 133.011719 C 526.476562 131.582031 526.214844 131.070312 525.964844 130.554688 C 525.785156 130.179688 525.617188 129.796875 525.425781 129.425781 C 525.027344 128.636719 524.667969 128.003906 524.316406 127.375 C 524.167969 127.113281 524.035156 126.847656 523.882812 126.582031 C 523.34375 125.652344 522.777344 124.730469 522.191406 123.828125 C 521.367188 122.617188 520.875 121.886719 520.351562 121.183594 C 520.125 120.875 519.886719 120.582031 519.65625 120.28125 C 519.28125 119.792969 518.917969 119.300781 518.53125 118.828125 C 518.101562 118.3125 517.800781 117.980469 517.503906 117.640625 C 517.167969 117.25 516.839844 116.851562 516.492188 116.476562 C 515.503906 115.445312 515.214844 115.136719 514.917969 114.839844 C 514.644531 114.5625 514.355469 114.300781 514.074219 114.027344 C 513.125 113.136719 512.695312 112.761719 512.265625 112.394531 C 510.730469 111.144531 510.355469 110.859375 509.980469 110.578125 C 509.707031 110.378906 509.433594 110.1875 509.15625 109.996094 C 508.546875 109.570312 508.191406 109.335938 507.839844 109.109375 C 507.492188 108.886719 507.148438 108.675781 506.796875 108.472656 C 506.554688 108.328125 503.652344 106.65625 503.652344 106.65625 L 450.882812 137.3125 L 453.78125 138.984375 C 454.613281 139.464844 455.433594 139.988281 456.246094 140.550781 C 457.140625 141.175781 457.886719 141.738281 458.621094 142.332031 C 459.59375 143.128906 460.292969 143.738281 460.976562 144.375 C 461.886719 145.238281 462.457031 145.8125 463.019531 146.402344 C 463.910156 147.34375 464.316406 147.820312 464.726562 148.289062 C 465.023438 148.632812 465.328125 148.96875 465.617188 149.320312 C 466.054688 149.84375 466.464844 150.390625 466.882812 150.933594 C 467.113281 151.238281 467.355469 151.527344 467.582031 151.835938 C 468.097656 152.539062 468.59375 153.265625 469.082031 154 C 470.003906 155.382812 470.570312 156.304688 471.113281 157.238281 C 471.261719 157.496094 471.394531 157.769531 471.542969 158.03125 C 471.925781 158.707031 472.300781 159.386719 472.65625 160.078125 C 472.84375 160.449219 473.015625 160.832031 473.195312 161.207031 C 473.488281 161.8125 473.78125 162.414062 474.050781 163.019531 C 474.636719 164.40625 474.941406 165.15625 475.222656 165.90625 C 475.75 167.339844 476.050781 168.226562 476.320312 169.109375 C 476.710938 170.402344 476.953125 171.3125 477.167969 172.21875 C 477.453125 173.472656 477.648438 174.445312 477.800781 175.414062 C 477.960938 176.414062 478.074219 177.382812 478.15625 178.335938 C 478.25 179.53125 478.289062 180.480469 478.289062 181.410156 L 478.027344 274.351562 C 478.023438 275.28125 477.976562 276.179688 477.898438 277.042969 C 477.789062 278.074219 477.679688 278.835938 477.539062 279.566406 C 477.332031 280.574219 477.15625 281.253906 476.953125 281.898438 C 476.632812 282.875 476.402344 283.460938 476.152344 284.015625 C 475.769531 284.839844 475.441406 285.433594 475.082031 285.992188 C 474.632812 286.648438 474.3125 287.070312 473.976562 287.460938 C 473.304688 288.191406 472.996094 288.488281 472.675781 288.765625 C 471.828125 289.476562 471.359375 289.8125 470.859375 290.101562 L 523.632812 259.445312 C 524.128906 259.160156 524.597656 258.820312 525.050781 258.460938 C 525.773438 257.835938 526.074219 257.539062 526.371094 257.222656 C 527.085938 256.414062 527.402344 256 527.703125 255.550781 C 528.222656 254.765625 528.53125 254.207031 528.8125 253.613281 C 529.09375 252.988281 529.257812 252.613281 529.402344 252.21875 C 529.953125 250.519531 530.0625 250.101562 530.160156 249.671875 C 530.46875 248.089844 530.527344 247.695312 530.578125 247.296875 C 530.730469 245.738281 530.753906 245.351562 530.773438 244.957031 C 530.785156 244.566406 530.796875 244.171875 530.796875 243.769531 C 530.796875 243.699219 530.796875 243.699219 530.796875 243.699219 " fill-opacity="1" fill-rule="nonzero"/><path fill="#1a181a" d="M 451.742188 137.308594 L 453.996094 138.613281 C 454.816406 139.082031 455.652344 139.617188 456.488281 140.191406 C 457.371094 140.8125 458.132812 141.386719 458.894531 141.996094 C 459.871094 142.800781 460.585938 143.421875 461.269531 144.0625 C 462.164062 144.90625 462.730469 145.476562 463.332031 146.105469 C 464.152344 146.96875 464.488281 147.359375 464.824219 147.746094 C 465.554688 148.582031 465.753906 148.808594 465.949219 149.046875 C 466.34375 149.527344 466.726562 150.019531 467.105469 150.519531 C 468.382812 152.203125 468.851562 152.875 469.441406 153.761719 C 470.363281 155.148438 470.9375 156.082031 471.484375 157.023438 C 472.300781 158.503906 472.683594 159.1875 473.035156 159.882812 C 473.949219 161.777344 474.203125 162.3125 474.445312 162.847656 C 475.039062 164.246094 475.34375 165 475.628906 165.757812 C 476.160156 167.195312 476.460938 168.09375 476.734375 168.984375 C 477.128906 170.304688 477.375 171.230469 477.585938 172.121094 C 477.886719 173.425781 478.082031 174.417969 478.226562 175.34375 C 478.382812 176.332031 478.503906 177.316406 478.582031 178.304688 C 478.683594 179.566406 478.722656 180.507812 478.722656 181.414062 L 478.457031 274.351562 C 478.453125 275.265625 478.410156 276.160156 478.324219 277.082031 C 478.222656 278.117188 478.109375 278.898438 477.964844 279.648438 C 477.753906 280.660156 477.574219 281.359375 477.367188 282.03125 C 477.03125 283.035156 476.792969 283.640625 476.539062 284.195312 C 476.152344 285.039062 475.8125 285.65625 475.441406 286.226562 C 475.046875 286.800781 474.800781 287.140625 474.535156 287.464844 L 523.414062 259.074219 C 523.84375 258.824219 524.289062 258.515625 524.78125 258.121094 C 525.480469 257.519531 525.777344 257.226562 526.054688 256.929688 C 526.75 256.148438 527.058594 255.734375 527.34375 255.3125 C 527.851562 254.546875 528.152344 254 528.421875 253.429688 C 528.695312 252.820312 528.851562 252.453125 529 252.066406 C 529.125 251.691406 529.417969 250.804688 529.417969 250.804688 C 529.539062 250.40625 529.640625 249.996094 529.738281 249.578125 C 529.792969 249.308594 529.976562 248.394531 529.976562 248.394531 C 530.039062 248.023438 530.097656 247.636719 530.148438 247.242188 C 530.296875 245.707031 530.320312 245.328125 530.335938 244.941406 C 530.355469 244.554688 530.359375 244.164062 530.363281 243.769531 C 530.363281 243.695312 530.632812 150.757812 530.632812 150.757812 C 530.632812 150.394531 530.625 150.03125 530.613281 149.664062 C 530.601562 149.273438 530.585938 148.886719 530.558594 148.492188 L 530.464844 147.308594 C 530.429688 146.910156 530.382812 146.515625 530.335938 146.113281 C 530.277344 145.703125 530.222656 145.296875 530.15625 144.882812 C 530.085938 144.429688 530.015625 144.039062 529.941406 143.640625 C 529.859375 143.199219 529.765625 142.761719 529.671875 142.320312 L 529.460938 141.433594 C 529.234375 140.496094 529.105469 140.015625 528.96875 139.535156 L 528.503906 137.996094 C 528.328125 137.457031 528.148438 136.914062 527.957031 136.371094 L 527.476562 135.097656 C 527.113281 134.15625 526.976562 133.835938 526.835938 133.511719 C 526.15625 131.925781 525.980469 131.570312 525.804688 131.210938 L 525.378906 130.320312 C 524.679688 128.914062 524.375 128.363281 524.0625 127.816406 C 522.972656 125.878906 522.410156 124.957031 521.828125 124.066406 C 521.011719 122.859375 520.519531 122.140625 520.003906 121.441406 C 519.59375 120.90625 519.011719 120.148438 519.011719 120.148438 C 518.742188 119.796875 518.472656 119.445312 518.195312 119.101562 C 517.867188 118.710938 517.671875 118.488281 517.476562 118.265625 L 516.847656 117.539062 C 516.621094 117.28125 516.402344 117.019531 516.171875 116.769531 C 515.023438 115.566406 514.820312 115.351562 514.613281 115.148438 C 514.398438 114.933594 514.175781 114.726562 513.957031 114.519531 L 513.25 113.839844 C 512.832031 113.460938 512.410156 113.085938 511.984375 112.726562 C 511.558594 112.371094 510.835938 111.777344 510.835938 111.777344 C 510.46875 111.488281 510.09375 111.203125 509.71875 110.929688 C 509.472656 110.746094 509.21875 110.566406 508.972656 110.390625 C 508.300781 109.929688 507.957031 109.699219 507.605469 109.476562 C 507.265625 109.257812 506.921875 109.046875 506.574219 108.84375 L 503.652344 107.15625 Z M 470.859375 290.53125 C 471.097656 289.464844 471.519531 289.167969 472.011719 288.777344 C 472.703125 288.179688 473 287.882812 473.28125 287.585938 C 473.972656 286.800781 474.285156 286.390625 474.5625 285.972656 C 475.066406 285.222656 475.386719 284.636719 475.675781 284.019531 C 475.996094 283.308594 476.21875 282.734375 476.421875 282.128906 C 476.738281 281.132812 476.914062 280.460938 477.054688 279.777344 C 477.253906 278.757812 477.367188 278.007812 477.445312 277.238281 C 477.546875 276.101562 477.589844 275.234375 477.59375 274.351562 L 477.859375 181.414062 C 477.859375 180.527344 477.824219 179.609375 477.742188 178.609375 C 477.644531 177.410156 477.527344 176.449219 477.378906 175.515625 C 477.230469 174.570312 477.039062 173.601562 476.808594 172.601562 C 476.535156 171.441406 476.296875 170.535156 476.023438 169.621094 C 475.640625 168.363281 475.34375 167.476562 475.023438 166.609375 C 474.539062 165.316406 474.238281 164.570312 473.925781 163.835938 C 473.421875 162.667969 473.167969 162.144531 472.914062 161.621094 C 471.917969 159.585938 471.542969 158.914062 471.167969 158.242188 C 470.203125 156.527344 469.636719 155.605469 469.050781 154.71875 C 468.136719 153.363281 467.675781 152.703125 467.234375 152.09375 C 466.046875 150.550781 465.671875 150.066406 465.285156 149.59375 C 465.097656 149.367188 464.902344 149.144531 464.707031 148.921875 C 463.839844 147.933594 463.515625 147.550781 463.175781 147.183594 C 462.113281 146.082031 461.558594 145.523438 461.003906 145 C 460.007812 144.066406 459.3125 143.453125 458.609375 142.882812 C 457.605469 142.070312 456.863281 141.511719 456.136719 141.003906 C 455.183594 140.339844 454.363281 139.820312 453.566406 139.355469 L 450.664062 137.683594 C 450.664062 136.9375 503.4375 106.285156 503.4375 106.285156 C 503.867188 106.285156 507.011719 108.101562 507.011719 108.101562 C 507.371094 108.308594 507.722656 108.523438 508.074219 108.746094 C 508.425781 108.972656 508.785156 109.210938 509.132812 109.453125 C 509.722656 109.863281 509.980469 110.046875 510.234375 110.234375 C 510.617188 110.515625 510.996094 110.804688 511.367188 111.101562 L 512.101562 111.703125 C 512.976562 112.433594 513.410156 112.816406 513.832031 113.207031 L 514.550781 113.886719 C 514.773438 114.101562 515.003906 114.316406 515.222656 114.535156 C 515.4375 114.75 515.644531 114.96875 515.851562 115.1875 C 517.046875 116.441406 517.277344 116.710938 517.503906 116.980469 L 518.125 117.695312 C 518.328125 117.925781 518.53125 118.15625 518.722656 118.394531 C 519.148438 118.90625 519.425781 119.265625 519.703125 119.628906 L 520.273438 120.375 C 521.222656 121.640625 521.71875 122.371094 522.210938 123.109375 C 523.140625 124.496094 523.714844 125.429688 524.257812 126.371094 C 525.136719 127.953125 525.449219 128.515625 525.738281 129.082031 C 525.933594 129.46875 526.046875 129.710938 526.160156 129.953125 L 526.582031 130.832031 C 526.761719 131.199219 526.9375 131.5625 527.105469 131.933594 C 527.773438 133.5 527.914062 133.828125 528.046875 134.164062 C 528.285156 134.800781 528.769531 136.082031 528.769531 136.082031 C 528.964844 136.632812 529.148438 137.183594 529.328125 137.734375 L 529.796875 139.296875 C 529.933594 139.789062 530.066406 140.277344 530.195312 140.765625 C 530.304688 141.242188 530.511719 142.132812 530.511719 142.132812 C 530.613281 142.585938 530.703125 143.035156 530.792969 143.480469 C 530.867188 143.882812 530.9375 144.289062 531 144.691406 C 531.074219 145.167969 531.136719 145.589844 531.191406 146.007812 C 531.242188 146.414062 531.289062 146.820312 531.324219 147.226562 L 531.421875 148.433594 C 531.449219 148.84375 531.46875 149.242188 531.480469 149.636719 C 531.488281 150.015625 531.492188 150.390625 531.492188 150.761719 L 531.230469 243.769531 C 531.230469 244.179688 531.21875 244.582031 531.203125 244.976562 C 531.183594 245.375 531.160156 245.761719 531.128906 246.148438 C 530.953125 247.757812 530.890625 248.152344 530.828125 248.546875 L 530.640625 249.46875 C 530.476562 250.207031 530.367188 250.632812 530.246094 251.046875 C 530.179688 251.25 529.949219 251.953125 529.949219 251.953125 C 529.65625 252.773438 529.488281 253.160156 529.3125 253.546875 C 528.921875 254.398438 528.601562 254.980469 528.25 255.523438 C 527.757812 256.246094 527.425781 256.683594 527.074219 257.09375 C 526.394531 257.839844 526.070312 258.148438 525.734375 258.4375 C 524.796875 259.210938 524.3125 259.554688 523.847656 259.824219 L 471.101562 290.457031 C 471.003906 290.515625 470.933594 290.53125 470.859375 290.53125 " fill-opacity="1" fill-rule="nonzero"/><path fill="#f1e9e1" d="M 433.449219 127.25 L 393.769531 104.351562 L 393.832031 81.636719 C 393.867188 69.046875 402.773438 63.976562 413.734375 70.304688 C 424.683594 76.617188 433.546875 91.945312 433.511719 104.535156 Z M 419.792969 208.082031 L 421.910156 233.390625 L 404.316406 223.238281 L 404.695312 219.5 L 406.570312 200.449219 C 402.273438 195.277344 399.375 188.359375 399.390625 182.316406 C 399.414062 173.550781 405.617188 170 413.265625 174.417969 C 415.144531 175.5 416.929688 176.96875 418.550781 178.695312 C 423.566406 183.96875 427.070312 191.65625 427.050781 198.285156 C 427.035156 204.320312 424.101562 207.875 419.792969 208.082031 Z M 453.78125 138.984375 L 450.878906 137.308594 L 450.957031 110.1875 C 451.015625 88.644531 435.863281 62.414062 417.109375 51.589844 L 410.464844 47.753906 C 391.726562 36.9375 376.472656 45.625 376.410156 67.167969 L 376.335938 94.292969 L 372.859375 92.289062 C 359.285156 84.453125 348.253906 90.753906 348.207031 106.347656 L 347.945312 199.289062 C 347.902344 214.882812 358.859375 233.855469 372.4375 241.691406 L 453.355469 288.386719 C 466.933594 296.222656 477.980469 289.949219 478.023438 274.351562 L 478.289062 181.414062 C 478.332031 165.820312 467.359375 146.816406 453.78125 138.984375 " fill-opacity="1" fill-rule="nonzero"/><path fill="#1a181a" d="M 394.199219 104.105469 L 433.015625 126.507812 L 433.078125 104.535156 C 433.113281 92.113281 424.339844 76.921875 413.523438 70.675781 C 408.339844 67.691406 403.488281 67.1875 399.867188 69.273438 C 396.269531 71.339844 394.28125 75.734375 394.265625 81.640625 Z M 433.449219 127.683594 C 433.230469 127.625 393.550781 104.726562 393.550781 104.726562 C 393.335938 104.351562 393.398438 81.640625 393.398438 81.640625 C 393.417969 75.410156 395.5625 70.75 399.433594 68.523438 C 403.335938 66.277344 408.488281 66.777344 413.953125 69.929688 C 425.011719 76.3125 433.980469 91.835938 433.941406 104.539062 L 433.878906 127.253906 C 433.597656 127.664062 433.523438 127.683594 433.449219 127.683594 Z M 404.773438 223.007812 L 421.410156 232.605469 L 419.363281 208.117188 C 423.980469 207.449219 426.605469 203.859375 426.621094 198.28125 C 426.636719 191.941406 423.347656 184.371094 418.238281 178.992188 C 416.585938 177.238281 414.839844 175.824219 413.046875 174.789062 C 409.480469 172.726562 406.144531 172.382812 403.664062 173.8125 C 401.199219 175.230469 399.832031 178.253906 399.820312 182.320312 C 399.804688 188.050781 402.519531 194.894531 406.898438 200.175781 C 406.996094 200.492188 404.773438 223.007812 404.773438 223.007812 Z M 421.910156 233.820312 C 421.691406 233.765625 404.101562 223.609375 404.101562 223.609375 C 403.886719 223.199219 404.261719 219.453125 404.261719 219.453125 L 406.121094 200.589844 C 401.679688 195.179688 398.941406 188.195312 398.957031 182.316406 C 398.96875 177.925781 400.484375 174.640625 403.230469 173.0625 C 405.996094 171.472656 409.632812 171.824219 413.480469 174.042969 C 415.347656 175.117188 417.15625 176.582031 418.867188 178.398438 C 424.121094 183.925781 427.503906 191.734375 427.484375 198.285156 C 427.46875 204.171875 424.710938 208.035156 420.261719 208.480469 L 422.335938 233.355469 C 422.070312 233.800781 421.988281 233.820312 421.910156 233.820312 Z M 361.839844 89.34375 C 359.574219 89.34375 357.480469 89.867188 355.640625 90.929688 C 351.148438 93.511719 348.660156 98.988281 348.640625 106.351562 L 348.375 199.289062 C 348.332031 214.714844 359.222656 233.570312 372.652344 241.320312 L 453.574219 288.015625 C 460.027344 291.738281 466.074219 292.355469 470.601562 289.753906 C 475.085938 287.171875 477.570312 281.703125 477.59375 274.351562 L 477.855469 181.414062 C 477.898438 165.980469 467.003906 147.113281 453.5625 139.359375 L 450.664062 137.683594 C 450.449219 137.308594 450.523438 110.183594 450.523438 110.183594 C 450.585938 88.820312 435.5 62.703125 416.890625 51.960938 L 410.246094 48.128906 C 401.292969 42.964844 392.894531 42.109375 386.59375 45.734375 C 380.335938 49.332031 376.871094 56.945312 376.84375 67.167969 L 376.765625 94.296875 C 376.117188 94.664062 372.644531 92.660156 372.644531 92.660156 C 368.824219 90.457031 365.144531 89.34375 361.839844 89.34375 Z M 464.394531 292.203125 C 460.933594 292.203125 457.105469 291.046875 453.140625 288.761719 L 372.21875 242.0625 C 358.550781 234.175781 347.46875 214.988281 347.511719 199.285156 L 347.777344 106.347656 C 347.796875 98.664062 350.4375 92.921875 355.210938 90.179688 C 360.007812 87.417969 366.355469 88.035156 373.078125 91.914062 L 375.90625 93.546875 L 375.980469 67.167969 C 376.007812 56.625 379.625 48.746094 386.164062 44.984375 C 392.742188 41.203125 401.445312 42.054688 410.679688 47.378906 L 417.324219 51.214844 C 436.167969 62.089844 451.449219 88.546875 451.386719 110.1875 L 451.3125 137.0625 L 453.996094 138.613281 C 467.671875 146.503906 478.765625 165.703125 478.71875 181.417969 L 478.457031 274.351562 C 478.433594 282.027344 475.796875 287.761719 471.03125 290.503906 C 469.054688 291.640625 466.8125 292.203125 464.394531 292.203125 " fill-opacity="1" fill-rule="nonzero"/><g clip-path="url(#58363c6b48)"><path fill="#cd2530" d="M 503.710938 78 C 503.695312 77.457031 503.664062 76.910156 503.632812 76.359375 C 503.445312 74.152344 503.382812 73.59375 503.3125 73.039062 C 503.242188 72.46875 503.15625 71.894531 503.066406 71.320312 C 502.96875 70.695312 502.871094 70.136719 502.765625 69.582031 C 502.652344 68.972656 502.527344 68.359375 502.390625 67.746094 C 502.101562 66.515625 502.03125 66.191406 501.953125 65.867188 C 501.78125 65.199219 501.601562 64.527344 501.414062 63.855469 C 500.523438 60.964844 500.269531 60.210938 500 59.457031 C 499.335938 57.683594 499.183594 57.25 499.011719 56.820312 C 498.773438 56.214844 498.503906 55.613281 498.25 55.011719 C 498.125 54.71875 498.003906 54.425781 497.878906 54.136719 C 497.398438 53.046875 497.039062 52.34375 496.695312 51.628906 C 496.445312 51.109375 496.210938 50.582031 495.945312 50.0625 C 495.410156 49.003906 494.929688 48.15625 494.457031 47.308594 C 494.238281 46.921875 494.035156 46.523438 493.816406 46.136719 C 493.070312 44.851562 492.289062 43.582031 491.480469 42.339844 C 491.3125 42.089844 491.136719 41.855469 490.972656 41.605469 C 490.3125 40.621094 489.644531 39.644531 488.945312 38.6875 C 488.628906 38.253906 488.289062 37.84375 487.960938 37.417969 C 487.453125 36.753906 486.957031 36.082031 486.429688 35.4375 C 485.832031 34.726562 485.414062 34.261719 485 33.785156 C 484.535156 33.253906 484.085938 32.703125 483.613281 32.1875 C 483.078125 31.628906 482.863281 31.40625 482.644531 31.183594 C 482.246094 30.765625 481.851562 30.332031 481.441406 29.929688 C 481.058594 29.546875 480.660156 29.183594 480.269531 28.8125 C 478.957031 27.578125 478.367188 27.058594 477.773438 26.550781 C 477.496094 26.3125 477.210938 26.089844 476.929688 25.851562 C 475.65625 24.824219 475.136719 24.429688 474.617188 24.042969 C 474.242188 23.765625 473.859375 23.5 473.480469 23.234375 C 472.636719 22.644531 472.148438 22.324219 471.660156 22.011719 C 471.179688 21.710938 470.699219 21.414062 470.21875 21.128906 C 469.882812 20.933594 463.234375 17.097656 463.234375 17.097656 C 462.875 16.894531 462.515625 16.6875 462.160156 16.496094 C 461.691406 16.242188 461.230469 16.003906 460.769531 15.777344 C 460.46875 15.628906 460.171875 15.492188 459.875 15.355469 C 458.941406 14.925781 458.488281 14.734375 458.039062 14.554688 C 457.578125 14.371094 457.121094 14.199219 456.671875 14.039062 C 455.921875 13.792969 455.613281 13.6875 455.3125 13.597656 C 454.839844 13.457031 454.371094 13.328125 453.910156 13.210938 C 452.015625 12.800781 451.523438 12.722656 451.03125 12.652344 C 450.730469 12.613281 450.433594 12.589844 450.132812 12.566406 C 448.984375 12.460938 448.453125 12.445312 447.929688 12.453125 C 445.5 12.597656 444.847656 12.691406 444.210938 12.816406 C 443.109375 13.089844 442.457031 13.25 441.84375 13.46875 C 440.789062 13.867188 439.914062 14.261719 439.089844 14.738281 L 386.320312 45.394531 C 387.140625 44.914062 388.015625 44.519531 388.921875 44.191406 C 389.585938 43.945312 390.277344 43.753906 390.980469 43.59375 C 392.222656 43.3125 393.074219 43.214844 393.941406 43.160156 C 395.3125 43.101562 396.171875 43.113281 397.050781 43.183594 C 398.28125 43.304688 399.21875 43.449219 400.175781 43.648438 C 401.445312 43.929688 402.445312 44.210938 403.457031 44.550781 C 404.71875 44.980469 405.796875 45.410156 406.886719 45.910156 C 408.207031 46.523438 409.328125 47.097656 410.464844 47.75 L 417.109375 51.585938 C 418.257812 52.25 419.394531 52.976562 420.511719 53.75 C 421.753906 54.617188 422.785156 55.394531 423.796875 56.214844 C 425.136719 57.3125 426.101562 58.15625 427.050781 59.035156 C 428.304688 60.226562 429.09375 61.019531 429.871094 61.832031 C 430.089844 62.058594 430.308594 62.28125 430.523438 62.511719 C 431.105469 63.136719 431.664062 63.792969 432.230469 64.445312 C 432.640625 64.917969 433.058594 65.378906 433.460938 65.863281 C 434.054688 66.585938 434.628906 67.339844 435.203125 68.089844 C 435.523438 68.507812 435.855469 68.914062 436.171875 69.339844 C 436.878906 70.304688 437.558594 71.300781 438.226562 72.300781 C 439.519531 74.234375 440.296875 75.507812 441.042969 76.796875 C 441.261719 77.171875 441.457031 77.5625 441.671875 77.941406 C 442.183594 78.859375 442.695312 79.78125 443.171875 80.714844 C 443.4375 81.238281 443.675781 81.769531 443.929688 82.292969 C 444.328125 83.121094 444.730469 83.945312 445.101562 84.78125 C 445.230469 85.078125 445.351562 85.378906 445.476562 85.671875 C 445.914062 86.699219 446.332031 87.726562 446.722656 88.761719 C 447.457031 90.75 447.867188 91.96875 448.242188 93.1875 C 448.773438 94.980469 449.109375 96.234375 449.402344 97.484375 C 449.804688 99.226562 450.070312 100.566406 450.28125 101.898438 C 450.503906 103.285156 450.664062 104.617188 450.773438 105.9375 C 450.902344 107.585938 450.960938 108.894531 450.957031 110.1875 L 450.878906 137.308594 L 503.65625 106.65625 L 503.734375 79.53125 C 503.734375 79.023438 503.726562 78.511719 503.710938 78 " fill-opacity="1" fill-rule="nonzero"/></g><g clip-path="url(#cbd4cefedc)"><path fill="#1a181a" d="M 395.363281 42.6875 C 395.953125 42.6875 396.519531 42.710938 397.085938 42.757812 C 398.359375 42.882812 399.324219 43.027344 400.265625 43.226562 C 401.566406 43.519531 402.585938 43.804688 403.59375 44.140625 C 404.875 44.582031 405.972656 45.019531 407.066406 45.515625 C 408.445312 46.15625 409.589844 46.753906 410.679688 47.382812 L 417.324219 51.214844 C 418.453125 51.867188 419.609375 52.601562 420.757812 53.394531 C 421.996094 54.261719 423.042969 55.054688 424.070312 55.878906 C 425.425781 56.996094 426.40625 57.851562 427.34375 58.71875 C 428.5625 59.878906 429.34375 60.65625 430.183594 61.535156 C 431.320312 62.734375 431.785156 63.273438 432.253906 63.8125 L 432.96875 64.636719 C 433.25 64.953125 433.523438 65.265625 433.792969 65.589844 C 434.34375 66.253906 434.867188 66.941406 435.394531 67.628906 C 436.128906 68.570312 436.328125 68.824219 436.519531 69.085938 C 437.296875 70.148438 438.03125 71.230469 438.585938 72.0625 C 439.878906 74 440.667969 75.285156 441.417969 76.578125 C 442.523438 78.585938 443.0625 79.554688 443.558594 80.523438 C 443.730469 80.863281 443.894531 81.210938 444.058594 81.558594 L 444.472656 82.433594 C 444.824219 83.15625 445.175781 83.878906 445.496094 84.613281 C 446.347656 86.609375 446.753906 87.628906 447.125 88.613281 C 447.867188 90.613281 448.28125 91.847656 448.652344 93.066406 C 449.191406 94.875 449.53125 96.144531 449.824219 97.386719 C 450.246094 99.214844 450.503906 100.542969 450.710938 101.832031 C 450.925781 103.191406 451.089844 104.542969 451.203125 105.902344 C 451.339844 107.648438 451.390625 108.941406 451.386719 110.191406 L 451.3125 136.5625 L 503.222656 106.410156 L 503.296875 79.53125 C 503.300781 79.027344 503.292969 78.523438 503.277344 78.015625 C 503.261719 77.476562 503.238281 76.933594 503.203125 76.386719 C 503.164062 75.933594 503.070312 74.746094 503.070312 74.746094 C 503.015625 74.195312 502.953125 73.644531 502.882812 73.09375 C 502.8125 72.527344 502.730469 71.953125 502.640625 71.386719 C 502.539062 70.765625 502.445312 70.21875 502.34375 69.667969 C 502.226562 69.054688 502.105469 68.445312 501.96875 67.839844 L 501.679688 66.597656 C 501.363281 65.308594 501.1875 64.644531 500.992188 63.972656 C 500.855469 63.511719 500.496094 62.320312 500.496094 62.320312 C 500.113281 61.101562 499.863281 60.351562 499.597656 59.605469 C 498.828125 57.5625 498.722656 57.273438 498.609375 56.984375 C 498.433594 56.535156 498.242188 56.09375 498.050781 55.652344 L 497.699219 54.824219 C 497.113281 53.457031 496.871094 52.976562 496.636719 52.492188 L 496.027344 51.222656 C 495.875 50.902344 495.722656 50.578125 495.5625 50.257812 C 495.101562 49.351562 494.710938 48.652344 494.320312 47.953125 C 492.6875 45.058594 491.90625 43.785156 491.121094 42.578125 C 490.027344 40.976562 489.335938 39.949219 488.597656 38.945312 C 488.402344 38.679688 488.203125 38.425781 488 38.171875 L 487.203125 37.136719 C 486.839844 36.65625 486.476562 36.171875 486.09375 35.710938 C 485.636719 35.167969 485.363281 34.855469 485.089844 34.546875 L 484.191406 33.507812 C 483.894531 33.160156 483.601562 32.8125 483.296875 32.480469 C 482.566406 31.726562 481.964844 31.09375 481.964844 31.09375 C 481.691406 30.804688 481.417969 30.515625 481.136719 30.238281 C 480.851562 29.953125 480.5625 29.679688 480.269531 29.40625 L 479.246094 28.429688 C 478.671875 27.898438 478.085938 27.382812 477.492188 26.882812 C 476.890625 26.386719 475.902344 25.570312 475.902344 25.570312 C 475.390625 25.167969 474.875 24.773438 474.359375 24.394531 C 473.984375 24.117188 473.609375 23.855469 473.230469 23.59375 C 472.390625 23.003906 471.910156 22.6875 471.429688 22.378906 C 470.953125 22.078125 470.476562 21.785156 469.996094 21.503906 L 463.019531 17.476562 C 462.664062 17.269531 462.308594 17.070312 461.953125 16.878906 C 461.492188 16.628906 461.03125 16.386719 460.578125 16.164062 C 458.769531 15.324219 458.320312 15.132812 457.878906 14.957031 C 457.425781 14.777344 456.972656 14.605469 456.523438 14.449219 C 454.722656 13.871094 454.257812 13.742188 453.804688 13.632812 C 451.941406 13.226562 451.457031 13.148438 450.972656 13.082031 C 450.355469 13.019531 449.492188 12.933594 449.492188 12.933594 C 448.960938 12.894531 448.4375 12.882812 447.929688 12.882812 C 445.554688 13.023438 444.910156 13.117188 444.296875 13.238281 C 443.242188 13.5 442.59375 13.664062 441.984375 13.878906 C 440.902344 14.285156 440.074219 14.667969 439.304688 15.113281 L 391.105469 43.113281 C 392.097656 42.898438 392.945312 42.792969 393.914062 42.730469 C 394.765625 42.695312 395.066406 42.6875 395.363281 42.6875 Z M 450.878906 137.742188 C 450.449219 137.308594 450.523438 110.183594 450.523438 110.183594 C 450.527344 108.960938 450.476562 107.6875 450.367188 106.296875 C 450.230469 104.636719 450.070312 103.304688 449.863281 102.007812 C 449.65625 100.699219 449.398438 99.390625 449.074219 97.976562 C 448.695312 96.359375 448.359375 95.105469 447.988281 93.851562 C 447.457031 92.113281 447.050781 90.890625 446.609375 89.683594 C 445.953125 87.945312 445.546875 86.933594 445.082031 85.84375 C 444.386719 84.234375 444.042969 83.523438 443.699219 82.808594 L 443.273438 81.921875 C 443.117188 81.585938 442.957031 81.246094 442.785156 80.914062 C 442.300781 79.957031 441.765625 78.996094 441.292969 78.152344 C 439.929688 75.730469 439.148438 74.457031 438.34375 73.230469 C 437.316406 71.71875 436.589844 70.644531 435.820312 69.597656 C 435.636719 69.339844 435.441406 69.09375 435.246094 68.847656 C 434.1875 67.476562 433.667969 66.796875 433.128906 66.140625 C 432.867188 65.820312 432.597656 65.515625 432.324219 65.207031 L 431.597656 64.375 C 431.140625 63.84375 430.679688 63.316406 430.207031 62.804688 C 428.726562 61.261719 427.957031 60.496094 427.203125 59.78125 C 425.832031 58.492188 424.867188 57.652344 423.878906 56.84375 C 422.515625 55.738281 421.488281 54.960938 420.460938 54.246094 C 419.136719 53.324219 418 52.605469 416.894531 51.964844 L 410.246094 48.128906 C 409.179688 47.511719 408.054688 46.933594 406.917969 46.398438 C 405.640625 45.8125 404.570312 45.386719 403.523438 45.027344 C 402.339844 44.632812 401.347656 44.355469 400.371094 44.140625 C 399.175781 43.878906 398.246094 43.734375 397.320312 43.648438 C 396.199219 43.550781 395.371094 43.53125 394.488281 43.566406 C 393.042969 43.652344 392.234375 43.753906 391.488281 43.902344 C 390.320312 44.191406 389.660156 44.382812 389.070312 44.597656 C 388.128906 44.941406 387.300781 45.324219 386.546875 45.761719 C 386.121094 45.011719 438.871094 14.367188 438.871094 14.367188 C 439.6875 13.898438 440.5625 13.488281 441.542969 13.132812 C 442.347656 12.832031 443.027344 12.664062 443.660156 12.523438 C 444.773438 12.265625 445.445312 12.167969 446.128906 12.101562 C 448.523438 12.019531 449.035156 12.039062 449.550781 12.070312 L 450.433594 12.160156 C 451.589844 12.296875 452.089844 12.378906 452.597656 12.476562 C 454.480469 12.910156 454.957031 13.039062 455.4375 13.183594 C 457.273438 13.796875 457.734375 13.972656 458.199219 14.15625 C 458.652344 14.339844 459.109375 14.53125 459.574219 14.738281 C 460.429688 15.136719 460.695312 15.257812 460.960938 15.390625 C 461.425781 15.621094 461.890625 15.863281 462.363281 16.117188 C 462.722656 16.316406 463.089844 16.519531 463.453125 16.730469 L 470.433594 20.757812 C 470.921875 21.042969 471.410156 21.34375 471.890625 21.652344 C 472.382812 21.964844 472.875 22.285156 473.359375 22.621094 C 474.109375 23.148438 474.492188 23.417969 474.875 23.695312 C 475.398438 24.085938 475.917969 24.484375 476.4375 24.894531 L 477.4375 25.710938 C 478.652344 26.734375 479.246094 27.257812 479.832031 27.792969 L 480.863281 28.773438 C 481.160156 29.058594 481.457031 29.335938 481.746094 29.625 C 482.03125 29.910156 482.3125 30.203125 482.59375 30.5 C 484.242188 32.238281 484.546875 32.59375 484.851562 32.949219 L 485.738281 33.972656 C 486.019531 34.292969 486.296875 34.609375 486.570312 34.9375 C 487.148438 35.632812 487.519531 36.121094 487.886719 36.613281 L 488.679688 37.636719 C 488.886719 37.902344 489.09375 38.164062 489.292969 38.433594 C 490.039062 39.453125 490.742188 40.488281 491.332031 41.371094 C 492.636719 43.328125 493.429688 44.613281 494.1875 45.921875 C 495.46875 48.238281 495.867188 48.949219 496.234375 49.671875 C 496.496094 50.195312 496.648438 50.527344 496.808594 50.855469 L 497.410156 52.113281 C 497.65625 52.605469 497.894531 53.097656 498.117188 53.59375 C 498.496094 54.492188 498.84375 55.308594 498.84375 55.308594 C 499.042969 55.757812 499.234375 56.210938 499.414062 56.664062 C 499.53125 56.960938 499.640625 57.257812 499.75 57.550781 C 500.675781 60.070312 500.929688 60.828125 501.171875 61.589844 C 501.324219 62.078125 501.683594 63.261719 501.683594 63.261719 C 502.015625 64.414062 502.199219 65.089844 502.367188 65.765625 C 502.515625 66.40625 502.8125 67.65625 502.8125 67.65625 C 502.953125 68.269531 503.078125 68.886719 503.195312 69.503906 C 503.300781 70.066406 503.394531 70.625 503.484375 71.179688 C 503.585938 71.828125 503.667969 72.410156 503.742188 72.984375 C 503.8125 73.546875 503.875 74.105469 503.929688 74.667969 L 504.023438 75.859375 C 504.097656 76.886719 504.125 77.441406 504.136719 77.988281 C 504.15625 78.507812 504.160156 79.023438 504.160156 79.539062 L 504.082031 106.660156 C 503.867188 107.03125 451.097656 137.683594 451.097656 137.683594 C 451.03125 137.722656 450.953125 137.742188 450.878906 137.742188 " fill-opacity="1" fill-rule="nonzero"/></g><path fill="#1a181a" d="M 486.429688 161.273438 L 486.007812 160.515625 L 521.785156 140.558594 L 522.207031 141.3125 L 486.429688 161.273438 " fill-opacity="1" fill-rule="nonzero"/></svg>