<svg xmlns="http://www.w3.org/2000/svg" xmlns:xlink="http://www.w3.org/1999/xlink" width="1200" zoomAndPan="magnify" viewBox="0 0 900 599.999999" height="800" preserveAspectRatio="xMidYMid meet" version="1.0"><defs><clipPath id="1c2e38714a"><path d="M 252 7.136719 L 649.101562 7.136719 L 649.101562 588 L 252 588 Z M 252 7.136719 " clip-rule="nonzero"/></clipPath></defs><g clip-path="url(#1c2e38714a)"><path fill="#c13e32" d="M 599.90625 258.898438 C 599.90625 258.898438 599.636719 258.628906 599.238281 258.09375 C 597.902344 256.625 596.699219 255.289062 595.359375 253.816406 C 571.566406 227.210938 463.8125 144.3125 450.710938 7.269531 C 450.710938 7.269531 438.546875 94.042969 301.386719 258.898438 C 269.703125 295.265625 250.851562 343.398438 252.589844 396.078125 C 255.933594 498.761719 338.683594 582.726562 441.355469 587.539062 C 555.121094 592.753906 649.101562 502.101562 649.101562 389.390625 C 649.101562 339.386719 630.519531 293.792969 599.90625 258.898438 Z M 599.90625 258.898438 " fill-opacity="1" fill-rule="nonzero"/></g><path fill="#ffffff" d="M 452.183594 509.1875 C 449.644531 509.1875 447.773438 507.316406 447.503906 504.910156 L 428.65625 289.382812 L 403.523438 438.863281 C 403.121094 441 401.25 442.738281 399.109375 442.738281 C 396.972656 442.871094 394.964844 441.402344 394.429688 439.261719 L 377.855469 373.214844 L 364.484375 405.167969 C 363.816406 406.90625 362.078125 407.976562 360.207031 407.976562 L 315.15625 407.976562 C 312.613281 407.976562 310.476562 405.835938 310.476562 403.296875 C 310.476562 400.757812 312.613281 398.617188 315.15625 398.617188 L 357 398.617188 L 374.644531 356.632812 C 375.449219 354.761719 377.320312 353.691406 379.324219 353.828125 C 381.328125 353.960938 383.066406 355.429688 383.46875 357.300781 L 397.90625 415.195312 L 425.3125 251.675781 C 425.714844 249.402344 427.71875 247.667969 430.125 247.800781 C 432.53125 247.933594 434.402344 249.671875 434.535156 252.078125 L 452.851562 460.65625 L 469.296875 330.5625 C 469.5625 328.289062 471.433594 326.550781 473.707031 326.417969 C 475.980469 326.285156 477.984375 327.753906 478.519531 330.027344 L 498.570312 411.050781 L 509 336.710938 C 509.265625 334.4375 511.136719 332.835938 513.410156 332.699219 C 515.683594 332.566406 517.6875 334.171875 518.222656 336.3125 L 532.929688 401.558594 L 586.136719 401.558594 C 588.675781 401.558594 590.816406 403.699219 590.816406 406.238281 C 590.816406 408.777344 588.675781 410.917969 586.136719 410.917969 L 529.1875 410.917969 C 527.046875 410.917969 525.042969 409.445312 524.640625 407.308594 L 514.75 363.320312 L 504.453125 436.320312 C 504.1875 438.59375 502.316406 440.199219 500.042969 440.332031 C 497.769531 440.464844 495.765625 438.996094 495.230469 436.722656 L 475.445312 356.5 L 456.730469 504.910156 C 456.59375 507.449219 454.589844 509.1875 452.183594 509.1875 Z M 452.183594 509.1875 " fill-opacity="1" fill-rule="nonzero"/></svg>